<mxfile host="app.diagrams.net" modified="2021-01-10T04:16:58.389Z" agent="5.0 (Macintosh; Intel Mac OS X 10_15_7) AppleWebKit/537.36 (KHTML, like Gecko) Chrome/87.0.4280.88 Safari/537.36" etag="0RbPUbKY7II279sE6G0r" version="14.1.8" type="github" pages="9">
  <diagram id="vI2MDdX4oTMRHShrmpDX" name="Introduction">
    <mxGraphModel dx="1371" dy="771" grid="1" gridSize="10" guides="1" tooltips="1" connect="1" arrows="1" fold="1" page="1" pageScale="1" pageWidth="850" pageHeight="1100" math="0" shadow="0">
      <root>
        <mxCell id="55hlM7NNFsCCo-5yqc0F-0" />
        <mxCell id="55hlM7NNFsCCo-5yqc0F-1" parent="55hlM7NNFsCCo-5yqc0F-0" />
        <mxCell id="55hlM7NNFsCCo-5yqc0F-2" value="Medical Device Lifecycle Management System&lt;br&gt;(MDLMS)" style="rounded=0;whiteSpace=wrap;html=1;fontSize=23;fontStyle=1;strokeColor=none;" vertex="1" parent="55hlM7NNFsCCo-5yqc0F-1">
          <mxGeometry x="165.5" y="140" width="520" height="10" as="geometry" />
        </mxCell>
        <mxCell id="55hlM7NNFsCCo-5yqc0F-3" value="Introduction" style="text;html=1;strokeColor=none;fillColor=none;align=center;verticalAlign=middle;whiteSpace=wrap;rounded=0;fontSize=23;" vertex="1" parent="55hlM7NNFsCCo-5yqc0F-1">
          <mxGeometry x="243" y="190" width="365" height="20" as="geometry" />
        </mxCell>
        <mxCell id="55hlM7NNFsCCo-5yqc0F-4" value="&lt;h1 style=&quot;font-size: 20px&quot;&gt;目的&lt;/h1&gt;&lt;p style=&quot;font-size: 21px&quot;&gt;&lt;span&gt;国内目前暂未发现专门针对医疗器械法规、标准要求等设计的项目管理系统（Project Management System）。市面上现有的一些在线ERP，CRM等管理系统可以进行相应改造。同时也有许多Agile，Scrum，DevOps等敏捷开发的项目管理工具（例如Worktile，Teambition等），这些工具可以用于团队协作进行软件开发和快速迭代（SaMD也可以使用类似的工具和流程进行项目管理），但是由于医疗器械的监管法规广泛而复杂，这类敏捷开发的工具并不能满足医疗器械全生命周期的管理及合规要求。因此，有必要开发一个专门为医疗器械合规的管理系统。&lt;/span&gt;&lt;br&gt;&lt;/p&gt;&lt;p style=&quot;font-size: 22px&quot;&gt;&lt;span style=&quot;font-size: 21px&quot;&gt;MDLMS是计划符合ISO13485，China GMP，和/或QSR820的在线RA项目管理系统。该系统旨在帮助医疗器械制造商满足不同国家/地区QMS相关要求，同时优化产品生命周期各阶段的流程，满足法规要求的设计开发、验证等文档要求，并最终形成完善的注册/认证提交文档。&lt;/span&gt;&lt;br&gt;&lt;/p&gt;" style="text;html=1;strokeColor=none;fillColor=none;spacing=5;spacingTop=-20;whiteSpace=wrap;overflow=hidden;rounded=0;fontSize=22;" vertex="1" parent="55hlM7NNFsCCo-5yqc0F-1">
          <mxGeometry x="40" y="280" width="770" height="380" as="geometry" />
        </mxCell>
        <mxCell id="55hlM7NNFsCCo-5yqc0F-5" value="&lt;h1 style=&quot;font-size: 20px&quot;&gt;限制条件&lt;/h1&gt;&lt;p style=&quot;font-size: 21px&quot;&gt;&lt;span&gt;本人主业为法规事务（RA），主要工作内容是为客户提供CE认证、NMPA注册等咨询服务。因此系统开发时间受限。&lt;/span&gt;&lt;br&gt;&lt;/p&gt;&lt;p style=&quot;font-size: 21px&quot;&gt;&lt;span&gt;目前该项目开发人员只有本人自己，并且敲代码能力极其有限，因此MDLMS将基于现成软件（COTS），开源软件（Open Source），以及其他供应商提供的定制化软件进行开发。&lt;/span&gt;&lt;/p&gt;&lt;span style=&quot;font-size: 21px&quot;&gt;&lt;br&gt;&lt;/span&gt;" style="text;html=1;strokeColor=none;fillColor=none;spacing=5;spacingTop=-20;whiteSpace=wrap;overflow=hidden;rounded=0;fontSize=22;" vertex="1" parent="55hlM7NNFsCCo-5yqc0F-1">
          <mxGeometry x="40" y="660" width="770" height="210" as="geometry" />
        </mxCell>
        <mxCell id="55hlM7NNFsCCo-5yqc0F-6" value="Michael 2021.01" style="text;html=1;align=center;verticalAlign=middle;resizable=0;points=[];autosize=1;fontSize=12;fontColor=#0000FF;" vertex="1" parent="55hlM7NNFsCCo-5yqc0F-1">
          <mxGeometry x="375" y="220" width="100" height="20" as="geometry" />
        </mxCell>
        <mxCell id="55hlM7NNFsCCo-5yqc0F-8" value="&lt;h1 style=&quot;font-size: 20px&quot;&gt;系统设计&lt;/h1&gt;&lt;p style=&quot;font-size: 21px&quot;&gt;系统界面、功能、流程等将在本说明之后的系统设计开发计划中进行详细介绍。&lt;/p&gt;&lt;span style=&quot;font-size: 21px&quot;&gt;&lt;br&gt;&lt;/span&gt;" style="text;html=1;strokeColor=none;fillColor=none;spacing=5;spacingTop=-20;whiteSpace=wrap;overflow=hidden;rounded=0;fontSize=22;" vertex="1" parent="55hlM7NNFsCCo-5yqc0F-1">
          <mxGeometry x="40.5" y="880" width="770" height="210" as="geometry" />
        </mxCell>
      </root>
    </mxGraphModel>
  </diagram>
  <diagram name="Login Page" id="zUc0THoBcSe9cGWa7k8Y">
    <mxGraphModel dx="1371" dy="771" grid="1" gridSize="10" guides="1" tooltips="1" connect="1" arrows="1" fold="1" page="1" pageScale="1.5" pageWidth="826" pageHeight="1169" background="#ffffff" math="0" shadow="0">
      <root>
        <mxCell id="fHPWtzzXnt-LDMWmCrJ1-0" style=";html=1;" />
        <mxCell id="fHPWtzzXnt-LDMWmCrJ1-1" style=";html=1;" parent="fHPWtzzXnt-LDMWmCrJ1-0" />
        <mxCell id="HeL5cMQgIy6OXZka18x0-0" value="Design &amp;amp; Development Plan" style="text;html=1;align=left;verticalAlign=middle;resizable=0;points=[];autosize=1;fontSize=14;fontColor=#0000FF;" vertex="1" parent="fHPWtzzXnt-LDMWmCrJ1-1">
          <mxGeometry x="40" y="20" width="190" height="20" as="geometry" />
        </mxCell>
        <mxCell id="e5E2QbNswtkjHqlz2Sbp-0" value="Log in to MDLMS" style="html=1;shadow=0;dashed=0;shape=mxgraph.bootstrap.rrect;rSize=5;html=1;strokeColor=#C8C8C8;fillColor=#ffffff;whiteSpace=wrap;verticalAlign=top;align=left;fontSize=18;spacing=15;spacingTop=-5;" vertex="1" parent="fHPWtzzXnt-LDMWmCrJ1-1">
          <mxGeometry x="385" y="310" width="470" height="370" as="geometry" />
        </mxCell>
        <mxCell id="e5E2QbNswtkjHqlz2Sbp-1" value="" style="shape=line;strokeColor=#dddddd;resizeWidth=1;" vertex="1" parent="e5E2QbNswtkjHqlz2Sbp-0">
          <mxGeometry width="470" height="10" relative="1" as="geometry">
            <mxPoint y="50" as="offset" />
          </mxGeometry>
        </mxCell>
        <mxCell id="e5E2QbNswtkjHqlz2Sbp-3" value="Email / Username" style="strokeColor=none;fillColor=none;resizeWidth=1;align=left;verticalAlign=top;spacing=10;fontSize=14;whiteSpace=wrap;html=1;" vertex="1" parent="e5E2QbNswtkjHqlz2Sbp-0">
          <mxGeometry width="470" height="40" relative="1" as="geometry">
            <mxPoint y="60" as="offset" />
          </mxGeometry>
        </mxCell>
        <mxCell id="e5E2QbNswtkjHqlz2Sbp-4" value="" style="html=1;shadow=0;dashed=0;shape=mxgraph.bootstrap.rrect;rSize=5;strokeColor=#CED4DA;fillColor=none;align=left;verticalAlign=middle;spacing=10;fontSize=14;whiteSpace=wrap;html=1;" vertex="1" parent="e5E2QbNswtkjHqlz2Sbp-0">
          <mxGeometry width="380" height="40" relative="1" as="geometry">
            <mxPoint x="45" y="100" as="offset" />
          </mxGeometry>
        </mxCell>
        <mxCell id="e5E2QbNswtkjHqlz2Sbp-5" value="Password" style="strokeColor=none;fillColor=none;resizeWidth=1;align=left;verticalAlign=top;spacing=10;fontSize=14;whiteSpace=wrap;html=1;" vertex="1" parent="e5E2QbNswtkjHqlz2Sbp-0">
          <mxGeometry width="470" height="40" relative="1" as="geometry">
            <mxPoint y="160" as="offset" />
          </mxGeometry>
        </mxCell>
        <mxCell id="e5E2QbNswtkjHqlz2Sbp-6" value="" style="html=1;shadow=0;dashed=0;shape=mxgraph.bootstrap.rrect;rSize=5;strokeColor=#CED4DA;fillColor=none;align=left;verticalAlign=middle;spacing=10;fontSize=14;whiteSpace=wrap;html=1;" vertex="1" parent="e5E2QbNswtkjHqlz2Sbp-0">
          <mxGeometry width="380" height="40" relative="1" as="geometry">
            <mxPoint x="45" y="200" as="offset" />
          </mxGeometry>
        </mxCell>
        <mxCell id="e5E2QbNswtkjHqlz2Sbp-7" value="" style="shape=line;strokeColor=#dddddd;resizeWidth=1;" vertex="1" parent="e5E2QbNswtkjHqlz2Sbp-0">
          <mxGeometry width="470" height="10" relative="1" as="geometry">
            <mxPoint y="290" as="offset" />
          </mxGeometry>
        </mxCell>
        <mxCell id="e5E2QbNswtkjHqlz2Sbp-8" value="Forget password" style="html=1;shadow=0;dashed=0;shape=mxgraph.bootstrap.rrect;rSize=5;fillColor=#0085FC;strokeColor=none;fontColor=#FFFFFF;fontSize=14;" vertex="1" parent="e5E2QbNswtkjHqlz2Sbp-0">
          <mxGeometry x="1" y="1" width="110" height="40" relative="1" as="geometry">
            <mxPoint x="-224.5" y="-60" as="offset" />
          </mxGeometry>
        </mxCell>
        <mxCell id="e5E2QbNswtkjHqlz2Sbp-9" value="Sign in" style="html=1;shadow=0;dashed=0;shape=mxgraph.bootstrap.rrect;rSize=5;fillColor=#60a917;strokeColor=#2D7600;fontColor=#ffffff;fontSize=14;" vertex="1" parent="e5E2QbNswtkjHqlz2Sbp-0">
          <mxGeometry x="1" y="1" width="111" height="40" relative="1" as="geometry">
            <mxPoint x="-355.5" y="-60" as="offset" />
          </mxGeometry>
        </mxCell>
        <mxCell id="e5E2QbNswtkjHqlz2Sbp-10" value="MDLMS" style="whiteSpace=wrap;html=1;fontSize=14;fontColor=#0000FF;align=center;" vertex="1" parent="fHPWtzzXnt-LDMWmCrJ1-1">
          <mxGeometry x="555" y="240" width="120" height="60" as="geometry" />
        </mxCell>
      </root>
    </mxGraphModel>
  </diagram>
  <diagram name="Home" id="c9db0220-8083-56f3-ca83-edcdcd058819">
    <mxGraphModel dx="1371" dy="771" grid="1" gridSize="10" guides="1" tooltips="1" connect="1" arrows="1" fold="1" page="1" pageScale="1.5" pageWidth="826" pageHeight="1169" background="#ffffff" math="0" shadow="0">
      <root>
        <mxCell id="0" style=";html=1;" />
        <mxCell id="1" style=";html=1;" parent="0" />
        <mxCell id="3d76a8aef4d5c911-1" value="" style="html=1;shadow=0;dashed=0;shape=mxgraph.bootstrap.rect;fillColor=#222222;strokeColor=none;whiteSpace=wrap;rounded=0;fontSize=12;fontColor=#000000;align=center;" parent="1" vertex="1">
          <mxGeometry x="40" y="70" width="1150" height="40" as="geometry" />
        </mxCell>
        <mxCell id="3d76a8aef4d5c911-2" value="Company name" style="html=1;shadow=0;dashed=0;shape=mxgraph.bootstrap.rect;fontSize=14;whiteSpace=wrap;fontColor=#FFFFFF;strokeColor=none;fillColor=none;" parent="3d76a8aef4d5c911-1" vertex="1">
          <mxGeometry width="115" height="40" as="geometry" />
        </mxCell>
        <mxCell id="3d76a8aef4d5c911-3" value="Work" style="html=1;shadow=0;dashed=0;shape=mxgraph.bootstrap.rect;strokeColor=none;spacingRight=30;whiteSpace=wrap;align=center;fillColor=none;fontColor=#FFFFFF;" parent="3d76a8aef4d5c911-1" vertex="1">
          <mxGeometry x="115" width="135" height="40" as="geometry" />
        </mxCell>
        <mxCell id="3d76a8aef4d5c911-5" value="Project" style="html=1;shadow=0;dashed=0;strokeColor=none;shape=mxgraph.bootstrap.rect;fontColor=#999999;spacingRight=30;whiteSpace=wrap;fillColor=none;" parent="3d76a8aef4d5c911-1" vertex="1">
          <mxGeometry x="250" width="152.5" height="40" as="geometry" />
        </mxCell>
        <mxCell id="3d76a8aef4d5c911-6" value="" style="html=1;shadow=0;dashed=0;shape=mxgraph.bootstrap.rrect;rSize=8;strokeColor=none;fontColor=#ffffff;whiteSpace=wrap;fillColor=none;" parent="3d76a8aef4d5c911-5" vertex="1">
          <mxGeometry x="1" y="0.5" width="25" height="16" relative="1" as="geometry">
            <mxPoint x="362.5" y="30" as="offset" />
          </mxGeometry>
        </mxCell>
        <mxCell id="UTzzRkdtr8xKzgwEx_55-1" value="" style="html=1;verticalLabelPosition=bottom;labelBackgroundColor=#ffffff;verticalAlign=top;shadow=0;dashed=0;strokeWidth=2;shape=mxgraph.ios7.misc.down;fillColor=none;fontSize=11;fontColor=#999999;align=center;opacity=70;fillOpacity=80;strokeOpacity=80;strokeColor=#999999;" vertex="1" parent="3d76a8aef4d5c911-5">
          <mxGeometry x="90" y="17.5" width="9" height="5" as="geometry" />
        </mxCell>
        <mxCell id="3d76a8aef4d5c911-7" value="TBD" style="html=1;shadow=0;dashed=0;fillColor=none;strokeColor=none;shape=mxgraph.bootstrap.rect;fontColor=#999999;whiteSpace=wrap;" parent="3d76a8aef4d5c911-1" vertex="1">
          <mxGeometry x="402.5" width="115" height="40" as="geometry" />
        </mxCell>
        <mxCell id="3d76a8aef4d5c911-8" value="TBD" style="html=1;shadow=0;dashed=0;fillColor=none;strokeColor=none;shape=mxgraph.bootstrap.rect;fontColor=#999999;whiteSpace=wrap;" parent="3d76a8aef4d5c911-1" vertex="1">
          <mxGeometry x="517.5" width="172.5" height="40" as="geometry" />
        </mxCell>
        <mxCell id="3d76a8aef4d5c911-9" value="Profile" style="html=1;shadow=0;dashed=0;fillColor=none;strokeColor=none;shape=mxgraph.bootstrap.rect;fontColor=#999999;whiteSpace=wrap;" parent="3d76a8aef4d5c911-1" vertex="1">
          <mxGeometry x="948.75" width="100.625" height="40" as="geometry" />
        </mxCell>
        <mxCell id="3d76a8aef4d5c911-10" value="Log Out" style="html=1;shadow=0;dashed=0;fillColor=none;strokeColor=none;shape=mxgraph.bootstrap.rect;fontColor=#999999;whiteSpace=wrap;" parent="3d76a8aef4d5c911-1" vertex="1">
          <mxGeometry x="1049.375" width="100.625" height="40" as="geometry" />
        </mxCell>
        <mxCell id="3d76a8aef4d5c911-11" value="" style="html=1;shadow=0;dashed=0;shape=mxgraph.bootstrap.rrect;rSize=5;strokeColor=#dddddd;rounded=0;fontSize=12;align=center;" parent="1" vertex="1">
          <mxGeometry x="40" y="160" width="270" height="310" as="geometry" />
        </mxCell>
        <mxCell id="3d76a8aef4d5c911-12" value="project image" style="shape=rect;fontSize=24;fillColor=#f0f0f0;strokeColor=none;fontColor=#999999;whiteSpace=wrap;" parent="3d76a8aef4d5c911-11" vertex="1">
          <mxGeometry x="4.090909090909091" y="3.88" width="261.8181818181818" height="156.13" as="geometry" />
        </mxCell>
        <mxCell id="3d76a8aef4d5c911-13" value="Project name" style="html=1;shadow=0;dashed=0;shape=mxgraph.bootstrap.anchor;fontSize=26;align=left;whiteSpace=wrap;" parent="3d76a8aef4d5c911-11" vertex="1">
          <mxGeometry x="4.090909090909091" y="190" width="245.45454545454547" height="31" as="geometry" />
        </mxCell>
        <mxCell id="3d76a8aef4d5c911-14" value="short notice" style="html=1;shadow=0;dashed=0;shape=mxgraph.bootstrap.anchor;strokeColor=#dddddd;whiteSpace=wrap;align=left;verticalAlign=top;fontSize=14;whiteSpace=wrap;" parent="3d76a8aef4d5c911-11" vertex="1">
          <mxGeometry x="4.090909090909091" y="230" width="245.45454545454547" height="62" as="geometry" />
        </mxCell>
        <mxCell id="3d76a8aef4d5c911-17" value="My Work" style="html=1;shadow=0;dashed=0;shape=mxgraph.bootstrap.rect;strokeColor=none;fillColor=none;fontColor=#999999;align=left;spacingLeft=5;whiteSpace=wrap;rounded=0;" parent="1" vertex="1">
          <mxGeometry x="40" y="130" width="200" height="20" as="geometry" />
        </mxCell>
        <mxCell id="SYMaY6hoxbF1sldFQT_y-1" value="" style="html=1;shadow=0;dashed=0;shape=mxgraph.bootstrap.rrect;rSize=5;strokeColor=#dddddd;rounded=0;fontSize=12;align=center;" vertex="1" parent="1">
          <mxGeometry x="320" y="160" width="270" height="310" as="geometry" />
        </mxCell>
        <mxCell id="SYMaY6hoxbF1sldFQT_y-2" value="project image" style="shape=rect;fontSize=24;fillColor=#f0f0f0;strokeColor=none;fontColor=#999999;whiteSpace=wrap;" vertex="1" parent="SYMaY6hoxbF1sldFQT_y-1">
          <mxGeometry x="4.090909090909091" y="3.88" width="261.8181818181818" height="156.13" as="geometry" />
        </mxCell>
        <mxCell id="SYMaY6hoxbF1sldFQT_y-3" value="Project name" style="html=1;shadow=0;dashed=0;shape=mxgraph.bootstrap.anchor;fontSize=26;align=left;whiteSpace=wrap;" vertex="1" parent="SYMaY6hoxbF1sldFQT_y-1">
          <mxGeometry x="4.090909090909091" y="190" width="245.45454545454547" height="31" as="geometry" />
        </mxCell>
        <mxCell id="SYMaY6hoxbF1sldFQT_y-4" value="short notice" style="html=1;shadow=0;dashed=0;shape=mxgraph.bootstrap.anchor;strokeColor=#dddddd;whiteSpace=wrap;align=left;verticalAlign=top;fontSize=14;whiteSpace=wrap;" vertex="1" parent="SYMaY6hoxbF1sldFQT_y-1">
          <mxGeometry x="4.090909090909091" y="230" width="245.45454545454547" height="62" as="geometry" />
        </mxCell>
        <mxCell id="SYMaY6hoxbF1sldFQT_y-5" value="" style="html=1;shadow=0;dashed=0;shape=mxgraph.bootstrap.rrect;rSize=5;strokeColor=#dddddd;rounded=0;fontSize=12;align=center;" vertex="1" parent="1">
          <mxGeometry x="600" y="160" width="270" height="310" as="geometry" />
        </mxCell>
        <mxCell id="SYMaY6hoxbF1sldFQT_y-6" value="project image" style="shape=rect;fontSize=24;fillColor=#f0f0f0;strokeColor=none;fontColor=#999999;whiteSpace=wrap;" vertex="1" parent="SYMaY6hoxbF1sldFQT_y-5">
          <mxGeometry x="4.090909090909091" y="3.88" width="261.8181818181818" height="156.13" as="geometry" />
        </mxCell>
        <mxCell id="SYMaY6hoxbF1sldFQT_y-7" value="Project name" style="html=1;shadow=0;dashed=0;shape=mxgraph.bootstrap.anchor;fontSize=26;align=left;whiteSpace=wrap;" vertex="1" parent="SYMaY6hoxbF1sldFQT_y-5">
          <mxGeometry x="4.090909090909091" y="190" width="245.45454545454547" height="31" as="geometry" />
        </mxCell>
        <mxCell id="SYMaY6hoxbF1sldFQT_y-8" value="short notice" style="html=1;shadow=0;dashed=0;shape=mxgraph.bootstrap.anchor;strokeColor=#dddddd;whiteSpace=wrap;align=left;verticalAlign=top;fontSize=14;whiteSpace=wrap;" vertex="1" parent="SYMaY6hoxbF1sldFQT_y-5">
          <mxGeometry x="4.090909090909091" y="230" width="245.45454545454547" height="62" as="geometry" />
        </mxCell>
        <mxCell id="SYMaY6hoxbF1sldFQT_y-9" value="" style="html=1;shadow=0;dashed=0;shape=mxgraph.bootstrap.rrect;rSize=5;strokeColor=#dddddd;rounded=0;fontSize=12;align=center;" vertex="1" parent="1">
          <mxGeometry x="880" y="160" width="270" height="310" as="geometry" />
        </mxCell>
        <mxCell id="SYMaY6hoxbF1sldFQT_y-10" value="project image" style="shape=rect;fontSize=24;fillColor=#f0f0f0;strokeColor=none;fontColor=#999999;whiteSpace=wrap;" vertex="1" parent="SYMaY6hoxbF1sldFQT_y-9">
          <mxGeometry x="4.090909090909091" y="3.88" width="261.8181818181818" height="156.13" as="geometry" />
        </mxCell>
        <mxCell id="SYMaY6hoxbF1sldFQT_y-11" value="Project name" style="html=1;shadow=0;dashed=0;shape=mxgraph.bootstrap.anchor;fontSize=26;align=left;whiteSpace=wrap;" vertex="1" parent="SYMaY6hoxbF1sldFQT_y-9">
          <mxGeometry x="4.090909090909091" y="190" width="245.45454545454547" height="31" as="geometry" />
        </mxCell>
        <mxCell id="SYMaY6hoxbF1sldFQT_y-12" value="short notice" style="html=1;shadow=0;dashed=0;shape=mxgraph.bootstrap.anchor;strokeColor=#dddddd;whiteSpace=wrap;align=left;verticalAlign=top;fontSize=14;whiteSpace=wrap;" vertex="1" parent="SYMaY6hoxbF1sldFQT_y-9">
          <mxGeometry x="4.090909090909091" y="230" width="245.45454545454547" height="62" as="geometry" />
        </mxCell>
        <mxCell id="SYMaY6hoxbF1sldFQT_y-13" value="All projects" style="html=1;shadow=0;dashed=0;shape=mxgraph.bootstrap.rrect;rSize=5;strokeColor=none;strokeWidth=1;fillColor=#0085FC;fontColor=#FFFFFF;whiteSpace=wrap;align=left;verticalAlign=middle;spacingLeft=10;fontStyle=0;fontSize=14;" vertex="1" parent="1">
          <mxGeometry x="40" y="490" width="130" height="40" as="geometry" />
        </mxCell>
        <mxCell id="SYMaY6hoxbF1sldFQT_y-14" value="6" style="html=1;shadow=0;dashed=0;shape=mxgraph.bootstrap.rrect;rSize=5;strokeColor=none;strokeWidth=1;fillColor=#ffffff;fontColor=#000000;whiteSpace=wrap;align=center;verticalAlign=middle;fontSize=12;" vertex="1" parent="SYMaY6hoxbF1sldFQT_y-13">
          <mxGeometry x="1" y="0.5" width="20" height="20" relative="1" as="geometry">
            <mxPoint x="-30" y="-10" as="offset" />
          </mxGeometry>
        </mxCell>
        <mxCell id="SS4DLsE7-YGNGwxIR9n8-1" value="说明：" style="text;html=1;strokeColor=none;fillColor=none;align=left;verticalAlign=middle;whiteSpace=wrap;rounded=0;fontSize=11;fontColor=#999999;opacity=70;" vertex="1" parent="1">
          <mxGeometry x="40" y="610" width="650" height="20" as="geometry" />
        </mxCell>
        <mxCell id="0JWuFGtJfeJo6dfdpYac-1" value="点击Company name或Work，显示该Home页面，列出最新的四个项目，下方按钮进入列表，显示全部项目" style="text;html=1;strokeColor=none;fillColor=none;align=left;verticalAlign=middle;whiteSpace=wrap;rounded=0;fontSize=11;fontColor=#999999;opacity=70;" vertex="1" parent="1">
          <mxGeometry x="80" y="630" width="650" height="20" as="geometry" />
        </mxCell>
        <mxCell id="0JWuFGtJfeJo6dfdpYac-2" value="点击项目图标，进入该项目详情" style="text;html=1;strokeColor=none;fillColor=none;align=left;verticalAlign=middle;whiteSpace=wrap;rounded=0;fontSize=11;fontColor=#999999;opacity=70;" vertex="1" parent="1">
          <mxGeometry x="80" y="650" width="650" height="20" as="geometry" />
        </mxCell>
      </root>
    </mxGraphModel>
  </diagram>
  <diagram name="All projects" id="B4J9ROsWJFDdFc-aAc3U">
    <mxGraphModel dx="1371" dy="771" grid="1" gridSize="10" guides="1" tooltips="1" connect="1" arrows="1" fold="1" page="1" pageScale="1.5" pageWidth="826" pageHeight="1169" background="#ffffff" math="0" shadow="0">
      <root>
        <mxCell id="r-Q4tmBVrbP1ys0v87ex-0" style=";html=1;" />
        <mxCell id="r-Q4tmBVrbP1ys0v87ex-1" style=";html=1;" parent="r-Q4tmBVrbP1ys0v87ex-0" />
        <mxCell id="r-Q4tmBVrbP1ys0v87ex-6" value="All projects" style="html=1;shadow=0;dashed=0;shape=mxgraph.bootstrap.rect;strokeColor=none;fillColor=none;fontColor=#999999;align=left;spacingLeft=5;whiteSpace=wrap;rounded=0;fontSize=14;" vertex="1" parent="r-Q4tmBVrbP1ys0v87ex-1">
          <mxGeometry x="40" y="130" width="200" height="20" as="geometry" />
        </mxCell>
        <mxCell id="r-Q4tmBVrbP1ys0v87ex-15" value="Type 1&lt;br&gt;Type 2&lt;br&gt;Type 3&lt;br&gt;Type 4&lt;br&gt;......" style="html=1;shadow=0;dashed=0;shape=mxgraph.bootstrap.rrect;fontSize=12;rSize=2;strokeColor=#dddddd;align=left;verticalAlign=top;spacing=10;shadow=1;whiteSpace=wrap;rounded=0;" vertex="1" parent="r-Q4tmBVrbP1ys0v87ex-1">
          <mxGeometry x="930" y="200" width="240" height="90" as="geometry" />
        </mxCell>
        <mxCell id="r-Q4tmBVrbP1ys0v87ex-62" value="" style="html=1;shadow=0;dashed=0;shape=mxgraph.bootstrap.rect;fillColor=#222222;strokeColor=none;whiteSpace=wrap;rounded=0;fontSize=12;fontColor=#000000;align=center;" vertex="1" parent="r-Q4tmBVrbP1ys0v87ex-1">
          <mxGeometry x="40" y="70" width="1150" height="40" as="geometry" />
        </mxCell>
        <mxCell id="r-Q4tmBVrbP1ys0v87ex-63" value="Company name" style="html=1;shadow=0;dashed=0;shape=mxgraph.bootstrap.rect;fontSize=14;whiteSpace=wrap;fontColor=#FFFFFF;strokeColor=none;fillColor=none;" vertex="1" parent="r-Q4tmBVrbP1ys0v87ex-62">
          <mxGeometry width="115" height="40" as="geometry" />
        </mxCell>
        <mxCell id="r-Q4tmBVrbP1ys0v87ex-64" value="Work" style="html=1;shadow=0;dashed=0;shape=mxgraph.bootstrap.rect;strokeColor=none;spacingRight=30;whiteSpace=wrap;align=center;fillColor=none;fontColor=#FFFFFF;" vertex="1" parent="r-Q4tmBVrbP1ys0v87ex-62">
          <mxGeometry x="115" width="135" height="40" as="geometry" />
        </mxCell>
        <mxCell id="r-Q4tmBVrbP1ys0v87ex-65" value="Project" style="html=1;shadow=0;dashed=0;strokeColor=none;shape=mxgraph.bootstrap.rect;fontColor=#999999;spacingRight=30;whiteSpace=wrap;fillColor=none;" vertex="1" parent="r-Q4tmBVrbP1ys0v87ex-62">
          <mxGeometry x="250" width="152.5" height="40" as="geometry" />
        </mxCell>
        <mxCell id="r-Q4tmBVrbP1ys0v87ex-66" value="" style="html=1;shadow=0;dashed=0;shape=mxgraph.bootstrap.rrect;rSize=8;strokeColor=none;fontColor=#ffffff;whiteSpace=wrap;fillColor=none;" vertex="1" parent="r-Q4tmBVrbP1ys0v87ex-65">
          <mxGeometry x="1" y="0.5" width="25" height="16" relative="1" as="geometry">
            <mxPoint x="362.5" y="30" as="offset" />
          </mxGeometry>
        </mxCell>
        <mxCell id="r-Q4tmBVrbP1ys0v87ex-67" value="" style="html=1;verticalLabelPosition=bottom;labelBackgroundColor=#ffffff;verticalAlign=top;shadow=0;dashed=0;strokeWidth=2;shape=mxgraph.ios7.misc.down;fillColor=none;fontSize=11;fontColor=#999999;align=center;opacity=70;fillOpacity=80;strokeOpacity=80;strokeColor=#999999;" vertex="1" parent="r-Q4tmBVrbP1ys0v87ex-65">
          <mxGeometry x="90" y="17.5" width="9" height="5" as="geometry" />
        </mxCell>
        <mxCell id="r-Q4tmBVrbP1ys0v87ex-68" value="TBD" style="html=1;shadow=0;dashed=0;fillColor=none;strokeColor=none;shape=mxgraph.bootstrap.rect;fontColor=#999999;whiteSpace=wrap;" vertex="1" parent="r-Q4tmBVrbP1ys0v87ex-62">
          <mxGeometry x="402.5" width="115" height="40" as="geometry" />
        </mxCell>
        <mxCell id="r-Q4tmBVrbP1ys0v87ex-69" value="TBD" style="html=1;shadow=0;dashed=0;fillColor=none;strokeColor=none;shape=mxgraph.bootstrap.rect;fontColor=#999999;whiteSpace=wrap;" vertex="1" parent="r-Q4tmBVrbP1ys0v87ex-62">
          <mxGeometry x="517.5" width="172.5" height="40" as="geometry" />
        </mxCell>
        <mxCell id="r-Q4tmBVrbP1ys0v87ex-70" value="Profile" style="html=1;shadow=0;dashed=0;fillColor=none;strokeColor=none;shape=mxgraph.bootstrap.rect;fontColor=#999999;whiteSpace=wrap;" vertex="1" parent="r-Q4tmBVrbP1ys0v87ex-62">
          <mxGeometry x="948.75" width="100.625" height="40" as="geometry" />
        </mxCell>
        <mxCell id="r-Q4tmBVrbP1ys0v87ex-71" value="Log Out" style="html=1;shadow=0;dashed=0;fillColor=none;strokeColor=none;shape=mxgraph.bootstrap.rect;fontColor=#999999;whiteSpace=wrap;" vertex="1" parent="r-Q4tmBVrbP1ys0v87ex-62">
          <mxGeometry x="1049.375" width="100.625" height="40" as="geometry" />
        </mxCell>
        <mxCell id="r-Q4tmBVrbP1ys0v87ex-72" value="" style="endArrow=none;html=1;fontSize=11;fontColor=#999999;strokeWidth=2;strokeColor=#999999;" edge="1" parent="r-Q4tmBVrbP1ys0v87ex-1">
          <mxGeometry width="50" height="50" relative="1" as="geometry">
            <mxPoint x="40" y="280" as="sourcePoint" />
            <mxPoint x="1190" y="280" as="targetPoint" />
          </mxGeometry>
        </mxCell>
        <mxCell id="iWzvquf0pUW0mqhQwnJp-0" value="" style="html=1;shadow=0;dashed=0;shape=mxgraph.bootstrap.rrect;rSize=5;strokeColor=#CED4DA;html=1;whiteSpace=wrap;fillColor=#FFFFFF;fontColor=#7D868C;align=left;spacingLeft=0;spacing=15;fontSize=14;opacity=70;" vertex="1" parent="r-Q4tmBVrbP1ys0v87ex-1">
          <mxGeometry x="640" y="160" width="270" height="40" as="geometry" />
        </mxCell>
        <mxCell id="iWzvquf0pUW0mqhQwnJp-1" value="Search" style="html=1;shadow=0;dashed=0;shape=mxgraph.bootstrap.rightButton;strokeColor=#6C757D;gradientColor=inherit;fontColor=inherit;fillColor=inherit;rSize=5;perimeter=none;whiteSpace=wrap;resizeHeight=1;fontSize=14;" vertex="1" parent="iWzvquf0pUW0mqhQwnJp-0">
          <mxGeometry x="1" width="70" height="40" relative="1" as="geometry">
            <mxPoint x="-70" as="offset" />
          </mxGeometry>
        </mxCell>
        <mxCell id="iWzvquf0pUW0mqhQwnJp-3" value="&lt;span style=&quot;color: rgb(0 , 0 , 0) ; font-size: 14px ; text-align: center ; line-height: 100%&quot;&gt;Project type&lt;/span&gt;" style="html=1;shadow=0;dashed=0;shape=mxgraph.bootstrap.rrect;rSize=5;strokeColor=#505050;strokeWidth=1;fillColor=#ffffff;fontColor=#777777;whiteSpace=wrap;align=left;verticalAlign=middle;fontStyle=0;fontSize=18;spacing=20;opacity=70;" vertex="1" parent="r-Q4tmBVrbP1ys0v87ex-1">
          <mxGeometry x="930" y="160" width="260" height="40" as="geometry" />
        </mxCell>
        <mxCell id="iWzvquf0pUW0mqhQwnJp-4" value="" style="shape=triangle;direction=south;fillColor=#495057;strokeColor=none;perimeter=none;" vertex="1" parent="iWzvquf0pUW0mqhQwnJp-3">
          <mxGeometry x="1" y="0.5" width="10" height="5" relative="1" as="geometry">
            <mxPoint x="-17" y="-2.5" as="offset" />
          </mxGeometry>
        </mxCell>
        <mxCell id="iWzvquf0pUW0mqhQwnJp-5" value="" style="html=1;shadow=0;dashed=0;strokeColor=none;fontSize=16;fontColor=#161819;align=left;spacing=15;opacity=70;fillColor=none;" vertex="1" parent="r-Q4tmBVrbP1ys0v87ex-1">
          <mxGeometry x="40" y="230" width="790" height="60" as="geometry" />
        </mxCell>
        <mxCell id="iWzvquf0pUW0mqhQwnJp-6" value="Project name" style="fillColor=none;strokeColor=none;fontSize=12;align=left;fontColor=#71797E;" vertex="1" parent="iWzvquf0pUW0mqhQwnJp-5">
          <mxGeometry width="70" height="40" relative="1" as="geometry">
            <mxPoint y="10" as="offset" />
          </mxGeometry>
        </mxCell>
        <mxCell id="iWzvquf0pUW0mqhQwnJp-7" value="Type" style="fillColor=none;strokeColor=none;fontSize=12;align=center;fontColor=#71797E;" vertex="1" parent="iWzvquf0pUW0mqhQwnJp-5">
          <mxGeometry width="70" height="40" relative="1" as="geometry">
            <mxPoint x="218" y="10" as="offset" />
          </mxGeometry>
        </mxCell>
        <mxCell id="iWzvquf0pUW0mqhQwnJp-8" value="Project manager" style="fillColor=none;strokeColor=none;fontSize=12;fontColor=#71797E;align=left;spacingRight=0;" vertex="1" parent="iWzvquf0pUW0mqhQwnJp-5">
          <mxGeometry width="80" height="40" relative="1" as="geometry">
            <mxPoint x="510" y="10" as="offset" />
          </mxGeometry>
        </mxCell>
        <mxCell id="q6sPAKDDy_8OHhhaY2mn-9" value="" style="html=1;shadow=1;dashed=0;shape=mxgraph.bootstrap.rrect;rSize=5;fillColor=#ffffff;strokeColor=#999999;fontSize=13;fontColor=#007FFF;opacity=70;align=left;sketch=0;" vertex="1" parent="iWzvquf0pUW0mqhQwnJp-5">
          <mxGeometry x="280" y="-120" width="150" height="40" as="geometry" />
        </mxCell>
        <mxCell id="q6sPAKDDy_8OHhhaY2mn-10" value="Create new..." style="fillColor=none;strokeColor=none;align=left;spacing=20;fontSize=14;" vertex="1" parent="q6sPAKDDy_8OHhhaY2mn-9">
          <mxGeometry width="170" height="30" relative="1" as="geometry">
            <mxPoint y="5" as="offset" />
          </mxGeometry>
        </mxCell>
        <mxCell id="iWzvquf0pUW0mqhQwnJp-12" value="" style="html=1;shadow=0;dashed=0;strokeColor=none;fontSize=16;fontColor=#161819;align=left;spacing=0;opacity=70;fillColor=none;verticalAlign=middle;" vertex="1" parent="r-Q4tmBVrbP1ys0v87ex-1">
          <mxGeometry x="40" y="280" width="790" height="40" as="geometry" />
        </mxCell>
        <mxCell id="iWzvquf0pUW0mqhQwnJp-13" value="Project name" style="fillColor=none;strokeColor=none;fontSize=13;align=left;fontColor=#007FFF;" vertex="1" parent="iWzvquf0pUW0mqhQwnJp-12">
          <mxGeometry width="70" height="40" relative="1" as="geometry">
            <mxPoint as="offset" />
          </mxGeometry>
        </mxCell>
        <mxCell id="iWzvquf0pUW0mqhQwnJp-14" value="Type 1" style="fillColor=none;strokeColor=none;fontSize=13;align=left;" vertex="1" parent="iWzvquf0pUW0mqhQwnJp-12">
          <mxGeometry width="70" height="40" relative="1" as="geometry">
            <mxPoint x="240" as="offset" />
          </mxGeometry>
        </mxCell>
        <mxCell id="iWzvquf0pUW0mqhQwnJp-15" value="Project manager" style="fillColor=none;strokeColor=none;fontSize=13;align=left;spacingRight=0;" vertex="1" parent="iWzvquf0pUW0mqhQwnJp-12">
          <mxGeometry width="80" height="40" relative="1" as="geometry">
            <mxPoint x="510" as="offset" />
          </mxGeometry>
        </mxCell>
        <mxCell id="iWzvquf0pUW0mqhQwnJp-16" value="" style="html=1;shadow=0;dashed=0;strokeColor=none;fontSize=16;fontColor=#161819;align=left;spacing=0;opacity=70;fillColor=none;verticalAlign=middle;" vertex="1" parent="r-Q4tmBVrbP1ys0v87ex-1">
          <mxGeometry x="40" y="320" width="790" height="40" as="geometry" />
        </mxCell>
        <mxCell id="iWzvquf0pUW0mqhQwnJp-17" value="Project name" style="fillColor=none;strokeColor=none;fontSize=13;align=left;fontColor=#007FFF;" vertex="1" parent="iWzvquf0pUW0mqhQwnJp-16">
          <mxGeometry width="70" height="40" relative="1" as="geometry">
            <mxPoint as="offset" />
          </mxGeometry>
        </mxCell>
        <mxCell id="iWzvquf0pUW0mqhQwnJp-18" value="Type 2" style="fillColor=none;strokeColor=none;fontSize=13;align=left;" vertex="1" parent="iWzvquf0pUW0mqhQwnJp-16">
          <mxGeometry width="70" height="40" relative="1" as="geometry">
            <mxPoint x="240" as="offset" />
          </mxGeometry>
        </mxCell>
        <mxCell id="iWzvquf0pUW0mqhQwnJp-19" value="Project manager" style="fillColor=none;strokeColor=none;fontSize=13;align=left;spacingRight=0;" vertex="1" parent="iWzvquf0pUW0mqhQwnJp-16">
          <mxGeometry width="80" height="40" relative="1" as="geometry">
            <mxPoint x="510" as="offset" />
          </mxGeometry>
        </mxCell>
        <mxCell id="iWzvquf0pUW0mqhQwnJp-20" value="" style="html=1;shadow=0;dashed=0;strokeColor=none;fontSize=16;fontColor=#161819;align=left;spacing=0;opacity=70;fillColor=none;verticalAlign=middle;" vertex="1" parent="r-Q4tmBVrbP1ys0v87ex-1">
          <mxGeometry x="40" y="360" width="790" height="40" as="geometry" />
        </mxCell>
        <mxCell id="iWzvquf0pUW0mqhQwnJp-21" value="Project name" style="fillColor=none;strokeColor=none;fontSize=13;align=left;fontColor=#007FFF;" vertex="1" parent="iWzvquf0pUW0mqhQwnJp-20">
          <mxGeometry width="70" height="40" relative="1" as="geometry">
            <mxPoint as="offset" />
          </mxGeometry>
        </mxCell>
        <mxCell id="iWzvquf0pUW0mqhQwnJp-22" value="Type 3" style="fillColor=none;strokeColor=none;fontSize=13;align=left;" vertex="1" parent="iWzvquf0pUW0mqhQwnJp-20">
          <mxGeometry width="70" height="40" relative="1" as="geometry">
            <mxPoint x="240" as="offset" />
          </mxGeometry>
        </mxCell>
        <mxCell id="iWzvquf0pUW0mqhQwnJp-23" value="Project manager" style="fillColor=none;strokeColor=none;fontSize=13;align=left;spacingRight=0;" vertex="1" parent="iWzvquf0pUW0mqhQwnJp-20">
          <mxGeometry width="80" height="40" relative="1" as="geometry">
            <mxPoint x="510" as="offset" />
          </mxGeometry>
        </mxCell>
        <mxCell id="iWzvquf0pUW0mqhQwnJp-24" value="" style="html=1;shadow=0;dashed=0;strokeColor=none;fontSize=16;fontColor=#161819;align=left;spacing=0;opacity=70;fillColor=none;verticalAlign=middle;" vertex="1" parent="r-Q4tmBVrbP1ys0v87ex-1">
          <mxGeometry x="40" y="400" width="790" height="40" as="geometry" />
        </mxCell>
        <mxCell id="iWzvquf0pUW0mqhQwnJp-25" value="Project name" style="fillColor=none;strokeColor=none;fontSize=13;align=left;fontColor=#007FFF;" vertex="1" parent="iWzvquf0pUW0mqhQwnJp-24">
          <mxGeometry width="70" height="40" relative="1" as="geometry">
            <mxPoint as="offset" />
          </mxGeometry>
        </mxCell>
        <mxCell id="iWzvquf0pUW0mqhQwnJp-26" value="Type 4" style="fillColor=none;strokeColor=none;fontSize=13;align=left;" vertex="1" parent="iWzvquf0pUW0mqhQwnJp-24">
          <mxGeometry width="70" height="40" relative="1" as="geometry">
            <mxPoint x="240" as="offset" />
          </mxGeometry>
        </mxCell>
        <mxCell id="iWzvquf0pUW0mqhQwnJp-27" value="Project manager" style="fillColor=none;strokeColor=none;fontSize=13;align=left;spacingRight=0;" vertex="1" parent="iWzvquf0pUW0mqhQwnJp-24">
          <mxGeometry width="80" height="40" relative="1" as="geometry">
            <mxPoint x="510" as="offset" />
          </mxGeometry>
        </mxCell>
        <mxCell id="iWzvquf0pUW0mqhQwnJp-28" value="" style="html=1;shadow=0;dashed=0;strokeColor=none;fontSize=16;fontColor=#161819;align=left;spacing=0;opacity=70;fillColor=none;verticalAlign=middle;" vertex="1" parent="r-Q4tmBVrbP1ys0v87ex-1">
          <mxGeometry x="40" y="440" width="790" height="40" as="geometry" />
        </mxCell>
        <mxCell id="iWzvquf0pUW0mqhQwnJp-29" value="Project name" style="fillColor=none;strokeColor=none;fontSize=13;align=left;fontColor=#007FFF;" vertex="1" parent="iWzvquf0pUW0mqhQwnJp-28">
          <mxGeometry width="70" height="40" relative="1" as="geometry">
            <mxPoint as="offset" />
          </mxGeometry>
        </mxCell>
        <mxCell id="iWzvquf0pUW0mqhQwnJp-30" value="Type 5" style="fillColor=none;strokeColor=none;fontSize=13;align=left;" vertex="1" parent="iWzvquf0pUW0mqhQwnJp-28">
          <mxGeometry width="70" height="40" relative="1" as="geometry">
            <mxPoint x="240" as="offset" />
          </mxGeometry>
        </mxCell>
        <mxCell id="iWzvquf0pUW0mqhQwnJp-31" value="Project manager" style="fillColor=none;strokeColor=none;fontSize=13;align=left;spacingRight=0;" vertex="1" parent="iWzvquf0pUW0mqhQwnJp-28">
          <mxGeometry width="80" height="40" relative="1" as="geometry">
            <mxPoint x="510" as="offset" />
          </mxGeometry>
        </mxCell>
        <mxCell id="iWzvquf0pUW0mqhQwnJp-32" value="" style="html=1;shadow=0;dashed=0;strokeColor=none;fontSize=16;fontColor=#161819;align=left;spacing=0;opacity=70;fillColor=none;verticalAlign=middle;" vertex="1" parent="r-Q4tmBVrbP1ys0v87ex-1">
          <mxGeometry x="40" y="480" width="790" height="40" as="geometry" />
        </mxCell>
        <mxCell id="iWzvquf0pUW0mqhQwnJp-33" value="Project name" style="fillColor=none;strokeColor=none;fontSize=13;align=left;fontColor=#007FFF;" vertex="1" parent="iWzvquf0pUW0mqhQwnJp-32">
          <mxGeometry width="70" height="40" relative="1" as="geometry">
            <mxPoint as="offset" />
          </mxGeometry>
        </mxCell>
        <mxCell id="iWzvquf0pUW0mqhQwnJp-34" value="Type 6" style="fillColor=none;strokeColor=none;fontSize=13;align=left;" vertex="1" parent="iWzvquf0pUW0mqhQwnJp-32">
          <mxGeometry width="70" height="40" relative="1" as="geometry">
            <mxPoint x="240" as="offset" />
          </mxGeometry>
        </mxCell>
        <mxCell id="iWzvquf0pUW0mqhQwnJp-35" value="Project manager" style="fillColor=none;strokeColor=none;fontSize=13;align=left;spacingRight=0;" vertex="1" parent="iWzvquf0pUW0mqhQwnJp-32">
          <mxGeometry width="80" height="40" relative="1" as="geometry">
            <mxPoint x="510" as="offset" />
          </mxGeometry>
        </mxCell>
        <mxCell id="iWzvquf0pUW0mqhQwnJp-36" value="" style="endArrow=none;html=1;fontSize=11;fontColor=#999999;strokeWidth=2;strokeColor=#999999;" edge="1" parent="r-Q4tmBVrbP1ys0v87ex-1">
          <mxGeometry width="50" height="50" relative="1" as="geometry">
            <mxPoint x="40" y="570" as="sourcePoint" />
            <mxPoint x="1190" y="570" as="targetPoint" />
          </mxGeometry>
        </mxCell>
        <mxCell id="iWzvquf0pUW0mqhQwnJp-37" value="" style="html=1;shadow=0;dashed=0;strokeColor=none;fontSize=16;fontColor=#161819;align=left;spacing=0;opacity=70;fillColor=none;verticalAlign=middle;" vertex="1" parent="r-Q4tmBVrbP1ys0v87ex-1">
          <mxGeometry x="40" y="520" width="790" height="40" as="geometry" />
        </mxCell>
        <mxCell id="iWzvquf0pUW0mqhQwnJp-38" value="......" style="fillColor=none;strokeColor=none;fontSize=13;align=left;" vertex="1" parent="iWzvquf0pUW0mqhQwnJp-37">
          <mxGeometry width="70" height="40" relative="1" as="geometry">
            <mxPoint as="offset" />
          </mxGeometry>
        </mxCell>
        <mxCell id="iWzvquf0pUW0mqhQwnJp-39" value="Type 6" style="fillColor=none;strokeColor=none;fontSize=13;align=left;" vertex="1" parent="iWzvquf0pUW0mqhQwnJp-37">
          <mxGeometry width="70" height="40" relative="1" as="geometry">
            <mxPoint x="240" as="offset" />
          </mxGeometry>
        </mxCell>
        <mxCell id="iWzvquf0pUW0mqhQwnJp-40" value="Project manager" style="fillColor=none;strokeColor=none;fontSize=13;align=left;spacingRight=0;" vertex="1" parent="iWzvquf0pUW0mqhQwnJp-37">
          <mxGeometry width="80" height="40" relative="1" as="geometry">
            <mxPoint x="510" as="offset" />
          </mxGeometry>
        </mxCell>
        <mxCell id="hZhEa79-iynAYtPMKYHu-0" value="说明：" style="text;html=1;strokeColor=none;fillColor=none;align=left;verticalAlign=middle;whiteSpace=wrap;rounded=0;fontSize=11;fontColor=#999999;opacity=70;" vertex="1" parent="r-Q4tmBVrbP1ys0v87ex-1">
          <mxGeometry x="40" y="610" width="650" height="20" as="geometry" />
        </mxCell>
        <mxCell id="hZhEa79-iynAYtPMKYHu-2" value="点击项目名称，进入该项目详情" style="text;html=1;strokeColor=none;fillColor=none;align=left;verticalAlign=middle;whiteSpace=wrap;rounded=0;fontSize=11;fontColor=#999999;opacity=70;" vertex="1" parent="r-Q4tmBVrbP1ys0v87ex-1">
          <mxGeometry x="80" y="630" width="650" height="20" as="geometry" />
        </mxCell>
        <mxCell id="hZhEa79-iynAYtPMKYHu-3" value="右上方Search栏输入项目名称快速搜索" style="text;html=1;strokeColor=none;fillColor=none;align=left;verticalAlign=middle;whiteSpace=wrap;rounded=0;fontSize=11;fontColor=#999999;opacity=70;" vertex="1" parent="r-Q4tmBVrbP1ys0v87ex-1">
          <mxGeometry x="80" y="650" width="650" height="20" as="geometry" />
        </mxCell>
        <mxCell id="hZhEa79-iynAYtPMKYHu-4" value="右上方Project type快速筛选项目" style="text;html=1;strokeColor=none;fillColor=none;align=left;verticalAlign=middle;whiteSpace=wrap;rounded=0;fontSize=11;fontColor=#999999;opacity=70;" vertex="1" parent="r-Q4tmBVrbP1ys0v87ex-1">
          <mxGeometry x="80" y="670" width="650" height="20" as="geometry" />
        </mxCell>
      </root>
    </mxGraphModel>
  </diagram>
  <diagram name="Project details" id="OAIDFMJ7BD5dnIIIQHOO">
    <mxGraphModel dx="1371" dy="771" grid="1" gridSize="10" guides="1" tooltips="1" connect="1" arrows="1" fold="1" page="1" pageScale="1.5" pageWidth="826" pageHeight="1169" background="#ffffff" math="0" shadow="0">
      <root>
        <mxCell id="cSPJm6dwUuibQJFLnXyh-0" style=";html=1;" />
        <mxCell id="cSPJm6dwUuibQJFLnXyh-1" style=";html=1;" parent="cSPJm6dwUuibQJFLnXyh-0" />
        <mxCell id="cSPJm6dwUuibQJFLnXyh-16" value="Subject" style="html=1;shadow=0;dashed=0;shape=mxgraph.bootstrap.rect;strokeColor=none;fillColor=none;fontColor=#999999;align=left;spacingLeft=5;whiteSpace=wrap;rounded=0;" vertex="1" parent="cSPJm6dwUuibQJFLnXyh-1">
          <mxGeometry x="40" y="940" width="200" height="20" as="geometry" />
        </mxCell>
        <mxCell id="cSPJm6dwUuibQJFLnXyh-17" value="Hello, %USER_FULL_NAME%" style="html=1;shadow=0;dashed=0;shape=mxgraph.bootstrap.rrect;rSize=5;strokeColor=#dddddd;align=left;spacingLeft=10;fontSize=16;whiteSpace=wrap;rounded=0;" vertex="1" parent="cSPJm6dwUuibQJFLnXyh-1">
          <mxGeometry x="40" y="960" width="800" height="40" as="geometry" />
        </mxCell>
        <mxCell id="cSPJm6dwUuibQJFLnXyh-18" value="Insert System Variable" style="html=1;shadow=0;dashed=0;shape=mxgraph.bootstrap.rect;strokeColor=none;fillColor=none;align=right;fontSize=10;whiteSpace=wrap;rounded=0;" vertex="1" parent="cSPJm6dwUuibQJFLnXyh-1">
          <mxGeometry x="690" y="940" width="120" height="20" as="geometry" />
        </mxCell>
        <mxCell id="cSPJm6dwUuibQJFLnXyh-19" value="" style="shape=triangle;strokeColor=none;fillColor=#000000;direction=south;rounded=0;shadow=1;fontSize=12;fontColor=#000000;align=center;html=1;" vertex="1" parent="cSPJm6dwUuibQJFLnXyh-1">
          <mxGeometry x="812" y="947" width="8" height="4" as="geometry" />
        </mxCell>
        <mxCell id="cSPJm6dwUuibQJFLnXyh-20" value="Message" style="html=1;shadow=0;dashed=0;shape=mxgraph.bootstrap.rect;strokeColor=none;fillColor=none;fontColor=#999999;align=left;spacingLeft=5;whiteSpace=wrap;rounded=0;" vertex="1" parent="cSPJm6dwUuibQJFLnXyh-1">
          <mxGeometry x="40" y="1020" width="200" height="20" as="geometry" />
        </mxCell>
        <mxCell id="cSPJm6dwUuibQJFLnXyh-21" value="Hello %USER_FULL_NAME%!&#xa;&#xa;At vero eos et accusamus et iusto odio dignissimos ducimus, qui blanditiis praesentium voluptatum deleniti atque corrupti, quosdolores et quas molestias excepturi sint, obcaecati cupiditate non provident, similique sunt in culpa, qui officia deserunt mollitiaanimi, id est laborum et dolorum fuga. Et harum quidem rerum facilis est et expedita distinctio. Nam libero tempore, cum solutanobis est eligendi optio, cumque nihil impedit, quo minus id, quod maxime placeat, facere possimus, omnis voluptas assumendaest, omnis dolor repellendus." style="html=1;shadow=0;dashed=0;shape=mxgraph.bootstrap.rrect;rSize=5;fontSize=12;strokeColor=#dddddd;align=left;spacing=10;verticalAlign=top;whiteSpace=wrap;rounded=0;" vertex="1" parent="cSPJm6dwUuibQJFLnXyh-1">
          <mxGeometry x="40" y="1040" width="800" height="240" as="geometry" />
        </mxCell>
        <mxCell id="cSPJm6dwUuibQJFLnXyh-22" value="Insert System Variable" style="html=1;shadow=0;dashed=0;shape=mxgraph.bootstrap.rect;strokeColor=none;fillColor=none;align=right;fontSize=10;whiteSpace=wrap;rounded=0;" vertex="1" parent="cSPJm6dwUuibQJFLnXyh-1">
          <mxGeometry x="690" y="1020" width="120" height="20" as="geometry" />
        </mxCell>
        <mxCell id="cSPJm6dwUuibQJFLnXyh-23" value="" style="shape=triangle;strokeColor=none;fillColor=#000000;direction=south;rounded=0;shadow=1;fontSize=12;fontColor=#000000;align=center;html=1;" vertex="1" parent="cSPJm6dwUuibQJFLnXyh-1">
          <mxGeometry x="812" y="1027" width="8" height="4" as="geometry" />
        </mxCell>
        <mxCell id="cSPJm6dwUuibQJFLnXyh-24" value="%USER_FULL_NAME%&#xa;%USER_EMAIL%&#xa;%USER_PROFILE_COMPLETENESS%&#xa;%USER_NUM_SUCCESS_TRADES%&#xa;%USER_FULL_NAME%&#xa;%USER_EMAIL%&#xa;%USER_PROFILE_COMPLETENESS%&#xa;%USER_NUM_SUCCESS_SELLS%" style="html=1;shadow=0;dashed=0;shape=mxgraph.bootstrap.rrect;fontSize=12;rSize=2;strokeColor=#dddddd;align=left;verticalAlign=top;spacing=10;shadow=1;whiteSpace=wrap;rounded=0;" vertex="1" parent="cSPJm6dwUuibQJFLnXyh-1">
          <mxGeometry x="590" y="1035" width="240" height="140" as="geometry" />
        </mxCell>
        <mxCell id="cSPJm6dwUuibQJFLnXyh-25" value="Message Type" style="html=1;shadow=0;dashed=0;shape=mxgraph.bootstrap.rect;strokeColor=none;fillColor=none;fontColor=#999999;align=left;spacingLeft=5;whiteSpace=wrap;rounded=0;" vertex="1" parent="cSPJm6dwUuibQJFLnXyh-1">
          <mxGeometry x="40" y="1300" width="200" height="20" as="geometry" />
        </mxCell>
        <mxCell id="cSPJm6dwUuibQJFLnXyh-26" value="Email + Push" style="html=1;shadow=0;dashed=0;shape=mxgraph.bootstrap.rrect;rSize=5;strokeColor=#dddddd;align=left;spacingLeft=10;fontSize=16;whiteSpace=wrap;rounded=0;" vertex="1" parent="cSPJm6dwUuibQJFLnXyh-1">
          <mxGeometry x="40" y="1320" width="390" height="40" as="geometry" />
        </mxCell>
        <mxCell id="cSPJm6dwUuibQJFLnXyh-27" value="" style="shape=triangle;strokeColor=none;fillColor=#000000;direction=south;rounded=0;shadow=1;fontSize=12;fontColor=#000000;align=center;html=1;" vertex="1" parent="cSPJm6dwUuibQJFLnXyh-1">
          <mxGeometry x="410" y="1337" width="10" height="5" as="geometry" />
        </mxCell>
        <mxCell id="cSPJm6dwUuibQJFLnXyh-28" value="Tap target" style="html=1;shadow=0;dashed=0;shape=mxgraph.bootstrap.rect;strokeColor=none;fillColor=none;fontColor=#999999;align=left;spacingLeft=5;whiteSpace=wrap;rounded=0;" vertex="1" parent="cSPJm6dwUuibQJFLnXyh-1">
          <mxGeometry x="450" y="1300" width="200" height="20" as="geometry" />
        </mxCell>
        <mxCell id="cSPJm6dwUuibQJFLnXyh-29" value="Profile Screen" style="html=1;shadow=0;dashed=0;shape=mxgraph.bootstrap.rrect;rSize=5;strokeColor=#dddddd;align=left;spacingLeft=10;fontSize=16;whiteSpace=wrap;rounded=0;" vertex="1" parent="cSPJm6dwUuibQJFLnXyh-1">
          <mxGeometry x="450" y="1320" width="390" height="40" as="geometry" />
        </mxCell>
        <mxCell id="cSPJm6dwUuibQJFLnXyh-30" value="" style="shape=triangle;strokeColor=none;fillColor=#000000;direction=south;rounded=0;shadow=1;fontSize=12;fontColor=#000000;align=center;html=1;" vertex="1" parent="cSPJm6dwUuibQJFLnXyh-1">
          <mxGeometry x="820" y="1337" width="10" height="5" as="geometry" />
        </mxCell>
        <mxCell id="cSPJm6dwUuibQJFLnXyh-31" value="Send to Group" style="html=1;shadow=0;dashed=0;shape=mxgraph.bootstrap.rect;strokeColor=none;fillColor=none;fontColor=#999999;align=left;spacingLeft=5;whiteSpace=wrap;rounded=0;" vertex="1" parent="cSPJm6dwUuibQJFLnXyh-1">
          <mxGeometry x="40" y="1380" width="200" height="20" as="geometry" />
        </mxCell>
        <mxCell id="cSPJm6dwUuibQJFLnXyh-32" value="Top Management" style="html=1;shadow=0;dashed=0;shape=mxgraph.bootstrap.checkbox;fontSize=12;strokeColor=#999999;align=left;labelPosition=right;spacingLeft=5;rounded=0;" vertex="1" parent="cSPJm6dwUuibQJFLnXyh-1">
          <mxGeometry x="50" y="1403" width="14" height="14" as="geometry" />
        </mxCell>
        <mxCell id="cSPJm6dwUuibQJFLnXyh-33" value="Marketing Department" style="html=1;shadow=0;dashed=0;shape=mxgraph.bootstrap.rrect;fontSize=12;rSize=3;strokeColor=#999999;align=left;labelPosition=right;spacingLeft=5;rounded=0;" vertex="1" parent="cSPJm6dwUuibQJFLnXyh-1">
          <mxGeometry x="50" y="1423" width="14" height="14" as="geometry" />
        </mxCell>
        <mxCell id="cSPJm6dwUuibQJFLnXyh-34" value="Design Department" style="html=1;shadow=0;dashed=0;shape=mxgraph.bootstrap.checkbox;fontSize=12;strokeColor=#999999;align=left;labelPosition=right;spacingLeft=5;rounded=0;" vertex="1" parent="cSPJm6dwUuibQJFLnXyh-1">
          <mxGeometry x="50" y="1443" width="14" height="14" as="geometry" />
        </mxCell>
        <mxCell id="cSPJm6dwUuibQJFLnXyh-35" value="Financial Department" style="html=1;shadow=0;dashed=0;shape=mxgraph.bootstrap.rrect;fontSize=12;rSize=3;strokeColor=#999999;align=left;labelPosition=right;spacingLeft=5;rounded=0;" vertex="1" parent="cSPJm6dwUuibQJFLnXyh-1">
          <mxGeometry x="50" y="1463" width="14" height="14" as="geometry" />
        </mxCell>
        <mxCell id="cSPJm6dwUuibQJFLnXyh-36" value="Supply Department" style="html=1;shadow=0;dashed=0;shape=mxgraph.bootstrap.rrect;fontSize=12;rSize=3;strokeColor=#999999;align=left;labelPosition=right;spacingLeft=5;rounded=0;" vertex="1" parent="cSPJm6dwUuibQJFLnXyh-1">
          <mxGeometry x="50" y="1483" width="14" height="14" as="geometry" />
        </mxCell>
        <mxCell id="cSPJm6dwUuibQJFLnXyh-37" value="Set Type" style="html=1;shadow=0;dashed=0;shape=mxgraph.bootstrap.rect;strokeColor=none;fillColor=none;fontColor=#999999;align=left;spacingLeft=5;whiteSpace=wrap;rounded=0;" vertex="1" parent="cSPJm6dwUuibQJFLnXyh-1">
          <mxGeometry x="450" y="1380" width="200" height="20" as="geometry" />
        </mxCell>
        <mxCell id="cSPJm6dwUuibQJFLnXyh-38" value="" style="shape=ellipse;dashed=0;strokeColor=#999999;fillColor=#ffffff;html=1;rounded=0;shadow=1;fontSize=12;fontColor=#000000;align=center;" vertex="1" parent="cSPJm6dwUuibQJFLnXyh-1">
          <mxGeometry x="460" y="1403" width="14" height="14" as="geometry" />
        </mxCell>
        <mxCell id="cSPJm6dwUuibQJFLnXyh-39" value="News" style="html=1;shadow=0;dashed=0;shape=mxgraph.bootstrap.rrect;align=center;rSize=3;strokeColor=none;fillColor=#58B957;fontColor=#ffffff;fontStyle=1;fontSize=10;whiteSpace=wrap;rounded=0;" vertex="1" parent="cSPJm6dwUuibQJFLnXyh-1">
          <mxGeometry x="480" y="1403" width="40" height="14" as="geometry" />
        </mxCell>
        <mxCell id="cSPJm6dwUuibQJFLnXyh-40" value="" style="html=1;shadow=0;dashed=0;shape=mxgraph.bootstrap.radioButton;strokeColor=#999999;fillColor=#ffffff;rounded=0;fontSize=12;fontColor=#000000;align=center;" vertex="1" parent="cSPJm6dwUuibQJFLnXyh-1">
          <mxGeometry x="460" y="1423" width="14" height="14" as="geometry" />
        </mxCell>
        <mxCell id="cSPJm6dwUuibQJFLnXyh-41" value="Reports" style="html=1;shadow=0;dashed=0;shape=mxgraph.bootstrap.rrect;align=center;rSize=3;strokeColor=none;fillColor=#55BFE0;fontColor=#ffffff;fontStyle=1;fontSize=10;whiteSpace=wrap;rounded=0;" vertex="1" parent="cSPJm6dwUuibQJFLnXyh-1">
          <mxGeometry x="480" y="1423" width="50" height="14" as="geometry" />
        </mxCell>
        <mxCell id="cSPJm6dwUuibQJFLnXyh-42" value="" style="shape=ellipse;dashed=0;strokeColor=#999999;fillColor=#ffffff;html=1;rounded=0;shadow=1;fontSize=12;fontColor=#000000;align=center;" vertex="1" parent="cSPJm6dwUuibQJFLnXyh-1">
          <mxGeometry x="460" y="1443" width="14" height="14" as="geometry" />
        </mxCell>
        <mxCell id="cSPJm6dwUuibQJFLnXyh-43" value="Documents" style="html=1;shadow=0;dashed=0;shape=mxgraph.bootstrap.rrect;align=center;rSize=3;strokeColor=none;fillColor=#EFAC43;fontColor=#ffffff;fontStyle=1;fontSize=10;whiteSpace=wrap;rounded=0;" vertex="1" parent="cSPJm6dwUuibQJFLnXyh-1">
          <mxGeometry x="480" y="1443" width="70" height="14" as="geometry" />
        </mxCell>
        <mxCell id="cSPJm6dwUuibQJFLnXyh-44" value="" style="shape=ellipse;dashed=0;strokeColor=#999999;fillColor=#ffffff;html=1;rounded=0;shadow=1;fontSize=12;fontColor=#000000;align=center;" vertex="1" parent="cSPJm6dwUuibQJFLnXyh-1">
          <mxGeometry x="460" y="1463" width="14" height="14" as="geometry" />
        </mxCell>
        <mxCell id="cSPJm6dwUuibQJFLnXyh-45" value="Media" style="html=1;shadow=0;dashed=0;shape=mxgraph.bootstrap.rrect;align=center;rSize=3;strokeColor=none;fillColor=#3D8BCD;fontColor=#ffffff;fontStyle=1;fontSize=10;whiteSpace=wrap;rounded=0;" vertex="1" parent="cSPJm6dwUuibQJFLnXyh-1">
          <mxGeometry x="480" y="1463" width="40" height="14" as="geometry" />
        </mxCell>
        <mxCell id="cSPJm6dwUuibQJFLnXyh-46" value="" style="shape=ellipse;dashed=0;strokeColor=#999999;fillColor=#ffffff;html=1;rounded=0;shadow=1;fontSize=12;fontColor=#000000;align=center;" vertex="1" parent="cSPJm6dwUuibQJFLnXyh-1">
          <mxGeometry x="460" y="1483" width="14" height="14" as="geometry" />
        </mxCell>
        <mxCell id="cSPJm6dwUuibQJFLnXyh-47" value="Text" style="html=1;shadow=0;dashed=0;shape=mxgraph.bootstrap.rrect;align=center;rSize=3;strokeColor=none;fillColor=#999999;fontColor=#ffffff;fontStyle=1;fontSize=10;whiteSpace=wrap;rounded=0;" vertex="1" parent="cSPJm6dwUuibQJFLnXyh-1">
          <mxGeometry x="480" y="1483" width="30" height="14" as="geometry" />
        </mxCell>
        <mxCell id="cSPJm6dwUuibQJFLnXyh-48" value="Save Template" style="html=1;shadow=0;dashed=0;shape=mxgraph.bootstrap.rrect;align=center;rSize=5;strokeColor=none;fillColor=#3D8BCD;fontColor=#ffffff;fontSize=16;whiteSpace=wrap;rounded=0;" vertex="1" parent="cSPJm6dwUuibQJFLnXyh-1">
          <mxGeometry x="40" y="1540" width="150" height="40" as="geometry" />
        </mxCell>
        <mxCell id="cSPJm6dwUuibQJFLnXyh-49" value="Cancel" style="html=1;shadow=0;dashed=0;shape=mxgraph.bootstrap.rrect;align=center;rSize=5;strokeColor=#dddddd;fontSize=16;whiteSpace=wrap;rounded=0;" vertex="1" parent="cSPJm6dwUuibQJFLnXyh-1">
          <mxGeometry x="210" y="1540" width="100" height="40" as="geometry" />
        </mxCell>
        <mxCell id="cSPJm6dwUuibQJFLnXyh-50" value="Delete Template" style="html=1;shadow=0;dashed=0;shape=mxgraph.bootstrap.rrect;align=center;rSize=5;strokeColor=none;fillColor=#DB524C;fontColor=#ffffff;fontSize=16;whiteSpace=wrap;rounded=0;" vertex="1" parent="cSPJm6dwUuibQJFLnXyh-1">
          <mxGeometry x="670" y="1540" width="170" height="40" as="geometry" />
        </mxCell>
        <mxCell id="cSPJm6dwUuibQJFLnXyh-51" value="" style="html=1;shadow=0;dashed=0;shape=mxgraph.bootstrap.rrect;rSize=5;strokeColor=#dddddd;rounded=0;fontSize=12;align=center;" vertex="1" parent="cSPJm6dwUuibQJFLnXyh-1">
          <mxGeometry x="860" y="950" width="330" height="400" as="geometry" />
        </mxCell>
        <mxCell id="cSPJm6dwUuibQJFLnXyh-52" value="320x200" style="shape=rect;fontSize=24;fillColor=#f0f0f0;strokeColor=none;fontColor=#999999;whiteSpace=wrap;" vertex="1" parent="cSPJm6dwUuibQJFLnXyh-51">
          <mxGeometry x="5" y="5" width="320" height="200" as="geometry" />
        </mxCell>
        <mxCell id="cSPJm6dwUuibQJFLnXyh-53" value="Thumbnail label" style="html=1;shadow=0;dashed=0;shape=mxgraph.bootstrap.anchor;fontSize=26;align=left;whiteSpace=wrap;" vertex="1" parent="cSPJm6dwUuibQJFLnXyh-51">
          <mxGeometry x="15" y="220" width="300" height="40" as="geometry" />
        </mxCell>
        <mxCell id="cSPJm6dwUuibQJFLnXyh-54" value="Cras justo odio, dapibus ac facilisis in, egestas eget quam. Donec id elit non mi porta gravida at eget metus. Nullam id dolor id nibh ultricies vehicula ut id elit." style="html=1;shadow=0;dashed=0;shape=mxgraph.bootstrap.anchor;strokeColor=#dddddd;whiteSpace=wrap;align=left;verticalAlign=top;fontSize=14;whiteSpace=wrap;" vertex="1" parent="cSPJm6dwUuibQJFLnXyh-51">
          <mxGeometry x="15" y="260" width="300" height="80" as="geometry" />
        </mxCell>
        <mxCell id="cSPJm6dwUuibQJFLnXyh-55" value="Button" style="html=1;shadow=0;dashed=0;shape=mxgraph.bootstrap.rrect;rSize=5;fontSize=16;fillColor=#3D8BCD;strokeColor=none;fontColor=#ffffff;whiteSpace=wrap;" vertex="1" parent="cSPJm6dwUuibQJFLnXyh-51">
          <mxGeometry y="1" width="80" height="40" relative="1" as="geometry">
            <mxPoint x="15" y="-60" as="offset" />
          </mxGeometry>
        </mxCell>
        <mxCell id="cSPJm6dwUuibQJFLnXyh-56" value="Button" style="html=1;shadow=0;dashed=0;shape=mxgraph.bootstrap.rrect;rSize=5;fontSize=16;strokeColor=#dddddd;whiteSpace=wrap;" vertex="1" parent="cSPJm6dwUuibQJFLnXyh-51">
          <mxGeometry y="1" width="80" height="40" relative="1" as="geometry">
            <mxPoint x="100" y="-60" as="offset" />
          </mxGeometry>
        </mxCell>
        <mxCell id="S8Gs1d1BmLN2kr9vv26V-0" value="" style="html=1;shadow=0;dashed=0;shape=mxgraph.bootstrap.rect;fillColor=#222222;strokeColor=none;whiteSpace=wrap;rounded=0;fontSize=12;fontColor=#000000;align=center;" vertex="1" parent="cSPJm6dwUuibQJFLnXyh-1">
          <mxGeometry x="40" y="70" width="1150" height="40" as="geometry" />
        </mxCell>
        <mxCell id="S8Gs1d1BmLN2kr9vv26V-1" value="Company name" style="html=1;shadow=0;dashed=0;shape=mxgraph.bootstrap.rect;fontSize=14;whiteSpace=wrap;fontColor=#FFFFFF;strokeColor=none;fillColor=none;" vertex="1" parent="S8Gs1d1BmLN2kr9vv26V-0">
          <mxGeometry width="115" height="40" as="geometry" />
        </mxCell>
        <mxCell id="S8Gs1d1BmLN2kr9vv26V-2" value="Work" style="html=1;shadow=0;dashed=0;shape=mxgraph.bootstrap.rect;strokeColor=none;spacingRight=30;whiteSpace=wrap;align=center;fillColor=none;fontColor=#999999;" vertex="1" parent="S8Gs1d1BmLN2kr9vv26V-0">
          <mxGeometry x="115" width="135" height="40" as="geometry" />
        </mxCell>
        <mxCell id="S8Gs1d1BmLN2kr9vv26V-3" value="Project" style="html=1;shadow=0;dashed=0;strokeColor=none;shape=mxgraph.bootstrap.rect;fontColor=#999999;spacingRight=30;whiteSpace=wrap;fillColor=none;" vertex="1" parent="S8Gs1d1BmLN2kr9vv26V-0">
          <mxGeometry x="250" width="152.5" height="40" as="geometry" />
        </mxCell>
        <mxCell id="S8Gs1d1BmLN2kr9vv26V-4" value="" style="html=1;shadow=0;dashed=0;shape=mxgraph.bootstrap.rrect;rSize=8;strokeColor=none;fontColor=#ffffff;whiteSpace=wrap;fillColor=none;" vertex="1" parent="S8Gs1d1BmLN2kr9vv26V-3">
          <mxGeometry x="1" y="0.5" width="25" height="16" relative="1" as="geometry">
            <mxPoint x="362.5" y="30" as="offset" />
          </mxGeometry>
        </mxCell>
        <mxCell id="S8Gs1d1BmLN2kr9vv26V-5" value="" style="html=1;verticalLabelPosition=bottom;labelBackgroundColor=#ffffff;verticalAlign=top;shadow=0;dashed=0;strokeWidth=2;shape=mxgraph.ios7.misc.down;fillColor=none;fontSize=11;fontColor=#999999;align=center;opacity=70;fillOpacity=80;strokeOpacity=80;strokeColor=#999999;" vertex="1" parent="S8Gs1d1BmLN2kr9vv26V-3">
          <mxGeometry x="90" y="17.5" width="9" height="5" as="geometry" />
        </mxCell>
        <mxCell id="S8Gs1d1BmLN2kr9vv26V-6" value="TBD" style="html=1;shadow=0;dashed=0;fillColor=none;strokeColor=none;shape=mxgraph.bootstrap.rect;fontColor=#999999;whiteSpace=wrap;" vertex="1" parent="S8Gs1d1BmLN2kr9vv26V-0">
          <mxGeometry x="402.5" width="115" height="40" as="geometry" />
        </mxCell>
        <mxCell id="S8Gs1d1BmLN2kr9vv26V-7" value="TBD" style="html=1;shadow=0;dashed=0;fillColor=none;strokeColor=none;shape=mxgraph.bootstrap.rect;fontColor=#999999;whiteSpace=wrap;" vertex="1" parent="S8Gs1d1BmLN2kr9vv26V-0">
          <mxGeometry x="517.5" width="172.5" height="40" as="geometry" />
        </mxCell>
        <mxCell id="S8Gs1d1BmLN2kr9vv26V-8" value="Profile" style="html=1;shadow=0;dashed=0;fillColor=none;strokeColor=none;shape=mxgraph.bootstrap.rect;fontColor=#999999;whiteSpace=wrap;" vertex="1" parent="S8Gs1d1BmLN2kr9vv26V-0">
          <mxGeometry x="948.75" width="100.625" height="40" as="geometry" />
        </mxCell>
        <mxCell id="S8Gs1d1BmLN2kr9vv26V-9" value="Log Out" style="html=1;shadow=0;dashed=0;fillColor=none;strokeColor=none;shape=mxgraph.bootstrap.rect;fontColor=#999999;whiteSpace=wrap;" vertex="1" parent="S8Gs1d1BmLN2kr9vv26V-0">
          <mxGeometry x="1049.375" width="100.625" height="40" as="geometry" />
        </mxCell>
        <mxCell id="Ar_AFcoQHoaZxsPp21SH-0" value="" style="rounded=0;whiteSpace=wrap;html=1;strokeWidth=2;fontSize=13;opacity=70;align=left;strokeColor=none;fillColor=#999999;" vertex="1" parent="cSPJm6dwUuibQJFLnXyh-1">
          <mxGeometry x="40" y="110" width="160" height="410" as="geometry" />
        </mxCell>
        <mxCell id="Ar_AFcoQHoaZxsPp21SH-1" value="" style="endArrow=none;html=1;strokeWidth=2;fontSize=13;fontColor=#007FFF;exitX=1;exitY=1;exitDx=0;exitDy=0;strokeColor=#999999;" edge="1" parent="cSPJm6dwUuibQJFLnXyh-1" source="Ar_AFcoQHoaZxsPp21SH-0">
          <mxGeometry width="50" height="50" relative="1" as="geometry">
            <mxPoint x="200" y="230" as="sourcePoint" />
            <mxPoint x="200" y="110" as="targetPoint" />
          </mxGeometry>
        </mxCell>
        <mxCell id="POED-E3xg72OgmmkHivF-0" value="&lt;font color=&quot;#0085fc&quot;&gt;Project&lt;/font&gt; / Project 1" style="html=1;shadow=0;dashed=0;shape=mxgraph.bootstrap.rrect;rSize=5;strokeColor=none;strokeWidth=1;fontColor=#6C757D;whiteSpace=wrap;align=left;verticalAlign=middle;spacingLeft=0;fontStyle=0;fontSize=14;spacing=10;opacity=70;fillColor=none;" vertex="1" parent="cSPJm6dwUuibQJFLnXyh-1">
          <mxGeometry x="210" y="110" width="800" height="40" as="geometry" />
        </mxCell>
        <mxCell id="POED-E3xg72OgmmkHivF-1" value="Project 1" style="html=1;shadow=0;dashed=0;shape=mxgraph.bootstrap.rrect;rSize=5;strokeColor=none;strokeWidth=1;fontColor=#000000;whiteSpace=wrap;align=left;verticalAlign=middle;spacingLeft=0;fontStyle=0;fontSize=16;spacing=5;opacity=70;fillColor=none;" vertex="1" parent="cSPJm6dwUuibQJFLnXyh-1">
          <mxGeometry x="50" y="120" width="90" height="20" as="geometry" />
        </mxCell>
        <mxCell id="20wU4IgO43beucCgdgaK-1" value="Project Type" style="html=1;shadow=0;dashed=0;shape=mxgraph.bootstrap.rrect;rSize=5;strokeColor=none;strokeWidth=1;fillColor=#6C767D;fontColor=#FFFFFF;whiteSpace=wrap;align=left;verticalAlign=middle;spacingLeft=0;fontStyle=1;fontSize=12;spacing=5;opacity=70;" vertex="1" parent="cSPJm6dwUuibQJFLnXyh-1">
          <mxGeometry x="50" y="140" width="80" height="20" as="geometry" />
        </mxCell>
        <mxCell id="R5n5tsHuL94xwwfWEqjj-0" value="Quality Manual" style="html=1;shadow=0;dashed=0;shape=mxgraph.bootstrap.rrect;rSize=5;strokeColor=#6C767D;strokeWidth=1;fillColor=none;fontColor=#6C767D;whiteSpace=wrap;align=center;verticalAlign=middle;spacingLeft=0;fontStyle=0;fontSize=16;spacing=5;sketch=0;opacity=70;" vertex="1" parent="cSPJm6dwUuibQJFLnXyh-1">
          <mxGeometry x="50" y="440" width="140" height="40" as="geometry" />
        </mxCell>
        <mxCell id="rbSPWJnrYCo90WjbjWFx-0" value="Pre-Market" style="html=1;shadow=0;dashed=0;shape=mxgraph.bootstrap.rrect;rSize=0;strokeColor=none;strokeWidth=1;fillColor=#33A64C;fontColor=#FFFFFF;whiteSpace=wrap;align=center;verticalAlign=middle;spacingLeft=0;fontStyle=1;fontSize=14;spacing=5;sketch=0;" vertex="1" parent="cSPJm6dwUuibQJFLnXyh-1">
          <mxGeometry x="40" y="210" width="160" height="40" as="geometry" />
        </mxCell>
        <mxCell id="rbSPWJnrYCo90WjbjWFx-1" value="Post-Market" style="html=1;shadow=0;dashed=0;shape=mxgraph.bootstrap.rrect;rSize=0;strokeColor=none;strokeWidth=1;fillColor=#FFBC26;fontColor=#000000;whiteSpace=wrap;align=center;verticalAlign=middle;spacingLeft=0;fontStyle=1;fontSize=14;spacing=5;sketch=0;" vertex="1" parent="cSPJm6dwUuibQJFLnXyh-1">
          <mxGeometry x="40" y="250" width="160" height="40" as="geometry" />
        </mxCell>
      </root>
    </mxGraphModel>
  </diagram>
  <diagram name="Copy of Project details" id="G7qTNdimZTY7X2j_8l_Z">
    <mxGraphModel dx="1371" dy="771" grid="1" gridSize="10" guides="1" tooltips="1" connect="1" arrows="1" fold="1" page="1" pageScale="1.5" pageWidth="826" pageHeight="1169" background="#ffffff" math="0" shadow="0">
      <root>
        <mxCell id="2PD4Yao0_ZQDn-BszLJ0-0" style=";html=1;" />
        <mxCell id="2PD4Yao0_ZQDn-BszLJ0-1" style=";html=1;" parent="2PD4Yao0_ZQDn-BszLJ0-0" />
        <mxCell id="2PD4Yao0_ZQDn-BszLJ0-2" value="Subject" style="html=1;shadow=0;dashed=0;shape=mxgraph.bootstrap.rect;strokeColor=none;fillColor=none;fontColor=#999999;align=left;spacingLeft=5;whiteSpace=wrap;rounded=0;" vertex="1" parent="2PD4Yao0_ZQDn-BszLJ0-1">
          <mxGeometry x="40" y="940" width="200" height="20" as="geometry" />
        </mxCell>
        <mxCell id="2PD4Yao0_ZQDn-BszLJ0-3" value="Hello, %USER_FULL_NAME%" style="html=1;shadow=0;dashed=0;shape=mxgraph.bootstrap.rrect;rSize=5;strokeColor=#dddddd;align=left;spacingLeft=10;fontSize=16;whiteSpace=wrap;rounded=0;" vertex="1" parent="2PD4Yao0_ZQDn-BszLJ0-1">
          <mxGeometry x="40" y="960" width="800" height="40" as="geometry" />
        </mxCell>
        <mxCell id="2PD4Yao0_ZQDn-BszLJ0-4" value="Insert System Variable" style="html=1;shadow=0;dashed=0;shape=mxgraph.bootstrap.rect;strokeColor=none;fillColor=none;align=right;fontSize=10;whiteSpace=wrap;rounded=0;" vertex="1" parent="2PD4Yao0_ZQDn-BszLJ0-1">
          <mxGeometry x="690" y="940" width="120" height="20" as="geometry" />
        </mxCell>
        <mxCell id="2PD4Yao0_ZQDn-BszLJ0-5" value="" style="shape=triangle;strokeColor=none;fillColor=#000000;direction=south;rounded=0;shadow=1;fontSize=12;fontColor=#000000;align=center;html=1;" vertex="1" parent="2PD4Yao0_ZQDn-BszLJ0-1">
          <mxGeometry x="812" y="947" width="8" height="4" as="geometry" />
        </mxCell>
        <mxCell id="2PD4Yao0_ZQDn-BszLJ0-6" value="Message" style="html=1;shadow=0;dashed=0;shape=mxgraph.bootstrap.rect;strokeColor=none;fillColor=none;fontColor=#999999;align=left;spacingLeft=5;whiteSpace=wrap;rounded=0;" vertex="1" parent="2PD4Yao0_ZQDn-BszLJ0-1">
          <mxGeometry x="40" y="1020" width="200" height="20" as="geometry" />
        </mxCell>
        <mxCell id="2PD4Yao0_ZQDn-BszLJ0-7" value="Hello %USER_FULL_NAME%!&#xa;&#xa;At vero eos et accusamus et iusto odio dignissimos ducimus, qui blanditiis praesentium voluptatum deleniti atque corrupti, quosdolores et quas molestias excepturi sint, obcaecati cupiditate non provident, similique sunt in culpa, qui officia deserunt mollitiaanimi, id est laborum et dolorum fuga. Et harum quidem rerum facilis est et expedita distinctio. Nam libero tempore, cum solutanobis est eligendi optio, cumque nihil impedit, quo minus id, quod maxime placeat, facere possimus, omnis voluptas assumendaest, omnis dolor repellendus." style="html=1;shadow=0;dashed=0;shape=mxgraph.bootstrap.rrect;rSize=5;fontSize=12;strokeColor=#dddddd;align=left;spacing=10;verticalAlign=top;whiteSpace=wrap;rounded=0;" vertex="1" parent="2PD4Yao0_ZQDn-BszLJ0-1">
          <mxGeometry x="40" y="1040" width="800" height="240" as="geometry" />
        </mxCell>
        <mxCell id="2PD4Yao0_ZQDn-BszLJ0-8" value="Insert System Variable" style="html=1;shadow=0;dashed=0;shape=mxgraph.bootstrap.rect;strokeColor=none;fillColor=none;align=right;fontSize=10;whiteSpace=wrap;rounded=0;" vertex="1" parent="2PD4Yao0_ZQDn-BszLJ0-1">
          <mxGeometry x="690" y="1020" width="120" height="20" as="geometry" />
        </mxCell>
        <mxCell id="2PD4Yao0_ZQDn-BszLJ0-9" value="" style="shape=triangle;strokeColor=none;fillColor=#000000;direction=south;rounded=0;shadow=1;fontSize=12;fontColor=#000000;align=center;html=1;" vertex="1" parent="2PD4Yao0_ZQDn-BszLJ0-1">
          <mxGeometry x="812" y="1027" width="8" height="4" as="geometry" />
        </mxCell>
        <mxCell id="2PD4Yao0_ZQDn-BszLJ0-10" value="%USER_FULL_NAME%&#xa;%USER_EMAIL%&#xa;%USER_PROFILE_COMPLETENESS%&#xa;%USER_NUM_SUCCESS_TRADES%&#xa;%USER_FULL_NAME%&#xa;%USER_EMAIL%&#xa;%USER_PROFILE_COMPLETENESS%&#xa;%USER_NUM_SUCCESS_SELLS%" style="html=1;shadow=0;dashed=0;shape=mxgraph.bootstrap.rrect;fontSize=12;rSize=2;strokeColor=#dddddd;align=left;verticalAlign=top;spacing=10;shadow=1;whiteSpace=wrap;rounded=0;" vertex="1" parent="2PD4Yao0_ZQDn-BszLJ0-1">
          <mxGeometry x="590" y="1035" width="240" height="140" as="geometry" />
        </mxCell>
        <mxCell id="2PD4Yao0_ZQDn-BszLJ0-11" value="Message Type" style="html=1;shadow=0;dashed=0;shape=mxgraph.bootstrap.rect;strokeColor=none;fillColor=none;fontColor=#999999;align=left;spacingLeft=5;whiteSpace=wrap;rounded=0;" vertex="1" parent="2PD4Yao0_ZQDn-BszLJ0-1">
          <mxGeometry x="40" y="1300" width="200" height="20" as="geometry" />
        </mxCell>
        <mxCell id="2PD4Yao0_ZQDn-BszLJ0-12" value="Email + Push" style="html=1;shadow=0;dashed=0;shape=mxgraph.bootstrap.rrect;rSize=5;strokeColor=#dddddd;align=left;spacingLeft=10;fontSize=16;whiteSpace=wrap;rounded=0;" vertex="1" parent="2PD4Yao0_ZQDn-BszLJ0-1">
          <mxGeometry x="40" y="1320" width="390" height="40" as="geometry" />
        </mxCell>
        <mxCell id="2PD4Yao0_ZQDn-BszLJ0-13" value="" style="shape=triangle;strokeColor=none;fillColor=#000000;direction=south;rounded=0;shadow=1;fontSize=12;fontColor=#000000;align=center;html=1;" vertex="1" parent="2PD4Yao0_ZQDn-BszLJ0-1">
          <mxGeometry x="410" y="1337" width="10" height="5" as="geometry" />
        </mxCell>
        <mxCell id="2PD4Yao0_ZQDn-BszLJ0-14" value="Tap target" style="html=1;shadow=0;dashed=0;shape=mxgraph.bootstrap.rect;strokeColor=none;fillColor=none;fontColor=#999999;align=left;spacingLeft=5;whiteSpace=wrap;rounded=0;" vertex="1" parent="2PD4Yao0_ZQDn-BszLJ0-1">
          <mxGeometry x="450" y="1300" width="200" height="20" as="geometry" />
        </mxCell>
        <mxCell id="2PD4Yao0_ZQDn-BszLJ0-15" value="Profile Screen" style="html=1;shadow=0;dashed=0;shape=mxgraph.bootstrap.rrect;rSize=5;strokeColor=#dddddd;align=left;spacingLeft=10;fontSize=16;whiteSpace=wrap;rounded=0;" vertex="1" parent="2PD4Yao0_ZQDn-BszLJ0-1">
          <mxGeometry x="450" y="1320" width="390" height="40" as="geometry" />
        </mxCell>
        <mxCell id="2PD4Yao0_ZQDn-BszLJ0-16" value="" style="shape=triangle;strokeColor=none;fillColor=#000000;direction=south;rounded=0;shadow=1;fontSize=12;fontColor=#000000;align=center;html=1;" vertex="1" parent="2PD4Yao0_ZQDn-BszLJ0-1">
          <mxGeometry x="820" y="1337" width="10" height="5" as="geometry" />
        </mxCell>
        <mxCell id="2PD4Yao0_ZQDn-BszLJ0-17" value="Send to Group" style="html=1;shadow=0;dashed=0;shape=mxgraph.bootstrap.rect;strokeColor=none;fillColor=none;fontColor=#999999;align=left;spacingLeft=5;whiteSpace=wrap;rounded=0;" vertex="1" parent="2PD4Yao0_ZQDn-BszLJ0-1">
          <mxGeometry x="40" y="1380" width="200" height="20" as="geometry" />
        </mxCell>
        <mxCell id="2PD4Yao0_ZQDn-BszLJ0-18" value="Top Management" style="html=1;shadow=0;dashed=0;shape=mxgraph.bootstrap.checkbox;fontSize=12;strokeColor=#999999;align=left;labelPosition=right;spacingLeft=5;rounded=0;" vertex="1" parent="2PD4Yao0_ZQDn-BszLJ0-1">
          <mxGeometry x="50" y="1403" width="14" height="14" as="geometry" />
        </mxCell>
        <mxCell id="2PD4Yao0_ZQDn-BszLJ0-19" value="Marketing Department" style="html=1;shadow=0;dashed=0;shape=mxgraph.bootstrap.rrect;fontSize=12;rSize=3;strokeColor=#999999;align=left;labelPosition=right;spacingLeft=5;rounded=0;" vertex="1" parent="2PD4Yao0_ZQDn-BszLJ0-1">
          <mxGeometry x="50" y="1423" width="14" height="14" as="geometry" />
        </mxCell>
        <mxCell id="2PD4Yao0_ZQDn-BszLJ0-20" value="Design Department" style="html=1;shadow=0;dashed=0;shape=mxgraph.bootstrap.checkbox;fontSize=12;strokeColor=#999999;align=left;labelPosition=right;spacingLeft=5;rounded=0;" vertex="1" parent="2PD4Yao0_ZQDn-BszLJ0-1">
          <mxGeometry x="50" y="1443" width="14" height="14" as="geometry" />
        </mxCell>
        <mxCell id="2PD4Yao0_ZQDn-BszLJ0-21" value="Financial Department" style="html=1;shadow=0;dashed=0;shape=mxgraph.bootstrap.rrect;fontSize=12;rSize=3;strokeColor=#999999;align=left;labelPosition=right;spacingLeft=5;rounded=0;" vertex="1" parent="2PD4Yao0_ZQDn-BszLJ0-1">
          <mxGeometry x="50" y="1463" width="14" height="14" as="geometry" />
        </mxCell>
        <mxCell id="2PD4Yao0_ZQDn-BszLJ0-22" value="Supply Department" style="html=1;shadow=0;dashed=0;shape=mxgraph.bootstrap.rrect;fontSize=12;rSize=3;strokeColor=#999999;align=left;labelPosition=right;spacingLeft=5;rounded=0;" vertex="1" parent="2PD4Yao0_ZQDn-BszLJ0-1">
          <mxGeometry x="50" y="1483" width="14" height="14" as="geometry" />
        </mxCell>
        <mxCell id="2PD4Yao0_ZQDn-BszLJ0-23" value="Set Type" style="html=1;shadow=0;dashed=0;shape=mxgraph.bootstrap.rect;strokeColor=none;fillColor=none;fontColor=#999999;align=left;spacingLeft=5;whiteSpace=wrap;rounded=0;" vertex="1" parent="2PD4Yao0_ZQDn-BszLJ0-1">
          <mxGeometry x="450" y="1380" width="200" height="20" as="geometry" />
        </mxCell>
        <mxCell id="2PD4Yao0_ZQDn-BszLJ0-24" value="" style="shape=ellipse;dashed=0;strokeColor=#999999;fillColor=#ffffff;html=1;rounded=0;shadow=1;fontSize=12;fontColor=#000000;align=center;" vertex="1" parent="2PD4Yao0_ZQDn-BszLJ0-1">
          <mxGeometry x="460" y="1403" width="14" height="14" as="geometry" />
        </mxCell>
        <mxCell id="2PD4Yao0_ZQDn-BszLJ0-25" value="News" style="html=1;shadow=0;dashed=0;shape=mxgraph.bootstrap.rrect;align=center;rSize=3;strokeColor=none;fillColor=#58B957;fontColor=#ffffff;fontStyle=1;fontSize=10;whiteSpace=wrap;rounded=0;" vertex="1" parent="2PD4Yao0_ZQDn-BszLJ0-1">
          <mxGeometry x="480" y="1403" width="40" height="14" as="geometry" />
        </mxCell>
        <mxCell id="2PD4Yao0_ZQDn-BszLJ0-26" value="" style="html=1;shadow=0;dashed=0;shape=mxgraph.bootstrap.radioButton;strokeColor=#999999;fillColor=#ffffff;rounded=0;fontSize=12;fontColor=#000000;align=center;" vertex="1" parent="2PD4Yao0_ZQDn-BszLJ0-1">
          <mxGeometry x="460" y="1423" width="14" height="14" as="geometry" />
        </mxCell>
        <mxCell id="2PD4Yao0_ZQDn-BszLJ0-27" value="Reports" style="html=1;shadow=0;dashed=0;shape=mxgraph.bootstrap.rrect;align=center;rSize=3;strokeColor=none;fillColor=#55BFE0;fontColor=#ffffff;fontStyle=1;fontSize=10;whiteSpace=wrap;rounded=0;" vertex="1" parent="2PD4Yao0_ZQDn-BszLJ0-1">
          <mxGeometry x="480" y="1423" width="50" height="14" as="geometry" />
        </mxCell>
        <mxCell id="2PD4Yao0_ZQDn-BszLJ0-28" value="" style="shape=ellipse;dashed=0;strokeColor=#999999;fillColor=#ffffff;html=1;rounded=0;shadow=1;fontSize=12;fontColor=#000000;align=center;" vertex="1" parent="2PD4Yao0_ZQDn-BszLJ0-1">
          <mxGeometry x="460" y="1443" width="14" height="14" as="geometry" />
        </mxCell>
        <mxCell id="2PD4Yao0_ZQDn-BszLJ0-29" value="Documents" style="html=1;shadow=0;dashed=0;shape=mxgraph.bootstrap.rrect;align=center;rSize=3;strokeColor=none;fillColor=#EFAC43;fontColor=#ffffff;fontStyle=1;fontSize=10;whiteSpace=wrap;rounded=0;" vertex="1" parent="2PD4Yao0_ZQDn-BszLJ0-1">
          <mxGeometry x="480" y="1443" width="70" height="14" as="geometry" />
        </mxCell>
        <mxCell id="2PD4Yao0_ZQDn-BszLJ0-30" value="" style="shape=ellipse;dashed=0;strokeColor=#999999;fillColor=#ffffff;html=1;rounded=0;shadow=1;fontSize=12;fontColor=#000000;align=center;" vertex="1" parent="2PD4Yao0_ZQDn-BszLJ0-1">
          <mxGeometry x="460" y="1463" width="14" height="14" as="geometry" />
        </mxCell>
        <mxCell id="2PD4Yao0_ZQDn-BszLJ0-31" value="Media" style="html=1;shadow=0;dashed=0;shape=mxgraph.bootstrap.rrect;align=center;rSize=3;strokeColor=none;fillColor=#3D8BCD;fontColor=#ffffff;fontStyle=1;fontSize=10;whiteSpace=wrap;rounded=0;" vertex="1" parent="2PD4Yao0_ZQDn-BszLJ0-1">
          <mxGeometry x="480" y="1463" width="40" height="14" as="geometry" />
        </mxCell>
        <mxCell id="2PD4Yao0_ZQDn-BszLJ0-32" value="" style="shape=ellipse;dashed=0;strokeColor=#999999;fillColor=#ffffff;html=1;rounded=0;shadow=1;fontSize=12;fontColor=#000000;align=center;" vertex="1" parent="2PD4Yao0_ZQDn-BszLJ0-1">
          <mxGeometry x="460" y="1483" width="14" height="14" as="geometry" />
        </mxCell>
        <mxCell id="2PD4Yao0_ZQDn-BszLJ0-33" value="Text" style="html=1;shadow=0;dashed=0;shape=mxgraph.bootstrap.rrect;align=center;rSize=3;strokeColor=none;fillColor=#999999;fontColor=#ffffff;fontStyle=1;fontSize=10;whiteSpace=wrap;rounded=0;" vertex="1" parent="2PD4Yao0_ZQDn-BszLJ0-1">
          <mxGeometry x="480" y="1483" width="30" height="14" as="geometry" />
        </mxCell>
        <mxCell id="2PD4Yao0_ZQDn-BszLJ0-34" value="Save Template" style="html=1;shadow=0;dashed=0;shape=mxgraph.bootstrap.rrect;align=center;rSize=5;strokeColor=none;fillColor=#3D8BCD;fontColor=#ffffff;fontSize=16;whiteSpace=wrap;rounded=0;" vertex="1" parent="2PD4Yao0_ZQDn-BszLJ0-1">
          <mxGeometry x="40" y="1540" width="150" height="40" as="geometry" />
        </mxCell>
        <mxCell id="2PD4Yao0_ZQDn-BszLJ0-35" value="Cancel" style="html=1;shadow=0;dashed=0;shape=mxgraph.bootstrap.rrect;align=center;rSize=5;strokeColor=#dddddd;fontSize=16;whiteSpace=wrap;rounded=0;" vertex="1" parent="2PD4Yao0_ZQDn-BszLJ0-1">
          <mxGeometry x="210" y="1540" width="100" height="40" as="geometry" />
        </mxCell>
        <mxCell id="2PD4Yao0_ZQDn-BszLJ0-36" value="Delete Template" style="html=1;shadow=0;dashed=0;shape=mxgraph.bootstrap.rrect;align=center;rSize=5;strokeColor=none;fillColor=#DB524C;fontColor=#ffffff;fontSize=16;whiteSpace=wrap;rounded=0;" vertex="1" parent="2PD4Yao0_ZQDn-BszLJ0-1">
          <mxGeometry x="670" y="1540" width="170" height="40" as="geometry" />
        </mxCell>
        <mxCell id="2PD4Yao0_ZQDn-BszLJ0-37" value="" style="html=1;shadow=0;dashed=0;shape=mxgraph.bootstrap.rrect;rSize=5;strokeColor=#dddddd;rounded=0;fontSize=12;align=center;" vertex="1" parent="2PD4Yao0_ZQDn-BszLJ0-1">
          <mxGeometry x="860" y="950" width="330" height="400" as="geometry" />
        </mxCell>
        <mxCell id="2PD4Yao0_ZQDn-BszLJ0-38" value="320x200" style="shape=rect;fontSize=24;fillColor=#f0f0f0;strokeColor=none;fontColor=#999999;whiteSpace=wrap;" vertex="1" parent="2PD4Yao0_ZQDn-BszLJ0-37">
          <mxGeometry x="5" y="5" width="320" height="200" as="geometry" />
        </mxCell>
        <mxCell id="2PD4Yao0_ZQDn-BszLJ0-39" value="Thumbnail label" style="html=1;shadow=0;dashed=0;shape=mxgraph.bootstrap.anchor;fontSize=26;align=left;whiteSpace=wrap;" vertex="1" parent="2PD4Yao0_ZQDn-BszLJ0-37">
          <mxGeometry x="15" y="220" width="300" height="40" as="geometry" />
        </mxCell>
        <mxCell id="2PD4Yao0_ZQDn-BszLJ0-40" value="Cras justo odio, dapibus ac facilisis in, egestas eget quam. Donec id elit non mi porta gravida at eget metus. Nullam id dolor id nibh ultricies vehicula ut id elit." style="html=1;shadow=0;dashed=0;shape=mxgraph.bootstrap.anchor;strokeColor=#dddddd;whiteSpace=wrap;align=left;verticalAlign=top;fontSize=14;whiteSpace=wrap;" vertex="1" parent="2PD4Yao0_ZQDn-BszLJ0-37">
          <mxGeometry x="15" y="260" width="300" height="80" as="geometry" />
        </mxCell>
        <mxCell id="2PD4Yao0_ZQDn-BszLJ0-41" value="Button" style="html=1;shadow=0;dashed=0;shape=mxgraph.bootstrap.rrect;rSize=5;fontSize=16;fillColor=#3D8BCD;strokeColor=none;fontColor=#ffffff;whiteSpace=wrap;" vertex="1" parent="2PD4Yao0_ZQDn-BszLJ0-37">
          <mxGeometry y="1" width="80" height="40" relative="1" as="geometry">
            <mxPoint x="15" y="-60" as="offset" />
          </mxGeometry>
        </mxCell>
        <mxCell id="2PD4Yao0_ZQDn-BszLJ0-42" value="Button" style="html=1;shadow=0;dashed=0;shape=mxgraph.bootstrap.rrect;rSize=5;fontSize=16;strokeColor=#dddddd;whiteSpace=wrap;" vertex="1" parent="2PD4Yao0_ZQDn-BszLJ0-37">
          <mxGeometry y="1" width="80" height="40" relative="1" as="geometry">
            <mxPoint x="100" y="-60" as="offset" />
          </mxGeometry>
        </mxCell>
        <mxCell id="2PD4Yao0_ZQDn-BszLJ0-43" value="" style="html=1;shadow=0;dashed=0;shape=mxgraph.bootstrap.rect;fillColor=#222222;strokeColor=none;whiteSpace=wrap;rounded=0;fontSize=12;fontColor=#000000;align=center;" vertex="1" parent="2PD4Yao0_ZQDn-BszLJ0-1">
          <mxGeometry x="40" y="70" width="1150" height="40" as="geometry" />
        </mxCell>
        <mxCell id="2PD4Yao0_ZQDn-BszLJ0-44" value="Company name" style="html=1;shadow=0;dashed=0;shape=mxgraph.bootstrap.rect;fontSize=14;whiteSpace=wrap;fontColor=#FFFFFF;strokeColor=none;fillColor=none;" vertex="1" parent="2PD4Yao0_ZQDn-BszLJ0-43">
          <mxGeometry width="115" height="40" as="geometry" />
        </mxCell>
        <mxCell id="2PD4Yao0_ZQDn-BszLJ0-45" value="Work" style="html=1;shadow=0;dashed=0;shape=mxgraph.bootstrap.rect;strokeColor=none;spacingRight=30;whiteSpace=wrap;align=center;fillColor=none;fontColor=#999999;" vertex="1" parent="2PD4Yao0_ZQDn-BszLJ0-43">
          <mxGeometry x="115" width="135" height="40" as="geometry" />
        </mxCell>
        <mxCell id="2PD4Yao0_ZQDn-BszLJ0-46" value="Project" style="html=1;shadow=0;dashed=0;strokeColor=none;shape=mxgraph.bootstrap.rect;fontColor=#999999;spacingRight=30;whiteSpace=wrap;fillColor=none;" vertex="1" parent="2PD4Yao0_ZQDn-BszLJ0-43">
          <mxGeometry x="250" width="152.5" height="40" as="geometry" />
        </mxCell>
        <mxCell id="2PD4Yao0_ZQDn-BszLJ0-47" value="" style="html=1;shadow=0;dashed=0;shape=mxgraph.bootstrap.rrect;rSize=8;strokeColor=none;fontColor=#ffffff;whiteSpace=wrap;fillColor=none;" vertex="1" parent="2PD4Yao0_ZQDn-BszLJ0-46">
          <mxGeometry x="1" y="0.5" width="25" height="16" relative="1" as="geometry">
            <mxPoint x="362.5" y="30" as="offset" />
          </mxGeometry>
        </mxCell>
        <mxCell id="2PD4Yao0_ZQDn-BszLJ0-48" value="" style="html=1;verticalLabelPosition=bottom;labelBackgroundColor=#ffffff;verticalAlign=top;shadow=0;dashed=0;strokeWidth=2;shape=mxgraph.ios7.misc.down;fillColor=none;fontSize=11;fontColor=#999999;align=center;opacity=70;fillOpacity=80;strokeOpacity=80;strokeColor=#999999;" vertex="1" parent="2PD4Yao0_ZQDn-BszLJ0-46">
          <mxGeometry x="90" y="17.5" width="9" height="5" as="geometry" />
        </mxCell>
        <mxCell id="2PD4Yao0_ZQDn-BszLJ0-49" value="TBD" style="html=1;shadow=0;dashed=0;fillColor=none;strokeColor=none;shape=mxgraph.bootstrap.rect;fontColor=#999999;whiteSpace=wrap;" vertex="1" parent="2PD4Yao0_ZQDn-BszLJ0-43">
          <mxGeometry x="402.5" width="115" height="40" as="geometry" />
        </mxCell>
        <mxCell id="2PD4Yao0_ZQDn-BszLJ0-50" value="TBD" style="html=1;shadow=0;dashed=0;fillColor=none;strokeColor=none;shape=mxgraph.bootstrap.rect;fontColor=#999999;whiteSpace=wrap;" vertex="1" parent="2PD4Yao0_ZQDn-BszLJ0-43">
          <mxGeometry x="517.5" width="172.5" height="40" as="geometry" />
        </mxCell>
        <mxCell id="2PD4Yao0_ZQDn-BszLJ0-51" value="Profile" style="html=1;shadow=0;dashed=0;fillColor=none;strokeColor=none;shape=mxgraph.bootstrap.rect;fontColor=#999999;whiteSpace=wrap;" vertex="1" parent="2PD4Yao0_ZQDn-BszLJ0-43">
          <mxGeometry x="948.75" width="100.625" height="40" as="geometry" />
        </mxCell>
        <mxCell id="2PD4Yao0_ZQDn-BszLJ0-52" value="Log Out" style="html=1;shadow=0;dashed=0;fillColor=none;strokeColor=none;shape=mxgraph.bootstrap.rect;fontColor=#999999;whiteSpace=wrap;" vertex="1" parent="2PD4Yao0_ZQDn-BszLJ0-43">
          <mxGeometry x="1049.375" width="100.625" height="40" as="geometry" />
        </mxCell>
        <mxCell id="2PD4Yao0_ZQDn-BszLJ0-53" value="" style="rounded=0;whiteSpace=wrap;html=1;strokeWidth=2;fontSize=13;opacity=70;align=left;strokeColor=none;fillColor=#999999;" vertex="1" parent="2PD4Yao0_ZQDn-BszLJ0-1">
          <mxGeometry x="40" y="110" width="160" height="410" as="geometry" />
        </mxCell>
        <mxCell id="2PD4Yao0_ZQDn-BszLJ0-54" value="" style="endArrow=none;html=1;strokeWidth=2;fontSize=13;fontColor=#007FFF;exitX=1;exitY=1;exitDx=0;exitDy=0;strokeColor=#999999;" edge="1" parent="2PD4Yao0_ZQDn-BszLJ0-1" source="2PD4Yao0_ZQDn-BszLJ0-53">
          <mxGeometry width="50" height="50" relative="1" as="geometry">
            <mxPoint x="200" y="230" as="sourcePoint" />
            <mxPoint x="200" y="110" as="targetPoint" />
          </mxGeometry>
        </mxCell>
        <mxCell id="2PD4Yao0_ZQDn-BszLJ0-55" value="&lt;font color=&quot;#0085fc&quot;&gt;Project&lt;/font&gt; / Project 1" style="html=1;shadow=0;dashed=0;shape=mxgraph.bootstrap.rrect;rSize=5;strokeColor=none;strokeWidth=1;fontColor=#6C757D;whiteSpace=wrap;align=left;verticalAlign=middle;spacingLeft=0;fontStyle=0;fontSize=14;spacing=10;opacity=70;fillColor=none;" vertex="1" parent="2PD4Yao0_ZQDn-BszLJ0-1">
          <mxGeometry x="210" y="110" width="800" height="40" as="geometry" />
        </mxCell>
        <mxCell id="2PD4Yao0_ZQDn-BszLJ0-56" value="Project 1" style="html=1;shadow=0;dashed=0;shape=mxgraph.bootstrap.rrect;rSize=5;strokeColor=none;strokeWidth=1;fontColor=#000000;whiteSpace=wrap;align=left;verticalAlign=middle;spacingLeft=0;fontStyle=0;fontSize=16;spacing=5;opacity=70;fillColor=none;" vertex="1" parent="2PD4Yao0_ZQDn-BszLJ0-1">
          <mxGeometry x="50" y="120" width="90" height="20" as="geometry" />
        </mxCell>
        <mxCell id="2PD4Yao0_ZQDn-BszLJ0-57" value="Procedure" style="html=1;shadow=0;dashed=0;shape=mxgraph.bootstrap.rrect;rSize=0;strokeWidth=1;whiteSpace=wrap;align=left;verticalAlign=middle;spacingLeft=0;fontStyle=0;fontSize=16;spacing=5;opacity=70;fillColor=#f9f7ed;strokeColor=none;" vertex="1" parent="2PD4Yao0_ZQDn-BszLJ0-1">
          <mxGeometry x="40" y="190" width="160" height="40" as="geometry" />
        </mxCell>
        <mxCell id="2PD4Yao0_ZQDn-BszLJ0-58" value="Project Type" style="html=1;shadow=0;dashed=0;shape=mxgraph.bootstrap.rrect;rSize=5;strokeColor=none;strokeWidth=1;fillColor=#6C767D;fontColor=#FFFFFF;whiteSpace=wrap;align=left;verticalAlign=middle;spacingLeft=0;fontStyle=1;fontSize=12;spacing=5;opacity=70;" vertex="1" parent="2PD4Yao0_ZQDn-BszLJ0-1">
          <mxGeometry x="50" y="140" width="80" height="20" as="geometry" />
        </mxCell>
        <mxCell id="2PD4Yao0_ZQDn-BszLJ0-59" value="Documents" style="html=1;shadow=0;dashed=0;shape=mxgraph.bootstrap.rrect;rSize=5;strokeColor=none;strokeWidth=1;fontColor=#000000;whiteSpace=wrap;align=left;verticalAlign=middle;spacingLeft=0;fontStyle=0;fontSize=16;spacing=5;opacity=70;fillColor=none;" vertex="1" parent="2PD4Yao0_ZQDn-BszLJ0-1">
          <mxGeometry x="40" y="230" width="160" height="40" as="geometry" />
        </mxCell>
        <mxCell id="2PD4Yao0_ZQDn-BszLJ0-60" value="Technical Files" style="html=1;shadow=0;dashed=0;shape=mxgraph.bootstrap.rrect;rSize=5;strokeColor=none;strokeWidth=1;fontColor=#000000;whiteSpace=wrap;align=left;verticalAlign=middle;spacingLeft=0;fontStyle=0;fontSize=16;spacing=5;opacity=70;fillColor=none;" vertex="1" parent="2PD4Yao0_ZQDn-BszLJ0-1">
          <mxGeometry x="40" y="265" width="160" height="40" as="geometry" />
        </mxCell>
        <mxCell id="2PD4Yao0_ZQDn-BszLJ0-61" value="Quality Manual" style="html=1;shadow=0;dashed=0;shape=mxgraph.bootstrap.rrect;rSize=5;strokeColor=#6C767D;strokeWidth=1;fillColor=none;fontColor=#6C767D;whiteSpace=wrap;align=center;verticalAlign=middle;spacingLeft=0;fontStyle=0;fontSize=16;spacing=5;sketch=0;opacity=70;" vertex="1" parent="2PD4Yao0_ZQDn-BszLJ0-1">
          <mxGeometry x="50" y="440" width="140" height="40" as="geometry" />
        </mxCell>
        <mxCell id="2PD4Yao0_ZQDn-BszLJ0-62" value="" style="html=1;shadow=0;dashed=0;shape=mxgraph.bootstrap.rrect;rSize=0;strokeColor=#DFDFDF;html=1;whiteSpace=wrap;fontColor=#000000;sketch=0;opacity=70;align=left;" vertex="1" parent="2PD4Yao0_ZQDn-BszLJ0-1">
          <mxGeometry x="210" y="200" width="220" height="150" as="geometry" />
        </mxCell>
        <mxCell id="2PD4Yao0_ZQDn-BszLJ0-63" value="Dapibus ac facilisis in" style="strokeColor=inherit;fillColor=inherit;gradientColor=inherit;fontColor=inherit;html=1;shadow=0;dashed=0;perimeter=none;whiteSpace=wrap;resizeWidth=1;align=left;spacing=10;" vertex="1" parent="2PD4Yao0_ZQDn-BszLJ0-62">
          <mxGeometry width="200" height="30" relative="1" as="geometry">
            <mxPoint y="30" as="offset" />
          </mxGeometry>
        </mxCell>
        <mxCell id="2PD4Yao0_ZQDn-BszLJ0-64" value="Morbi leo risus" style="strokeColor=inherit;fillColor=inherit;gradientColor=inherit;fontColor=inherit;html=1;shadow=0;dashed=0;perimeter=none;whiteSpace=wrap;resizeWidth=1;align=left;spacing=10;" vertex="1" parent="2PD4Yao0_ZQDn-BszLJ0-62">
          <mxGeometry width="200" height="30" relative="1" as="geometry">
            <mxPoint y="60" as="offset" />
          </mxGeometry>
        </mxCell>
        <mxCell id="2PD4Yao0_ZQDn-BszLJ0-65" value="Porta ac consectetur ac" style="strokeColor=inherit;fillColor=inherit;gradientColor=inherit;fontColor=inherit;html=1;shadow=0;dashed=0;perimeter=none;whiteSpace=wrap;resizeWidth=1;align=left;spacing=10;" vertex="1" parent="2PD4Yao0_ZQDn-BszLJ0-62">
          <mxGeometry width="200" height="30" relative="1" as="geometry">
            <mxPoint y="90" as="offset" />
          </mxGeometry>
        </mxCell>
        <mxCell id="2PD4Yao0_ZQDn-BszLJ0-66" value="Vestibulum at eros" style="strokeColor=inherit;fillColor=inherit;gradientColor=inherit;fontColor=inherit;html=1;shadow=0;dashed=0;shape=mxgraph.bootstrap.bottomButton;rSize=0;perimeter=none;whiteSpace=wrap;resizeWidth=1;resizeHeight=0;align=left;spacing=10;" vertex="1" parent="2PD4Yao0_ZQDn-BszLJ0-62">
          <mxGeometry y="1" width="200" height="30" relative="1" as="geometry">
            <mxPoint y="-30" as="offset" />
          </mxGeometry>
        </mxCell>
        <mxCell id="2PD4Yao0_ZQDn-BszLJ0-67" value="" style="shape=step;perimeter=stepPerimeter;whiteSpace=wrap;html=1;fixedSize=1;shadow=0;sketch=0;strokeWidth=2;fontSize=12;fontColor=#ffffff;align=left;strokeColor=none;fillColor=#0085FC;" vertex="1" parent="2PD4Yao0_ZQDn-BszLJ0-62">
          <mxGeometry width="220" height="30" as="geometry" />
        </mxCell>
        <mxCell id="2PD4Yao0_ZQDn-BszLJ0-68" value="" style="html=1;shadow=0;dashed=0;shape=mxgraph.bootstrap.rrect;rSize=0;strokeColor=#DFDFDF;html=1;whiteSpace=wrap;fillColor=#FFFFFF;fontColor=#000000;sketch=0;opacity=70;align=left;" vertex="1" parent="2PD4Yao0_ZQDn-BszLJ0-1">
          <mxGeometry x="210" y="350" width="200" height="150" as="geometry" />
        </mxCell>
        <mxCell id="2PD4Yao0_ZQDn-BszLJ0-69" value="Dapibus ac facilisis in" style="strokeColor=inherit;fillColor=inherit;gradientColor=inherit;fontColor=inherit;html=1;shadow=0;dashed=0;perimeter=none;whiteSpace=wrap;resizeWidth=1;align=left;spacing=10;" vertex="1" parent="2PD4Yao0_ZQDn-BszLJ0-68">
          <mxGeometry width="200" height="30" relative="1" as="geometry">
            <mxPoint y="30" as="offset" />
          </mxGeometry>
        </mxCell>
        <mxCell id="2PD4Yao0_ZQDn-BszLJ0-70" value="Morbi leo risus" style="strokeColor=inherit;fillColor=inherit;gradientColor=inherit;fontColor=inherit;html=1;shadow=0;dashed=0;perimeter=none;whiteSpace=wrap;resizeWidth=1;align=left;spacing=10;" vertex="1" parent="2PD4Yao0_ZQDn-BszLJ0-68">
          <mxGeometry width="200" height="30" relative="1" as="geometry">
            <mxPoint y="60" as="offset" />
          </mxGeometry>
        </mxCell>
        <mxCell id="2PD4Yao0_ZQDn-BszLJ0-71" value="Porta ac consectetur ac" style="strokeColor=inherit;fillColor=inherit;gradientColor=inherit;fontColor=inherit;html=1;shadow=0;dashed=0;perimeter=none;whiteSpace=wrap;resizeWidth=1;align=left;spacing=10;" vertex="1" parent="2PD4Yao0_ZQDn-BszLJ0-68">
          <mxGeometry width="200" height="30" relative="1" as="geometry">
            <mxPoint y="90" as="offset" />
          </mxGeometry>
        </mxCell>
        <mxCell id="2PD4Yao0_ZQDn-BszLJ0-72" value="Vestibulum at eros" style="strokeColor=inherit;fillColor=inherit;gradientColor=inherit;fontColor=inherit;html=1;shadow=0;dashed=0;shape=mxgraph.bootstrap.bottomButton;rSize=0;perimeter=none;whiteSpace=wrap;resizeWidth=1;resizeHeight=0;align=left;spacing=10;" vertex="1" parent="2PD4Yao0_ZQDn-BszLJ0-68">
          <mxGeometry y="1" width="200" height="30" relative="1" as="geometry">
            <mxPoint y="-30" as="offset" />
          </mxGeometry>
        </mxCell>
      </root>
    </mxGraphModel>
  </diagram>
  <diagram name="Copy of Project details" id="YzHPZOUnV3TnwJApal-p">
    <mxGraphModel dx="1371" dy="771" grid="1" gridSize="10" guides="1" tooltips="1" connect="1" arrows="1" fold="1" page="1" pageScale="1.5" pageWidth="826" pageHeight="1169" background="#ffffff" math="0" shadow="0">
      <root>
        <mxCell id="11gX6aCvTFwOIIHqzgFL-0" style=";html=1;" />
        <mxCell id="11gX6aCvTFwOIIHqzgFL-1" style=";html=1;" parent="11gX6aCvTFwOIIHqzgFL-0" />
        <mxCell id="11gX6aCvTFwOIIHqzgFL-2" value="" style="html=1;shadow=0;dashed=0;shape=mxgraph.bootstrap.rrect;rSize=5;strokeColor=#dddddd;rounded=0;fontSize=12;align=center;" vertex="1" parent="11gX6aCvTFwOIIHqzgFL-1">
          <mxGeometry x="40" y="160" width="270" height="310" as="geometry" />
        </mxCell>
        <mxCell id="11gX6aCvTFwOIIHqzgFL-3" value="project image" style="shape=rect;fontSize=24;fillColor=#f0f0f0;strokeColor=none;fontColor=#999999;whiteSpace=wrap;" vertex="1" parent="11gX6aCvTFwOIIHqzgFL-2">
          <mxGeometry x="4.090909090909091" y="3.88" width="261.8181818181818" height="156.13" as="geometry" />
        </mxCell>
        <mxCell id="11gX6aCvTFwOIIHqzgFL-4" value="Project name" style="html=1;shadow=0;dashed=0;shape=mxgraph.bootstrap.anchor;fontSize=26;align=left;whiteSpace=wrap;" vertex="1" parent="11gX6aCvTFwOIIHqzgFL-2">
          <mxGeometry x="4.090909090909091" y="190" width="245.45454545454547" height="31" as="geometry" />
        </mxCell>
        <mxCell id="11gX6aCvTFwOIIHqzgFL-5" value="short notice" style="html=1;shadow=0;dashed=0;shape=mxgraph.bootstrap.anchor;strokeColor=#dddddd;whiteSpace=wrap;align=left;verticalAlign=top;fontSize=14;whiteSpace=wrap;" vertex="1" parent="11gX6aCvTFwOIIHqzgFL-2">
          <mxGeometry x="4.090909090909091" y="230" width="245.45454545454547" height="62" as="geometry" />
        </mxCell>
        <mxCell id="11gX6aCvTFwOIIHqzgFL-6" value="All projects" style="html=1;shadow=0;dashed=0;shape=mxgraph.bootstrap.rect;strokeColor=none;fillColor=none;fontColor=#999999;align=left;spacingLeft=5;whiteSpace=wrap;rounded=0;" vertex="1" parent="11gX6aCvTFwOIIHqzgFL-1">
          <mxGeometry x="40" y="130" width="200" height="20" as="geometry" />
        </mxCell>
        <mxCell id="11gX6aCvTFwOIIHqzgFL-7" value="Subject" style="html=1;shadow=0;dashed=0;shape=mxgraph.bootstrap.rect;strokeColor=none;fillColor=none;fontColor=#999999;align=left;spacingLeft=5;whiteSpace=wrap;rounded=0;" vertex="1" parent="11gX6aCvTFwOIIHqzgFL-1">
          <mxGeometry x="40" y="570" width="200" height="20" as="geometry" />
        </mxCell>
        <mxCell id="11gX6aCvTFwOIIHqzgFL-8" value="Hello, %USER_FULL_NAME%" style="html=1;shadow=0;dashed=0;shape=mxgraph.bootstrap.rrect;rSize=5;strokeColor=#dddddd;align=left;spacingLeft=10;fontSize=16;whiteSpace=wrap;rounded=0;" vertex="1" parent="11gX6aCvTFwOIIHqzgFL-1">
          <mxGeometry x="40" y="590" width="800" height="40" as="geometry" />
        </mxCell>
        <mxCell id="11gX6aCvTFwOIIHqzgFL-9" value="Insert System Variable" style="html=1;shadow=0;dashed=0;shape=mxgraph.bootstrap.rect;strokeColor=none;fillColor=none;align=right;fontSize=10;whiteSpace=wrap;rounded=0;" vertex="1" parent="11gX6aCvTFwOIIHqzgFL-1">
          <mxGeometry x="690" y="570" width="120" height="20" as="geometry" />
        </mxCell>
        <mxCell id="11gX6aCvTFwOIIHqzgFL-10" value="" style="shape=triangle;strokeColor=none;fillColor=#000000;direction=south;rounded=0;shadow=1;fontSize=12;fontColor=#000000;align=center;html=1;" vertex="1" parent="11gX6aCvTFwOIIHqzgFL-1">
          <mxGeometry x="812" y="577" width="8" height="4" as="geometry" />
        </mxCell>
        <mxCell id="11gX6aCvTFwOIIHqzgFL-11" value="Message" style="html=1;shadow=0;dashed=0;shape=mxgraph.bootstrap.rect;strokeColor=none;fillColor=none;fontColor=#999999;align=left;spacingLeft=5;whiteSpace=wrap;rounded=0;" vertex="1" parent="11gX6aCvTFwOIIHqzgFL-1">
          <mxGeometry x="40" y="650" width="200" height="20" as="geometry" />
        </mxCell>
        <mxCell id="11gX6aCvTFwOIIHqzgFL-12" value="Hello %USER_FULL_NAME%!&#xa;&#xa;At vero eos et accusamus et iusto odio dignissimos ducimus, qui blanditiis praesentium voluptatum deleniti atque corrupti, quosdolores et quas molestias excepturi sint, obcaecati cupiditate non provident, similique sunt in culpa, qui officia deserunt mollitiaanimi, id est laborum et dolorum fuga. Et harum quidem rerum facilis est et expedita distinctio. Nam libero tempore, cum solutanobis est eligendi optio, cumque nihil impedit, quo minus id, quod maxime placeat, facere possimus, omnis voluptas assumendaest, omnis dolor repellendus." style="html=1;shadow=0;dashed=0;shape=mxgraph.bootstrap.rrect;rSize=5;fontSize=12;strokeColor=#dddddd;align=left;spacing=10;verticalAlign=top;whiteSpace=wrap;rounded=0;" vertex="1" parent="11gX6aCvTFwOIIHqzgFL-1">
          <mxGeometry x="40" y="670" width="800" height="240" as="geometry" />
        </mxCell>
        <mxCell id="11gX6aCvTFwOIIHqzgFL-13" value="Insert System Variable" style="html=1;shadow=0;dashed=0;shape=mxgraph.bootstrap.rect;strokeColor=none;fillColor=none;align=right;fontSize=10;whiteSpace=wrap;rounded=0;" vertex="1" parent="11gX6aCvTFwOIIHqzgFL-1">
          <mxGeometry x="690" y="650" width="120" height="20" as="geometry" />
        </mxCell>
        <mxCell id="11gX6aCvTFwOIIHqzgFL-14" value="" style="shape=triangle;strokeColor=none;fillColor=#000000;direction=south;rounded=0;shadow=1;fontSize=12;fontColor=#000000;align=center;html=1;" vertex="1" parent="11gX6aCvTFwOIIHqzgFL-1">
          <mxGeometry x="812" y="657" width="8" height="4" as="geometry" />
        </mxCell>
        <mxCell id="11gX6aCvTFwOIIHqzgFL-15" value="%USER_FULL_NAME%&#xa;%USER_EMAIL%&#xa;%USER_PROFILE_COMPLETENESS%&#xa;%USER_NUM_SUCCESS_TRADES%&#xa;%USER_FULL_NAME%&#xa;%USER_EMAIL%&#xa;%USER_PROFILE_COMPLETENESS%&#xa;%USER_NUM_SUCCESS_SELLS%" style="html=1;shadow=0;dashed=0;shape=mxgraph.bootstrap.rrect;fontSize=12;rSize=2;strokeColor=#dddddd;align=left;verticalAlign=top;spacing=10;shadow=1;whiteSpace=wrap;rounded=0;" vertex="1" parent="11gX6aCvTFwOIIHqzgFL-1">
          <mxGeometry x="590" y="665" width="240" height="140" as="geometry" />
        </mxCell>
        <mxCell id="11gX6aCvTFwOIIHqzgFL-16" value="Message Type" style="html=1;shadow=0;dashed=0;shape=mxgraph.bootstrap.rect;strokeColor=none;fillColor=none;fontColor=#999999;align=left;spacingLeft=5;whiteSpace=wrap;rounded=0;" vertex="1" parent="11gX6aCvTFwOIIHqzgFL-1">
          <mxGeometry x="40" y="930" width="200" height="20" as="geometry" />
        </mxCell>
        <mxCell id="11gX6aCvTFwOIIHqzgFL-17" value="Email + Push" style="html=1;shadow=0;dashed=0;shape=mxgraph.bootstrap.rrect;rSize=5;strokeColor=#dddddd;align=left;spacingLeft=10;fontSize=16;whiteSpace=wrap;rounded=0;" vertex="1" parent="11gX6aCvTFwOIIHqzgFL-1">
          <mxGeometry x="40" y="950" width="390" height="40" as="geometry" />
        </mxCell>
        <mxCell id="11gX6aCvTFwOIIHqzgFL-18" value="" style="shape=triangle;strokeColor=none;fillColor=#000000;direction=south;rounded=0;shadow=1;fontSize=12;fontColor=#000000;align=center;html=1;" vertex="1" parent="11gX6aCvTFwOIIHqzgFL-1">
          <mxGeometry x="410" y="967" width="10" height="5" as="geometry" />
        </mxCell>
        <mxCell id="11gX6aCvTFwOIIHqzgFL-19" value="Tap target" style="html=1;shadow=0;dashed=0;shape=mxgraph.bootstrap.rect;strokeColor=none;fillColor=none;fontColor=#999999;align=left;spacingLeft=5;whiteSpace=wrap;rounded=0;" vertex="1" parent="11gX6aCvTFwOIIHqzgFL-1">
          <mxGeometry x="450" y="930" width="200" height="20" as="geometry" />
        </mxCell>
        <mxCell id="11gX6aCvTFwOIIHqzgFL-20" value="Profile Screen" style="html=1;shadow=0;dashed=0;shape=mxgraph.bootstrap.rrect;rSize=5;strokeColor=#dddddd;align=left;spacingLeft=10;fontSize=16;whiteSpace=wrap;rounded=0;" vertex="1" parent="11gX6aCvTFwOIIHqzgFL-1">
          <mxGeometry x="450" y="950" width="390" height="40" as="geometry" />
        </mxCell>
        <mxCell id="11gX6aCvTFwOIIHqzgFL-21" value="" style="shape=triangle;strokeColor=none;fillColor=#000000;direction=south;rounded=0;shadow=1;fontSize=12;fontColor=#000000;align=center;html=1;" vertex="1" parent="11gX6aCvTFwOIIHqzgFL-1">
          <mxGeometry x="820" y="967" width="10" height="5" as="geometry" />
        </mxCell>
        <mxCell id="11gX6aCvTFwOIIHqzgFL-22" value="Send to Group" style="html=1;shadow=0;dashed=0;shape=mxgraph.bootstrap.rect;strokeColor=none;fillColor=none;fontColor=#999999;align=left;spacingLeft=5;whiteSpace=wrap;rounded=0;" vertex="1" parent="11gX6aCvTFwOIIHqzgFL-1">
          <mxGeometry x="40" y="1010" width="200" height="20" as="geometry" />
        </mxCell>
        <mxCell id="11gX6aCvTFwOIIHqzgFL-23" value="Top Management" style="html=1;shadow=0;dashed=0;shape=mxgraph.bootstrap.checkbox;fontSize=12;strokeColor=#999999;align=left;labelPosition=right;spacingLeft=5;rounded=0;" vertex="1" parent="11gX6aCvTFwOIIHqzgFL-1">
          <mxGeometry x="50" y="1033" width="14" height="14" as="geometry" />
        </mxCell>
        <mxCell id="11gX6aCvTFwOIIHqzgFL-24" value="Marketing Department" style="html=1;shadow=0;dashed=0;shape=mxgraph.bootstrap.rrect;fontSize=12;rSize=3;strokeColor=#999999;align=left;labelPosition=right;spacingLeft=5;rounded=0;" vertex="1" parent="11gX6aCvTFwOIIHqzgFL-1">
          <mxGeometry x="50" y="1053" width="14" height="14" as="geometry" />
        </mxCell>
        <mxCell id="11gX6aCvTFwOIIHqzgFL-25" value="Design Department" style="html=1;shadow=0;dashed=0;shape=mxgraph.bootstrap.checkbox;fontSize=12;strokeColor=#999999;align=left;labelPosition=right;spacingLeft=5;rounded=0;" vertex="1" parent="11gX6aCvTFwOIIHqzgFL-1">
          <mxGeometry x="50" y="1073" width="14" height="14" as="geometry" />
        </mxCell>
        <mxCell id="11gX6aCvTFwOIIHqzgFL-26" value="Financial Department" style="html=1;shadow=0;dashed=0;shape=mxgraph.bootstrap.rrect;fontSize=12;rSize=3;strokeColor=#999999;align=left;labelPosition=right;spacingLeft=5;rounded=0;" vertex="1" parent="11gX6aCvTFwOIIHqzgFL-1">
          <mxGeometry x="50" y="1093" width="14" height="14" as="geometry" />
        </mxCell>
        <mxCell id="11gX6aCvTFwOIIHqzgFL-27" value="Supply Department" style="html=1;shadow=0;dashed=0;shape=mxgraph.bootstrap.rrect;fontSize=12;rSize=3;strokeColor=#999999;align=left;labelPosition=right;spacingLeft=5;rounded=0;" vertex="1" parent="11gX6aCvTFwOIIHqzgFL-1">
          <mxGeometry x="50" y="1113" width="14" height="14" as="geometry" />
        </mxCell>
        <mxCell id="11gX6aCvTFwOIIHqzgFL-28" value="Set Type" style="html=1;shadow=0;dashed=0;shape=mxgraph.bootstrap.rect;strokeColor=none;fillColor=none;fontColor=#999999;align=left;spacingLeft=5;whiteSpace=wrap;rounded=0;" vertex="1" parent="11gX6aCvTFwOIIHqzgFL-1">
          <mxGeometry x="450" y="1010" width="200" height="20" as="geometry" />
        </mxCell>
        <mxCell id="11gX6aCvTFwOIIHqzgFL-29" value="" style="shape=ellipse;dashed=0;strokeColor=#999999;fillColor=#ffffff;html=1;rounded=0;shadow=1;fontSize=12;fontColor=#000000;align=center;" vertex="1" parent="11gX6aCvTFwOIIHqzgFL-1">
          <mxGeometry x="460" y="1033" width="14" height="14" as="geometry" />
        </mxCell>
        <mxCell id="11gX6aCvTFwOIIHqzgFL-30" value="News" style="html=1;shadow=0;dashed=0;shape=mxgraph.bootstrap.rrect;align=center;rSize=3;strokeColor=none;fillColor=#58B957;fontColor=#ffffff;fontStyle=1;fontSize=10;whiteSpace=wrap;rounded=0;" vertex="1" parent="11gX6aCvTFwOIIHqzgFL-1">
          <mxGeometry x="480" y="1033" width="40" height="14" as="geometry" />
        </mxCell>
        <mxCell id="11gX6aCvTFwOIIHqzgFL-31" value="" style="html=1;shadow=0;dashed=0;shape=mxgraph.bootstrap.radioButton;strokeColor=#999999;fillColor=#ffffff;rounded=0;fontSize=12;fontColor=#000000;align=center;" vertex="1" parent="11gX6aCvTFwOIIHqzgFL-1">
          <mxGeometry x="460" y="1053" width="14" height="14" as="geometry" />
        </mxCell>
        <mxCell id="11gX6aCvTFwOIIHqzgFL-32" value="Reports" style="html=1;shadow=0;dashed=0;shape=mxgraph.bootstrap.rrect;align=center;rSize=3;strokeColor=none;fillColor=#55BFE0;fontColor=#ffffff;fontStyle=1;fontSize=10;whiteSpace=wrap;rounded=0;" vertex="1" parent="11gX6aCvTFwOIIHqzgFL-1">
          <mxGeometry x="480" y="1053" width="50" height="14" as="geometry" />
        </mxCell>
        <mxCell id="11gX6aCvTFwOIIHqzgFL-33" value="" style="shape=ellipse;dashed=0;strokeColor=#999999;fillColor=#ffffff;html=1;rounded=0;shadow=1;fontSize=12;fontColor=#000000;align=center;" vertex="1" parent="11gX6aCvTFwOIIHqzgFL-1">
          <mxGeometry x="460" y="1073" width="14" height="14" as="geometry" />
        </mxCell>
        <mxCell id="11gX6aCvTFwOIIHqzgFL-34" value="Documents" style="html=1;shadow=0;dashed=0;shape=mxgraph.bootstrap.rrect;align=center;rSize=3;strokeColor=none;fillColor=#EFAC43;fontColor=#ffffff;fontStyle=1;fontSize=10;whiteSpace=wrap;rounded=0;" vertex="1" parent="11gX6aCvTFwOIIHqzgFL-1">
          <mxGeometry x="480" y="1073" width="70" height="14" as="geometry" />
        </mxCell>
        <mxCell id="11gX6aCvTFwOIIHqzgFL-35" value="" style="shape=ellipse;dashed=0;strokeColor=#999999;fillColor=#ffffff;html=1;rounded=0;shadow=1;fontSize=12;fontColor=#000000;align=center;" vertex="1" parent="11gX6aCvTFwOIIHqzgFL-1">
          <mxGeometry x="460" y="1093" width="14" height="14" as="geometry" />
        </mxCell>
        <mxCell id="11gX6aCvTFwOIIHqzgFL-36" value="Media" style="html=1;shadow=0;dashed=0;shape=mxgraph.bootstrap.rrect;align=center;rSize=3;strokeColor=none;fillColor=#3D8BCD;fontColor=#ffffff;fontStyle=1;fontSize=10;whiteSpace=wrap;rounded=0;" vertex="1" parent="11gX6aCvTFwOIIHqzgFL-1">
          <mxGeometry x="480" y="1093" width="40" height="14" as="geometry" />
        </mxCell>
        <mxCell id="11gX6aCvTFwOIIHqzgFL-37" value="" style="shape=ellipse;dashed=0;strokeColor=#999999;fillColor=#ffffff;html=1;rounded=0;shadow=1;fontSize=12;fontColor=#000000;align=center;" vertex="1" parent="11gX6aCvTFwOIIHqzgFL-1">
          <mxGeometry x="460" y="1113" width="14" height="14" as="geometry" />
        </mxCell>
        <mxCell id="11gX6aCvTFwOIIHqzgFL-38" value="Text" style="html=1;shadow=0;dashed=0;shape=mxgraph.bootstrap.rrect;align=center;rSize=3;strokeColor=none;fillColor=#999999;fontColor=#ffffff;fontStyle=1;fontSize=10;whiteSpace=wrap;rounded=0;" vertex="1" parent="11gX6aCvTFwOIIHqzgFL-1">
          <mxGeometry x="480" y="1113" width="30" height="14" as="geometry" />
        </mxCell>
        <mxCell id="11gX6aCvTFwOIIHqzgFL-39" value="Save Template" style="html=1;shadow=0;dashed=0;shape=mxgraph.bootstrap.rrect;align=center;rSize=5;strokeColor=none;fillColor=#3D8BCD;fontColor=#ffffff;fontSize=16;whiteSpace=wrap;rounded=0;" vertex="1" parent="11gX6aCvTFwOIIHqzgFL-1">
          <mxGeometry x="40" y="1170" width="150" height="40" as="geometry" />
        </mxCell>
        <mxCell id="11gX6aCvTFwOIIHqzgFL-40" value="Cancel" style="html=1;shadow=0;dashed=0;shape=mxgraph.bootstrap.rrect;align=center;rSize=5;strokeColor=#dddddd;fontSize=16;whiteSpace=wrap;rounded=0;" vertex="1" parent="11gX6aCvTFwOIIHqzgFL-1">
          <mxGeometry x="210" y="1170" width="100" height="40" as="geometry" />
        </mxCell>
        <mxCell id="11gX6aCvTFwOIIHqzgFL-41" value="Delete Template" style="html=1;shadow=0;dashed=0;shape=mxgraph.bootstrap.rrect;align=center;rSize=5;strokeColor=none;fillColor=#DB524C;fontColor=#ffffff;fontSize=16;whiteSpace=wrap;rounded=0;" vertex="1" parent="11gX6aCvTFwOIIHqzgFL-1">
          <mxGeometry x="670" y="1170" width="170" height="40" as="geometry" />
        </mxCell>
        <mxCell id="11gX6aCvTFwOIIHqzgFL-42" value="" style="html=1;shadow=0;dashed=0;shape=mxgraph.bootstrap.rrect;rSize=5;strokeColor=#dddddd;rounded=0;fontSize=12;align=center;" vertex="1" parent="11gX6aCvTFwOIIHqzgFL-1">
          <mxGeometry x="860" y="580" width="330" height="400" as="geometry" />
        </mxCell>
        <mxCell id="11gX6aCvTFwOIIHqzgFL-43" value="320x200" style="shape=rect;fontSize=24;fillColor=#f0f0f0;strokeColor=none;fontColor=#999999;whiteSpace=wrap;" vertex="1" parent="11gX6aCvTFwOIIHqzgFL-42">
          <mxGeometry x="5" y="5" width="320" height="200" as="geometry" />
        </mxCell>
        <mxCell id="11gX6aCvTFwOIIHqzgFL-44" value="Thumbnail label" style="html=1;shadow=0;dashed=0;shape=mxgraph.bootstrap.anchor;fontSize=26;align=left;whiteSpace=wrap;" vertex="1" parent="11gX6aCvTFwOIIHqzgFL-42">
          <mxGeometry x="15" y="220" width="300" height="40" as="geometry" />
        </mxCell>
        <mxCell id="11gX6aCvTFwOIIHqzgFL-45" value="Cras justo odio, dapibus ac facilisis in, egestas eget quam. Donec id elit non mi porta gravida at eget metus. Nullam id dolor id nibh ultricies vehicula ut id elit." style="html=1;shadow=0;dashed=0;shape=mxgraph.bootstrap.anchor;strokeColor=#dddddd;whiteSpace=wrap;align=left;verticalAlign=top;fontSize=14;whiteSpace=wrap;" vertex="1" parent="11gX6aCvTFwOIIHqzgFL-42">
          <mxGeometry x="15" y="260" width="300" height="80" as="geometry" />
        </mxCell>
        <mxCell id="11gX6aCvTFwOIIHqzgFL-46" value="Button" style="html=1;shadow=0;dashed=0;shape=mxgraph.bootstrap.rrect;rSize=5;fontSize=16;fillColor=#3D8BCD;strokeColor=none;fontColor=#ffffff;whiteSpace=wrap;" vertex="1" parent="11gX6aCvTFwOIIHqzgFL-42">
          <mxGeometry y="1" width="80" height="40" relative="1" as="geometry">
            <mxPoint x="15" y="-60" as="offset" />
          </mxGeometry>
        </mxCell>
        <mxCell id="11gX6aCvTFwOIIHqzgFL-47" value="Button" style="html=1;shadow=0;dashed=0;shape=mxgraph.bootstrap.rrect;rSize=5;fontSize=16;strokeColor=#dddddd;whiteSpace=wrap;" vertex="1" parent="11gX6aCvTFwOIIHqzgFL-42">
          <mxGeometry y="1" width="80" height="40" relative="1" as="geometry">
            <mxPoint x="100" y="-60" as="offset" />
          </mxGeometry>
        </mxCell>
        <mxCell id="11gX6aCvTFwOIIHqzgFL-48" value="" style="html=1;shadow=0;dashed=0;shape=mxgraph.bootstrap.rrect;rSize=5;strokeColor=#dddddd;rounded=0;fontSize=12;align=center;" vertex="1" parent="11gX6aCvTFwOIIHqzgFL-1">
          <mxGeometry x="320" y="160" width="270" height="310" as="geometry" />
        </mxCell>
        <mxCell id="11gX6aCvTFwOIIHqzgFL-49" value="project image" style="shape=rect;fontSize=24;fillColor=#f0f0f0;strokeColor=none;fontColor=#999999;whiteSpace=wrap;" vertex="1" parent="11gX6aCvTFwOIIHqzgFL-48">
          <mxGeometry x="4.090909090909091" y="3.88" width="261.8181818181818" height="156.13" as="geometry" />
        </mxCell>
        <mxCell id="11gX6aCvTFwOIIHqzgFL-50" value="Project name" style="html=1;shadow=0;dashed=0;shape=mxgraph.bootstrap.anchor;fontSize=26;align=left;whiteSpace=wrap;" vertex="1" parent="11gX6aCvTFwOIIHqzgFL-48">
          <mxGeometry x="4.090909090909091" y="190" width="245.45454545454547" height="31" as="geometry" />
        </mxCell>
        <mxCell id="11gX6aCvTFwOIIHqzgFL-51" value="short notice" style="html=1;shadow=0;dashed=0;shape=mxgraph.bootstrap.anchor;strokeColor=#dddddd;whiteSpace=wrap;align=left;verticalAlign=top;fontSize=14;whiteSpace=wrap;" vertex="1" parent="11gX6aCvTFwOIIHqzgFL-48">
          <mxGeometry x="4.090909090909091" y="230" width="245.45454545454547" height="62" as="geometry" />
        </mxCell>
        <mxCell id="11gX6aCvTFwOIIHqzgFL-52" value="" style="html=1;shadow=0;dashed=0;shape=mxgraph.bootstrap.rrect;rSize=5;strokeColor=#dddddd;rounded=0;fontSize=12;align=center;" vertex="1" parent="11gX6aCvTFwOIIHqzgFL-1">
          <mxGeometry x="600" y="160" width="270" height="310" as="geometry" />
        </mxCell>
        <mxCell id="11gX6aCvTFwOIIHqzgFL-53" value="project image" style="shape=rect;fontSize=24;fillColor=#f0f0f0;strokeColor=none;fontColor=#999999;whiteSpace=wrap;" vertex="1" parent="11gX6aCvTFwOIIHqzgFL-52">
          <mxGeometry x="4.090909090909091" y="3.88" width="261.8181818181818" height="156.13" as="geometry" />
        </mxCell>
        <mxCell id="11gX6aCvTFwOIIHqzgFL-54" value="Project name" style="html=1;shadow=0;dashed=0;shape=mxgraph.bootstrap.anchor;fontSize=26;align=left;whiteSpace=wrap;" vertex="1" parent="11gX6aCvTFwOIIHqzgFL-52">
          <mxGeometry x="4.090909090909091" y="190" width="245.45454545454547" height="31" as="geometry" />
        </mxCell>
        <mxCell id="11gX6aCvTFwOIIHqzgFL-55" value="short notice" style="html=1;shadow=0;dashed=0;shape=mxgraph.bootstrap.anchor;strokeColor=#dddddd;whiteSpace=wrap;align=left;verticalAlign=top;fontSize=14;whiteSpace=wrap;" vertex="1" parent="11gX6aCvTFwOIIHqzgFL-52">
          <mxGeometry x="4.090909090909091" y="230" width="245.45454545454547" height="62" as="geometry" />
        </mxCell>
        <mxCell id="11gX6aCvTFwOIIHqzgFL-56" value="" style="html=1;shadow=0;dashed=0;shape=mxgraph.bootstrap.rrect;rSize=5;strokeColor=#dddddd;rounded=0;fontSize=12;align=center;" vertex="1" parent="11gX6aCvTFwOIIHqzgFL-1">
          <mxGeometry x="880" y="160" width="270" height="310" as="geometry" />
        </mxCell>
        <mxCell id="11gX6aCvTFwOIIHqzgFL-57" value="project image" style="shape=rect;fontSize=24;fillColor=#f0f0f0;strokeColor=none;fontColor=#999999;whiteSpace=wrap;" vertex="1" parent="11gX6aCvTFwOIIHqzgFL-56">
          <mxGeometry x="4.090909090909091" y="3.88" width="261.8181818181818" height="156.13" as="geometry" />
        </mxCell>
        <mxCell id="11gX6aCvTFwOIIHqzgFL-58" value="Project name" style="html=1;shadow=0;dashed=0;shape=mxgraph.bootstrap.anchor;fontSize=26;align=left;whiteSpace=wrap;" vertex="1" parent="11gX6aCvTFwOIIHqzgFL-56">
          <mxGeometry x="4.090909090909091" y="190" width="245.45454545454547" height="31" as="geometry" />
        </mxCell>
        <mxCell id="11gX6aCvTFwOIIHqzgFL-59" value="short notice" style="html=1;shadow=0;dashed=0;shape=mxgraph.bootstrap.anchor;strokeColor=#dddddd;whiteSpace=wrap;align=left;verticalAlign=top;fontSize=14;whiteSpace=wrap;" vertex="1" parent="11gX6aCvTFwOIIHqzgFL-56">
          <mxGeometry x="4.090909090909091" y="230" width="245.45454545454547" height="62" as="geometry" />
        </mxCell>
        <mxCell id="11gX6aCvTFwOIIHqzgFL-60" value="All projects" style="html=1;shadow=0;dashed=0;shape=mxgraph.bootstrap.rrect;rSize=5;strokeColor=none;strokeWidth=1;fillColor=#0085FC;fontColor=#FFFFFF;whiteSpace=wrap;align=left;verticalAlign=middle;spacingLeft=10;fontStyle=0;fontSize=14;" vertex="1" parent="11gX6aCvTFwOIIHqzgFL-1">
          <mxGeometry x="40" y="490" width="130" height="40" as="geometry" />
        </mxCell>
        <mxCell id="11gX6aCvTFwOIIHqzgFL-61" value="6" style="html=1;shadow=0;dashed=0;shape=mxgraph.bootstrap.rrect;rSize=5;strokeColor=none;strokeWidth=1;fillColor=#ffffff;fontColor=#000000;whiteSpace=wrap;align=center;verticalAlign=middle;fontSize=12;" vertex="1" parent="11gX6aCvTFwOIIHqzgFL-60">
          <mxGeometry x="1" y="0.5" width="20" height="20" relative="1" as="geometry">
            <mxPoint x="-30" y="-10" as="offset" />
          </mxGeometry>
        </mxCell>
        <mxCell id="11gX6aCvTFwOIIHqzgFL-62" value="" style="html=1;shadow=0;dashed=0;shape=mxgraph.bootstrap.rect;fillColor=#222222;strokeColor=none;whiteSpace=wrap;rounded=0;fontSize=12;fontColor=#000000;align=center;" vertex="1" parent="11gX6aCvTFwOIIHqzgFL-1">
          <mxGeometry x="40" y="70" width="1150" height="40" as="geometry" />
        </mxCell>
        <mxCell id="11gX6aCvTFwOIIHqzgFL-63" value="Company name" style="html=1;shadow=0;dashed=0;shape=mxgraph.bootstrap.rect;fontSize=14;whiteSpace=wrap;fontColor=#FFFFFF;strokeColor=none;fillColor=none;" vertex="1" parent="11gX6aCvTFwOIIHqzgFL-62">
          <mxGeometry width="115" height="40" as="geometry" />
        </mxCell>
        <mxCell id="11gX6aCvTFwOIIHqzgFL-64" value="Work" style="html=1;shadow=0;dashed=0;shape=mxgraph.bootstrap.rect;strokeColor=none;spacingRight=30;whiteSpace=wrap;align=center;fillColor=none;fontColor=#999999;" vertex="1" parent="11gX6aCvTFwOIIHqzgFL-62">
          <mxGeometry x="115" width="135" height="40" as="geometry" />
        </mxCell>
        <mxCell id="11gX6aCvTFwOIIHqzgFL-65" value="Project" style="html=1;shadow=0;dashed=0;strokeColor=none;shape=mxgraph.bootstrap.rect;fontColor=#999999;spacingRight=30;whiteSpace=wrap;fillColor=none;" vertex="1" parent="11gX6aCvTFwOIIHqzgFL-62">
          <mxGeometry x="250" width="152.5" height="40" as="geometry" />
        </mxCell>
        <mxCell id="11gX6aCvTFwOIIHqzgFL-66" value="" style="html=1;shadow=0;dashed=0;shape=mxgraph.bootstrap.rrect;rSize=8;strokeColor=none;fontColor=#ffffff;whiteSpace=wrap;fillColor=none;" vertex="1" parent="11gX6aCvTFwOIIHqzgFL-65">
          <mxGeometry x="1" y="0.5" width="25" height="16" relative="1" as="geometry">
            <mxPoint x="362.5" y="30" as="offset" />
          </mxGeometry>
        </mxCell>
        <mxCell id="11gX6aCvTFwOIIHqzgFL-67" value="" style="html=1;verticalLabelPosition=bottom;labelBackgroundColor=#ffffff;verticalAlign=top;shadow=0;dashed=0;strokeWidth=2;shape=mxgraph.ios7.misc.down;fillColor=none;fontSize=11;fontColor=#999999;align=center;opacity=70;fillOpacity=80;strokeOpacity=80;strokeColor=#999999;" vertex="1" parent="11gX6aCvTFwOIIHqzgFL-65">
          <mxGeometry x="90" y="17.5" width="9" height="5" as="geometry" />
        </mxCell>
        <mxCell id="11gX6aCvTFwOIIHqzgFL-68" value="Statistics" style="html=1;shadow=0;dashed=0;fillColor=none;strokeColor=none;shape=mxgraph.bootstrap.rect;fontColor=#999999;whiteSpace=wrap;" vertex="1" parent="11gX6aCvTFwOIIHqzgFL-62">
          <mxGeometry x="402.5" width="115" height="40" as="geometry" />
        </mxCell>
        <mxCell id="11gX6aCvTFwOIIHqzgFL-69" value="Settings" style="html=1;shadow=0;dashed=0;fillColor=none;strokeColor=none;shape=mxgraph.bootstrap.rect;fontColor=#999999;whiteSpace=wrap;" vertex="1" parent="11gX6aCvTFwOIIHqzgFL-62">
          <mxGeometry x="517.5" width="172.5" height="40" as="geometry" />
        </mxCell>
        <mxCell id="11gX6aCvTFwOIIHqzgFL-70" value="Profile" style="html=1;shadow=0;dashed=0;fillColor=none;strokeColor=none;shape=mxgraph.bootstrap.rect;fontColor=#999999;whiteSpace=wrap;" vertex="1" parent="11gX6aCvTFwOIIHqzgFL-62">
          <mxGeometry x="948.75" width="100.625" height="40" as="geometry" />
        </mxCell>
        <mxCell id="11gX6aCvTFwOIIHqzgFL-71" value="Log Out" style="html=1;shadow=0;dashed=0;fillColor=none;strokeColor=none;shape=mxgraph.bootstrap.rect;fontColor=#999999;whiteSpace=wrap;" vertex="1" parent="11gX6aCvTFwOIIHqzgFL-62">
          <mxGeometry x="1049.375" width="100.625" height="40" as="geometry" />
        </mxCell>
      </root>
    </mxGraphModel>
  </diagram>
  <diagram name="Copy of Copy of Project details" id="cQuMOXovN_v41KfEKt6a">
    <mxGraphModel dx="1371" dy="771" grid="1" gridSize="10" guides="1" tooltips="1" connect="1" arrows="1" fold="1" page="1" pageScale="1.5" pageWidth="826" pageHeight="1169" background="#ffffff" math="0" shadow="0">
      <root>
        <mxCell id="0R3f1vISKbZswM3tw8Iw-0" style=";html=1;" />
        <mxCell id="0R3f1vISKbZswM3tw8Iw-1" style=";html=1;" parent="0R3f1vISKbZswM3tw8Iw-0" />
        <mxCell id="0R3f1vISKbZswM3tw8Iw-2" value="" style="html=1;shadow=0;dashed=0;shape=mxgraph.bootstrap.rrect;rSize=5;strokeColor=#dddddd;rounded=0;fontSize=12;align=center;" vertex="1" parent="0R3f1vISKbZswM3tw8Iw-1">
          <mxGeometry x="40" y="160" width="270" height="310" as="geometry" />
        </mxCell>
        <mxCell id="0R3f1vISKbZswM3tw8Iw-3" value="project image" style="shape=rect;fontSize=24;fillColor=#f0f0f0;strokeColor=none;fontColor=#999999;whiteSpace=wrap;" vertex="1" parent="0R3f1vISKbZswM3tw8Iw-2">
          <mxGeometry x="4.090909090909091" y="3.88" width="261.8181818181818" height="156.13" as="geometry" />
        </mxCell>
        <mxCell id="0R3f1vISKbZswM3tw8Iw-4" value="Project name" style="html=1;shadow=0;dashed=0;shape=mxgraph.bootstrap.anchor;fontSize=26;align=left;whiteSpace=wrap;" vertex="1" parent="0R3f1vISKbZswM3tw8Iw-2">
          <mxGeometry x="4.090909090909091" y="190" width="245.45454545454547" height="31" as="geometry" />
        </mxCell>
        <mxCell id="0R3f1vISKbZswM3tw8Iw-5" value="short notice" style="html=1;shadow=0;dashed=0;shape=mxgraph.bootstrap.anchor;strokeColor=#dddddd;whiteSpace=wrap;align=left;verticalAlign=top;fontSize=14;whiteSpace=wrap;" vertex="1" parent="0R3f1vISKbZswM3tw8Iw-2">
          <mxGeometry x="4.090909090909091" y="230" width="245.45454545454547" height="62" as="geometry" />
        </mxCell>
        <mxCell id="0R3f1vISKbZswM3tw8Iw-6" value="All projects" style="html=1;shadow=0;dashed=0;shape=mxgraph.bootstrap.rect;strokeColor=none;fillColor=none;fontColor=#999999;align=left;spacingLeft=5;whiteSpace=wrap;rounded=0;" vertex="1" parent="0R3f1vISKbZswM3tw8Iw-1">
          <mxGeometry x="40" y="130" width="200" height="20" as="geometry" />
        </mxCell>
        <mxCell id="0R3f1vISKbZswM3tw8Iw-7" value="Subject" style="html=1;shadow=0;dashed=0;shape=mxgraph.bootstrap.rect;strokeColor=none;fillColor=none;fontColor=#999999;align=left;spacingLeft=5;whiteSpace=wrap;rounded=0;" vertex="1" parent="0R3f1vISKbZswM3tw8Iw-1">
          <mxGeometry x="40" y="570" width="200" height="20" as="geometry" />
        </mxCell>
        <mxCell id="0R3f1vISKbZswM3tw8Iw-8" value="Hello, %USER_FULL_NAME%" style="html=1;shadow=0;dashed=0;shape=mxgraph.bootstrap.rrect;rSize=5;strokeColor=#dddddd;align=left;spacingLeft=10;fontSize=16;whiteSpace=wrap;rounded=0;" vertex="1" parent="0R3f1vISKbZswM3tw8Iw-1">
          <mxGeometry x="40" y="590" width="800" height="40" as="geometry" />
        </mxCell>
        <mxCell id="0R3f1vISKbZswM3tw8Iw-9" value="Insert System Variable" style="html=1;shadow=0;dashed=0;shape=mxgraph.bootstrap.rect;strokeColor=none;fillColor=none;align=right;fontSize=10;whiteSpace=wrap;rounded=0;" vertex="1" parent="0R3f1vISKbZswM3tw8Iw-1">
          <mxGeometry x="690" y="570" width="120" height="20" as="geometry" />
        </mxCell>
        <mxCell id="0R3f1vISKbZswM3tw8Iw-10" value="" style="shape=triangle;strokeColor=none;fillColor=#000000;direction=south;rounded=0;shadow=1;fontSize=12;fontColor=#000000;align=center;html=1;" vertex="1" parent="0R3f1vISKbZswM3tw8Iw-1">
          <mxGeometry x="812" y="577" width="8" height="4" as="geometry" />
        </mxCell>
        <mxCell id="0R3f1vISKbZswM3tw8Iw-11" value="Message" style="html=1;shadow=0;dashed=0;shape=mxgraph.bootstrap.rect;strokeColor=none;fillColor=none;fontColor=#999999;align=left;spacingLeft=5;whiteSpace=wrap;rounded=0;" vertex="1" parent="0R3f1vISKbZswM3tw8Iw-1">
          <mxGeometry x="40" y="650" width="200" height="20" as="geometry" />
        </mxCell>
        <mxCell id="0R3f1vISKbZswM3tw8Iw-12" value="Hello %USER_FULL_NAME%!&#xa;&#xa;At vero eos et accusamus et iusto odio dignissimos ducimus, qui blanditiis praesentium voluptatum deleniti atque corrupti, quosdolores et quas molestias excepturi sint, obcaecati cupiditate non provident, similique sunt in culpa, qui officia deserunt mollitiaanimi, id est laborum et dolorum fuga. Et harum quidem rerum facilis est et expedita distinctio. Nam libero tempore, cum solutanobis est eligendi optio, cumque nihil impedit, quo minus id, quod maxime placeat, facere possimus, omnis voluptas assumendaest, omnis dolor repellendus." style="html=1;shadow=0;dashed=0;shape=mxgraph.bootstrap.rrect;rSize=5;fontSize=12;strokeColor=#dddddd;align=left;spacing=10;verticalAlign=top;whiteSpace=wrap;rounded=0;" vertex="1" parent="0R3f1vISKbZswM3tw8Iw-1">
          <mxGeometry x="40" y="670" width="800" height="240" as="geometry" />
        </mxCell>
        <mxCell id="0R3f1vISKbZswM3tw8Iw-13" value="Insert System Variable" style="html=1;shadow=0;dashed=0;shape=mxgraph.bootstrap.rect;strokeColor=none;fillColor=none;align=right;fontSize=10;whiteSpace=wrap;rounded=0;" vertex="1" parent="0R3f1vISKbZswM3tw8Iw-1">
          <mxGeometry x="690" y="650" width="120" height="20" as="geometry" />
        </mxCell>
        <mxCell id="0R3f1vISKbZswM3tw8Iw-14" value="" style="shape=triangle;strokeColor=none;fillColor=#000000;direction=south;rounded=0;shadow=1;fontSize=12;fontColor=#000000;align=center;html=1;" vertex="1" parent="0R3f1vISKbZswM3tw8Iw-1">
          <mxGeometry x="812" y="657" width="8" height="4" as="geometry" />
        </mxCell>
        <mxCell id="0R3f1vISKbZswM3tw8Iw-15" value="%USER_FULL_NAME%&#xa;%USER_EMAIL%&#xa;%USER_PROFILE_COMPLETENESS%&#xa;%USER_NUM_SUCCESS_TRADES%&#xa;%USER_FULL_NAME%&#xa;%USER_EMAIL%&#xa;%USER_PROFILE_COMPLETENESS%&#xa;%USER_NUM_SUCCESS_SELLS%" style="html=1;shadow=0;dashed=0;shape=mxgraph.bootstrap.rrect;fontSize=12;rSize=2;strokeColor=#dddddd;align=left;verticalAlign=top;spacing=10;shadow=1;whiteSpace=wrap;rounded=0;" vertex="1" parent="0R3f1vISKbZswM3tw8Iw-1">
          <mxGeometry x="590" y="665" width="240" height="140" as="geometry" />
        </mxCell>
        <mxCell id="0R3f1vISKbZswM3tw8Iw-16" value="Message Type" style="html=1;shadow=0;dashed=0;shape=mxgraph.bootstrap.rect;strokeColor=none;fillColor=none;fontColor=#999999;align=left;spacingLeft=5;whiteSpace=wrap;rounded=0;" vertex="1" parent="0R3f1vISKbZswM3tw8Iw-1">
          <mxGeometry x="40" y="930" width="200" height="20" as="geometry" />
        </mxCell>
        <mxCell id="0R3f1vISKbZswM3tw8Iw-17" value="Email + Push" style="html=1;shadow=0;dashed=0;shape=mxgraph.bootstrap.rrect;rSize=5;strokeColor=#dddddd;align=left;spacingLeft=10;fontSize=16;whiteSpace=wrap;rounded=0;" vertex="1" parent="0R3f1vISKbZswM3tw8Iw-1">
          <mxGeometry x="40" y="950" width="390" height="40" as="geometry" />
        </mxCell>
        <mxCell id="0R3f1vISKbZswM3tw8Iw-18" value="" style="shape=triangle;strokeColor=none;fillColor=#000000;direction=south;rounded=0;shadow=1;fontSize=12;fontColor=#000000;align=center;html=1;" vertex="1" parent="0R3f1vISKbZswM3tw8Iw-1">
          <mxGeometry x="410" y="967" width="10" height="5" as="geometry" />
        </mxCell>
        <mxCell id="0R3f1vISKbZswM3tw8Iw-19" value="Tap target" style="html=1;shadow=0;dashed=0;shape=mxgraph.bootstrap.rect;strokeColor=none;fillColor=none;fontColor=#999999;align=left;spacingLeft=5;whiteSpace=wrap;rounded=0;" vertex="1" parent="0R3f1vISKbZswM3tw8Iw-1">
          <mxGeometry x="450" y="930" width="200" height="20" as="geometry" />
        </mxCell>
        <mxCell id="0R3f1vISKbZswM3tw8Iw-20" value="Profile Screen" style="html=1;shadow=0;dashed=0;shape=mxgraph.bootstrap.rrect;rSize=5;strokeColor=#dddddd;align=left;spacingLeft=10;fontSize=16;whiteSpace=wrap;rounded=0;" vertex="1" parent="0R3f1vISKbZswM3tw8Iw-1">
          <mxGeometry x="450" y="950" width="390" height="40" as="geometry" />
        </mxCell>
        <mxCell id="0R3f1vISKbZswM3tw8Iw-21" value="" style="shape=triangle;strokeColor=none;fillColor=#000000;direction=south;rounded=0;shadow=1;fontSize=12;fontColor=#000000;align=center;html=1;" vertex="1" parent="0R3f1vISKbZswM3tw8Iw-1">
          <mxGeometry x="820" y="967" width="10" height="5" as="geometry" />
        </mxCell>
        <mxCell id="0R3f1vISKbZswM3tw8Iw-22" value="Send to Group" style="html=1;shadow=0;dashed=0;shape=mxgraph.bootstrap.rect;strokeColor=none;fillColor=none;fontColor=#999999;align=left;spacingLeft=5;whiteSpace=wrap;rounded=0;" vertex="1" parent="0R3f1vISKbZswM3tw8Iw-1">
          <mxGeometry x="40" y="1010" width="200" height="20" as="geometry" />
        </mxCell>
        <mxCell id="0R3f1vISKbZswM3tw8Iw-23" value="Top Management" style="html=1;shadow=0;dashed=0;shape=mxgraph.bootstrap.checkbox;fontSize=12;strokeColor=#999999;align=left;labelPosition=right;spacingLeft=5;rounded=0;" vertex="1" parent="0R3f1vISKbZswM3tw8Iw-1">
          <mxGeometry x="50" y="1033" width="14" height="14" as="geometry" />
        </mxCell>
        <mxCell id="0R3f1vISKbZswM3tw8Iw-24" value="Marketing Department" style="html=1;shadow=0;dashed=0;shape=mxgraph.bootstrap.rrect;fontSize=12;rSize=3;strokeColor=#999999;align=left;labelPosition=right;spacingLeft=5;rounded=0;" vertex="1" parent="0R3f1vISKbZswM3tw8Iw-1">
          <mxGeometry x="50" y="1053" width="14" height="14" as="geometry" />
        </mxCell>
        <mxCell id="0R3f1vISKbZswM3tw8Iw-25" value="Design Department" style="html=1;shadow=0;dashed=0;shape=mxgraph.bootstrap.checkbox;fontSize=12;strokeColor=#999999;align=left;labelPosition=right;spacingLeft=5;rounded=0;" vertex="1" parent="0R3f1vISKbZswM3tw8Iw-1">
          <mxGeometry x="50" y="1073" width="14" height="14" as="geometry" />
        </mxCell>
        <mxCell id="0R3f1vISKbZswM3tw8Iw-26" value="Financial Department" style="html=1;shadow=0;dashed=0;shape=mxgraph.bootstrap.rrect;fontSize=12;rSize=3;strokeColor=#999999;align=left;labelPosition=right;spacingLeft=5;rounded=0;" vertex="1" parent="0R3f1vISKbZswM3tw8Iw-1">
          <mxGeometry x="50" y="1093" width="14" height="14" as="geometry" />
        </mxCell>
        <mxCell id="0R3f1vISKbZswM3tw8Iw-27" value="Supply Department" style="html=1;shadow=0;dashed=0;shape=mxgraph.bootstrap.rrect;fontSize=12;rSize=3;strokeColor=#999999;align=left;labelPosition=right;spacingLeft=5;rounded=0;" vertex="1" parent="0R3f1vISKbZswM3tw8Iw-1">
          <mxGeometry x="50" y="1113" width="14" height="14" as="geometry" />
        </mxCell>
        <mxCell id="0R3f1vISKbZswM3tw8Iw-28" value="Set Type" style="html=1;shadow=0;dashed=0;shape=mxgraph.bootstrap.rect;strokeColor=none;fillColor=none;fontColor=#999999;align=left;spacingLeft=5;whiteSpace=wrap;rounded=0;" vertex="1" parent="0R3f1vISKbZswM3tw8Iw-1">
          <mxGeometry x="450" y="1010" width="200" height="20" as="geometry" />
        </mxCell>
        <mxCell id="0R3f1vISKbZswM3tw8Iw-29" value="" style="shape=ellipse;dashed=0;strokeColor=#999999;fillColor=#ffffff;html=1;rounded=0;shadow=1;fontSize=12;fontColor=#000000;align=center;" vertex="1" parent="0R3f1vISKbZswM3tw8Iw-1">
          <mxGeometry x="460" y="1033" width="14" height="14" as="geometry" />
        </mxCell>
        <mxCell id="0R3f1vISKbZswM3tw8Iw-30" value="News" style="html=1;shadow=0;dashed=0;shape=mxgraph.bootstrap.rrect;align=center;rSize=3;strokeColor=none;fillColor=#58B957;fontColor=#ffffff;fontStyle=1;fontSize=10;whiteSpace=wrap;rounded=0;" vertex="1" parent="0R3f1vISKbZswM3tw8Iw-1">
          <mxGeometry x="480" y="1033" width="40" height="14" as="geometry" />
        </mxCell>
        <mxCell id="0R3f1vISKbZswM3tw8Iw-31" value="" style="html=1;shadow=0;dashed=0;shape=mxgraph.bootstrap.radioButton;strokeColor=#999999;fillColor=#ffffff;rounded=0;fontSize=12;fontColor=#000000;align=center;" vertex="1" parent="0R3f1vISKbZswM3tw8Iw-1">
          <mxGeometry x="460" y="1053" width="14" height="14" as="geometry" />
        </mxCell>
        <mxCell id="0R3f1vISKbZswM3tw8Iw-32" value="Reports" style="html=1;shadow=0;dashed=0;shape=mxgraph.bootstrap.rrect;align=center;rSize=3;strokeColor=none;fillColor=#55BFE0;fontColor=#ffffff;fontStyle=1;fontSize=10;whiteSpace=wrap;rounded=0;" vertex="1" parent="0R3f1vISKbZswM3tw8Iw-1">
          <mxGeometry x="480" y="1053" width="50" height="14" as="geometry" />
        </mxCell>
        <mxCell id="0R3f1vISKbZswM3tw8Iw-33" value="" style="shape=ellipse;dashed=0;strokeColor=#999999;fillColor=#ffffff;html=1;rounded=0;shadow=1;fontSize=12;fontColor=#000000;align=center;" vertex="1" parent="0R3f1vISKbZswM3tw8Iw-1">
          <mxGeometry x="460" y="1073" width="14" height="14" as="geometry" />
        </mxCell>
        <mxCell id="0R3f1vISKbZswM3tw8Iw-34" value="Documents" style="html=1;shadow=0;dashed=0;shape=mxgraph.bootstrap.rrect;align=center;rSize=3;strokeColor=none;fillColor=#EFAC43;fontColor=#ffffff;fontStyle=1;fontSize=10;whiteSpace=wrap;rounded=0;" vertex="1" parent="0R3f1vISKbZswM3tw8Iw-1">
          <mxGeometry x="480" y="1073" width="70" height="14" as="geometry" />
        </mxCell>
        <mxCell id="0R3f1vISKbZswM3tw8Iw-35" value="" style="shape=ellipse;dashed=0;strokeColor=#999999;fillColor=#ffffff;html=1;rounded=0;shadow=1;fontSize=12;fontColor=#000000;align=center;" vertex="1" parent="0R3f1vISKbZswM3tw8Iw-1">
          <mxGeometry x="460" y="1093" width="14" height="14" as="geometry" />
        </mxCell>
        <mxCell id="0R3f1vISKbZswM3tw8Iw-36" value="Media" style="html=1;shadow=0;dashed=0;shape=mxgraph.bootstrap.rrect;align=center;rSize=3;strokeColor=none;fillColor=#3D8BCD;fontColor=#ffffff;fontStyle=1;fontSize=10;whiteSpace=wrap;rounded=0;" vertex="1" parent="0R3f1vISKbZswM3tw8Iw-1">
          <mxGeometry x="480" y="1093" width="40" height="14" as="geometry" />
        </mxCell>
        <mxCell id="0R3f1vISKbZswM3tw8Iw-37" value="" style="shape=ellipse;dashed=0;strokeColor=#999999;fillColor=#ffffff;html=1;rounded=0;shadow=1;fontSize=12;fontColor=#000000;align=center;" vertex="1" parent="0R3f1vISKbZswM3tw8Iw-1">
          <mxGeometry x="460" y="1113" width="14" height="14" as="geometry" />
        </mxCell>
        <mxCell id="0R3f1vISKbZswM3tw8Iw-38" value="Text" style="html=1;shadow=0;dashed=0;shape=mxgraph.bootstrap.rrect;align=center;rSize=3;strokeColor=none;fillColor=#999999;fontColor=#ffffff;fontStyle=1;fontSize=10;whiteSpace=wrap;rounded=0;" vertex="1" parent="0R3f1vISKbZswM3tw8Iw-1">
          <mxGeometry x="480" y="1113" width="30" height="14" as="geometry" />
        </mxCell>
        <mxCell id="0R3f1vISKbZswM3tw8Iw-39" value="Save Template" style="html=1;shadow=0;dashed=0;shape=mxgraph.bootstrap.rrect;align=center;rSize=5;strokeColor=none;fillColor=#3D8BCD;fontColor=#ffffff;fontSize=16;whiteSpace=wrap;rounded=0;" vertex="1" parent="0R3f1vISKbZswM3tw8Iw-1">
          <mxGeometry x="40" y="1170" width="150" height="40" as="geometry" />
        </mxCell>
        <mxCell id="0R3f1vISKbZswM3tw8Iw-40" value="Cancel" style="html=1;shadow=0;dashed=0;shape=mxgraph.bootstrap.rrect;align=center;rSize=5;strokeColor=#dddddd;fontSize=16;whiteSpace=wrap;rounded=0;" vertex="1" parent="0R3f1vISKbZswM3tw8Iw-1">
          <mxGeometry x="210" y="1170" width="100" height="40" as="geometry" />
        </mxCell>
        <mxCell id="0R3f1vISKbZswM3tw8Iw-41" value="Delete Template" style="html=1;shadow=0;dashed=0;shape=mxgraph.bootstrap.rrect;align=center;rSize=5;strokeColor=none;fillColor=#DB524C;fontColor=#ffffff;fontSize=16;whiteSpace=wrap;rounded=0;" vertex="1" parent="0R3f1vISKbZswM3tw8Iw-1">
          <mxGeometry x="670" y="1170" width="170" height="40" as="geometry" />
        </mxCell>
        <mxCell id="0R3f1vISKbZswM3tw8Iw-42" value="" style="html=1;shadow=0;dashed=0;shape=mxgraph.bootstrap.rrect;rSize=5;strokeColor=#dddddd;rounded=0;fontSize=12;align=center;" vertex="1" parent="0R3f1vISKbZswM3tw8Iw-1">
          <mxGeometry x="860" y="580" width="330" height="400" as="geometry" />
        </mxCell>
        <mxCell id="0R3f1vISKbZswM3tw8Iw-43" value="320x200" style="shape=rect;fontSize=24;fillColor=#f0f0f0;strokeColor=none;fontColor=#999999;whiteSpace=wrap;" vertex="1" parent="0R3f1vISKbZswM3tw8Iw-42">
          <mxGeometry x="5" y="5" width="320" height="200" as="geometry" />
        </mxCell>
        <mxCell id="0R3f1vISKbZswM3tw8Iw-44" value="Thumbnail label" style="html=1;shadow=0;dashed=0;shape=mxgraph.bootstrap.anchor;fontSize=26;align=left;whiteSpace=wrap;" vertex="1" parent="0R3f1vISKbZswM3tw8Iw-42">
          <mxGeometry x="15" y="220" width="300" height="40" as="geometry" />
        </mxCell>
        <mxCell id="0R3f1vISKbZswM3tw8Iw-45" value="Cras justo odio, dapibus ac facilisis in, egestas eget quam. Donec id elit non mi porta gravida at eget metus. Nullam id dolor id nibh ultricies vehicula ut id elit." style="html=1;shadow=0;dashed=0;shape=mxgraph.bootstrap.anchor;strokeColor=#dddddd;whiteSpace=wrap;align=left;verticalAlign=top;fontSize=14;whiteSpace=wrap;" vertex="1" parent="0R3f1vISKbZswM3tw8Iw-42">
          <mxGeometry x="15" y="260" width="300" height="80" as="geometry" />
        </mxCell>
        <mxCell id="0R3f1vISKbZswM3tw8Iw-46" value="Button" style="html=1;shadow=0;dashed=0;shape=mxgraph.bootstrap.rrect;rSize=5;fontSize=16;fillColor=#3D8BCD;strokeColor=none;fontColor=#ffffff;whiteSpace=wrap;" vertex="1" parent="0R3f1vISKbZswM3tw8Iw-42">
          <mxGeometry y="1" width="80" height="40" relative="1" as="geometry">
            <mxPoint x="15" y="-60" as="offset" />
          </mxGeometry>
        </mxCell>
        <mxCell id="0R3f1vISKbZswM3tw8Iw-47" value="Button" style="html=1;shadow=0;dashed=0;shape=mxgraph.bootstrap.rrect;rSize=5;fontSize=16;strokeColor=#dddddd;whiteSpace=wrap;" vertex="1" parent="0R3f1vISKbZswM3tw8Iw-42">
          <mxGeometry y="1" width="80" height="40" relative="1" as="geometry">
            <mxPoint x="100" y="-60" as="offset" />
          </mxGeometry>
        </mxCell>
        <mxCell id="0R3f1vISKbZswM3tw8Iw-48" value="" style="html=1;shadow=0;dashed=0;shape=mxgraph.bootstrap.rrect;rSize=5;strokeColor=#dddddd;rounded=0;fontSize=12;align=center;" vertex="1" parent="0R3f1vISKbZswM3tw8Iw-1">
          <mxGeometry x="320" y="160" width="270" height="310" as="geometry" />
        </mxCell>
        <mxCell id="0R3f1vISKbZswM3tw8Iw-49" value="project image" style="shape=rect;fontSize=24;fillColor=#f0f0f0;strokeColor=none;fontColor=#999999;whiteSpace=wrap;" vertex="1" parent="0R3f1vISKbZswM3tw8Iw-48">
          <mxGeometry x="4.090909090909091" y="3.88" width="261.8181818181818" height="156.13" as="geometry" />
        </mxCell>
        <mxCell id="0R3f1vISKbZswM3tw8Iw-50" value="Project name" style="html=1;shadow=0;dashed=0;shape=mxgraph.bootstrap.anchor;fontSize=26;align=left;whiteSpace=wrap;" vertex="1" parent="0R3f1vISKbZswM3tw8Iw-48">
          <mxGeometry x="4.090909090909091" y="190" width="245.45454545454547" height="31" as="geometry" />
        </mxCell>
        <mxCell id="0R3f1vISKbZswM3tw8Iw-51" value="short notice" style="html=1;shadow=0;dashed=0;shape=mxgraph.bootstrap.anchor;strokeColor=#dddddd;whiteSpace=wrap;align=left;verticalAlign=top;fontSize=14;whiteSpace=wrap;" vertex="1" parent="0R3f1vISKbZswM3tw8Iw-48">
          <mxGeometry x="4.090909090909091" y="230" width="245.45454545454547" height="62" as="geometry" />
        </mxCell>
        <mxCell id="0R3f1vISKbZswM3tw8Iw-52" value="" style="html=1;shadow=0;dashed=0;shape=mxgraph.bootstrap.rrect;rSize=5;strokeColor=#dddddd;rounded=0;fontSize=12;align=center;" vertex="1" parent="0R3f1vISKbZswM3tw8Iw-1">
          <mxGeometry x="600" y="160" width="270" height="310" as="geometry" />
        </mxCell>
        <mxCell id="0R3f1vISKbZswM3tw8Iw-53" value="project image" style="shape=rect;fontSize=24;fillColor=#f0f0f0;strokeColor=none;fontColor=#999999;whiteSpace=wrap;" vertex="1" parent="0R3f1vISKbZswM3tw8Iw-52">
          <mxGeometry x="4.090909090909091" y="3.88" width="261.8181818181818" height="156.13" as="geometry" />
        </mxCell>
        <mxCell id="0R3f1vISKbZswM3tw8Iw-54" value="Project name" style="html=1;shadow=0;dashed=0;shape=mxgraph.bootstrap.anchor;fontSize=26;align=left;whiteSpace=wrap;" vertex="1" parent="0R3f1vISKbZswM3tw8Iw-52">
          <mxGeometry x="4.090909090909091" y="190" width="245.45454545454547" height="31" as="geometry" />
        </mxCell>
        <mxCell id="0R3f1vISKbZswM3tw8Iw-55" value="short notice" style="html=1;shadow=0;dashed=0;shape=mxgraph.bootstrap.anchor;strokeColor=#dddddd;whiteSpace=wrap;align=left;verticalAlign=top;fontSize=14;whiteSpace=wrap;" vertex="1" parent="0R3f1vISKbZswM3tw8Iw-52">
          <mxGeometry x="4.090909090909091" y="230" width="245.45454545454547" height="62" as="geometry" />
        </mxCell>
        <mxCell id="0R3f1vISKbZswM3tw8Iw-56" value="" style="html=1;shadow=0;dashed=0;shape=mxgraph.bootstrap.rrect;rSize=5;strokeColor=#dddddd;rounded=0;fontSize=12;align=center;" vertex="1" parent="0R3f1vISKbZswM3tw8Iw-1">
          <mxGeometry x="880" y="160" width="270" height="310" as="geometry" />
        </mxCell>
        <mxCell id="0R3f1vISKbZswM3tw8Iw-57" value="project image" style="shape=rect;fontSize=24;fillColor=#f0f0f0;strokeColor=none;fontColor=#999999;whiteSpace=wrap;" vertex="1" parent="0R3f1vISKbZswM3tw8Iw-56">
          <mxGeometry x="4.090909090909091" y="3.88" width="261.8181818181818" height="156.13" as="geometry" />
        </mxCell>
        <mxCell id="0R3f1vISKbZswM3tw8Iw-58" value="Project name" style="html=1;shadow=0;dashed=0;shape=mxgraph.bootstrap.anchor;fontSize=26;align=left;whiteSpace=wrap;" vertex="1" parent="0R3f1vISKbZswM3tw8Iw-56">
          <mxGeometry x="4.090909090909091" y="190" width="245.45454545454547" height="31" as="geometry" />
        </mxCell>
        <mxCell id="0R3f1vISKbZswM3tw8Iw-59" value="short notice" style="html=1;shadow=0;dashed=0;shape=mxgraph.bootstrap.anchor;strokeColor=#dddddd;whiteSpace=wrap;align=left;verticalAlign=top;fontSize=14;whiteSpace=wrap;" vertex="1" parent="0R3f1vISKbZswM3tw8Iw-56">
          <mxGeometry x="4.090909090909091" y="230" width="245.45454545454547" height="62" as="geometry" />
        </mxCell>
        <mxCell id="0R3f1vISKbZswM3tw8Iw-60" value="All projects" style="html=1;shadow=0;dashed=0;shape=mxgraph.bootstrap.rrect;rSize=5;strokeColor=none;strokeWidth=1;fillColor=#0085FC;fontColor=#FFFFFF;whiteSpace=wrap;align=left;verticalAlign=middle;spacingLeft=10;fontStyle=0;fontSize=14;" vertex="1" parent="0R3f1vISKbZswM3tw8Iw-1">
          <mxGeometry x="40" y="490" width="130" height="40" as="geometry" />
        </mxCell>
        <mxCell id="0R3f1vISKbZswM3tw8Iw-61" value="6" style="html=1;shadow=0;dashed=0;shape=mxgraph.bootstrap.rrect;rSize=5;strokeColor=none;strokeWidth=1;fillColor=#ffffff;fontColor=#000000;whiteSpace=wrap;align=center;verticalAlign=middle;fontSize=12;" vertex="1" parent="0R3f1vISKbZswM3tw8Iw-60">
          <mxGeometry x="1" y="0.5" width="20" height="20" relative="1" as="geometry">
            <mxPoint x="-30" y="-10" as="offset" />
          </mxGeometry>
        </mxCell>
        <mxCell id="0R3f1vISKbZswM3tw8Iw-62" value="" style="html=1;shadow=0;dashed=0;shape=mxgraph.bootstrap.rect;fillColor=#222222;strokeColor=none;whiteSpace=wrap;rounded=0;fontSize=12;fontColor=#000000;align=center;" vertex="1" parent="0R3f1vISKbZswM3tw8Iw-1">
          <mxGeometry x="40" y="70" width="1150" height="40" as="geometry" />
        </mxCell>
        <mxCell id="0R3f1vISKbZswM3tw8Iw-63" value="Company name" style="html=1;shadow=0;dashed=0;shape=mxgraph.bootstrap.rect;fontSize=14;whiteSpace=wrap;fontColor=#FFFFFF;strokeColor=none;fillColor=none;" vertex="1" parent="0R3f1vISKbZswM3tw8Iw-62">
          <mxGeometry width="115" height="40" as="geometry" />
        </mxCell>
        <mxCell id="0R3f1vISKbZswM3tw8Iw-64" value="Work" style="html=1;shadow=0;dashed=0;shape=mxgraph.bootstrap.rect;strokeColor=none;spacingRight=30;whiteSpace=wrap;align=center;fillColor=none;fontColor=#999999;" vertex="1" parent="0R3f1vISKbZswM3tw8Iw-62">
          <mxGeometry x="115" width="135" height="40" as="geometry" />
        </mxCell>
        <mxCell id="0R3f1vISKbZswM3tw8Iw-65" value="Project" style="html=1;shadow=0;dashed=0;strokeColor=none;shape=mxgraph.bootstrap.rect;fontColor=#999999;spacingRight=30;whiteSpace=wrap;fillColor=none;" vertex="1" parent="0R3f1vISKbZswM3tw8Iw-62">
          <mxGeometry x="250" width="152.5" height="40" as="geometry" />
        </mxCell>
        <mxCell id="0R3f1vISKbZswM3tw8Iw-66" value="" style="html=1;shadow=0;dashed=0;shape=mxgraph.bootstrap.rrect;rSize=8;strokeColor=none;fontColor=#ffffff;whiteSpace=wrap;fillColor=none;" vertex="1" parent="0R3f1vISKbZswM3tw8Iw-65">
          <mxGeometry x="1" y="0.5" width="25" height="16" relative="1" as="geometry">
            <mxPoint x="362.5" y="30" as="offset" />
          </mxGeometry>
        </mxCell>
        <mxCell id="0R3f1vISKbZswM3tw8Iw-67" value="" style="html=1;verticalLabelPosition=bottom;labelBackgroundColor=#ffffff;verticalAlign=top;shadow=0;dashed=0;strokeWidth=2;shape=mxgraph.ios7.misc.down;fillColor=none;fontSize=11;fontColor=#999999;align=center;opacity=70;fillOpacity=80;strokeOpacity=80;strokeColor=#999999;" vertex="1" parent="0R3f1vISKbZswM3tw8Iw-65">
          <mxGeometry x="90" y="17.5" width="9" height="5" as="geometry" />
        </mxCell>
        <mxCell id="0R3f1vISKbZswM3tw8Iw-68" value="Statistics" style="html=1;shadow=0;dashed=0;fillColor=none;strokeColor=none;shape=mxgraph.bootstrap.rect;fontColor=#999999;whiteSpace=wrap;" vertex="1" parent="0R3f1vISKbZswM3tw8Iw-62">
          <mxGeometry x="402.5" width="115" height="40" as="geometry" />
        </mxCell>
        <mxCell id="0R3f1vISKbZswM3tw8Iw-69" value="Settings" style="html=1;shadow=0;dashed=0;fillColor=none;strokeColor=none;shape=mxgraph.bootstrap.rect;fontColor=#999999;whiteSpace=wrap;" vertex="1" parent="0R3f1vISKbZswM3tw8Iw-62">
          <mxGeometry x="517.5" width="172.5" height="40" as="geometry" />
        </mxCell>
        <mxCell id="0R3f1vISKbZswM3tw8Iw-70" value="Profile" style="html=1;shadow=0;dashed=0;fillColor=none;strokeColor=none;shape=mxgraph.bootstrap.rect;fontColor=#999999;whiteSpace=wrap;" vertex="1" parent="0R3f1vISKbZswM3tw8Iw-62">
          <mxGeometry x="948.75" width="100.625" height="40" as="geometry" />
        </mxCell>
        <mxCell id="0R3f1vISKbZswM3tw8Iw-71" value="Log Out" style="html=1;shadow=0;dashed=0;fillColor=none;strokeColor=none;shape=mxgraph.bootstrap.rect;fontColor=#999999;whiteSpace=wrap;" vertex="1" parent="0R3f1vISKbZswM3tw8Iw-62">
          <mxGeometry x="1049.375" width="100.625" height="40" as="geometry" />
        </mxCell>
      </root>
    </mxGraphModel>
  </diagram>
  <diagram name="Copy of Copy of Copy of Project details" id="V-BurO1A1f28EKrXJ-3_">
    <mxGraphModel dx="1371" dy="771" grid="1" gridSize="10" guides="1" tooltips="1" connect="1" arrows="1" fold="1" page="1" pageScale="1.5" pageWidth="826" pageHeight="1169" background="#ffffff" math="0" shadow="0">
      <root>
        <mxCell id="t7KV68qjIHOk4XWh0_iq-0" style=";html=1;" />
        <mxCell id="t7KV68qjIHOk4XWh0_iq-1" style=";html=1;" parent="t7KV68qjIHOk4XWh0_iq-0" />
        <mxCell id="t7KV68qjIHOk4XWh0_iq-2" value="" style="html=1;shadow=0;dashed=0;shape=mxgraph.bootstrap.rrect;rSize=5;strokeColor=#dddddd;rounded=0;fontSize=12;align=center;" vertex="1" parent="t7KV68qjIHOk4XWh0_iq-1">
          <mxGeometry x="40" y="160" width="270" height="310" as="geometry" />
        </mxCell>
        <mxCell id="t7KV68qjIHOk4XWh0_iq-3" value="project image" style="shape=rect;fontSize=24;fillColor=#f0f0f0;strokeColor=none;fontColor=#999999;whiteSpace=wrap;" vertex="1" parent="t7KV68qjIHOk4XWh0_iq-2">
          <mxGeometry x="4.090909090909091" y="3.88" width="261.8181818181818" height="156.13" as="geometry" />
        </mxCell>
        <mxCell id="t7KV68qjIHOk4XWh0_iq-4" value="Project name" style="html=1;shadow=0;dashed=0;shape=mxgraph.bootstrap.anchor;fontSize=26;align=left;whiteSpace=wrap;" vertex="1" parent="t7KV68qjIHOk4XWh0_iq-2">
          <mxGeometry x="4.090909090909091" y="190" width="245.45454545454547" height="31" as="geometry" />
        </mxCell>
        <mxCell id="t7KV68qjIHOk4XWh0_iq-5" value="short notice" style="html=1;shadow=0;dashed=0;shape=mxgraph.bootstrap.anchor;strokeColor=#dddddd;whiteSpace=wrap;align=left;verticalAlign=top;fontSize=14;whiteSpace=wrap;" vertex="1" parent="t7KV68qjIHOk4XWh0_iq-2">
          <mxGeometry x="4.090909090909091" y="230" width="245.45454545454547" height="62" as="geometry" />
        </mxCell>
        <mxCell id="t7KV68qjIHOk4XWh0_iq-6" value="All projects" style="html=1;shadow=0;dashed=0;shape=mxgraph.bootstrap.rect;strokeColor=none;fillColor=none;fontColor=#999999;align=left;spacingLeft=5;whiteSpace=wrap;rounded=0;" vertex="1" parent="t7KV68qjIHOk4XWh0_iq-1">
          <mxGeometry x="40" y="130" width="200" height="20" as="geometry" />
        </mxCell>
        <mxCell id="t7KV68qjIHOk4XWh0_iq-7" value="Subject" style="html=1;shadow=0;dashed=0;shape=mxgraph.bootstrap.rect;strokeColor=none;fillColor=none;fontColor=#999999;align=left;spacingLeft=5;whiteSpace=wrap;rounded=0;" vertex="1" parent="t7KV68qjIHOk4XWh0_iq-1">
          <mxGeometry x="40" y="570" width="200" height="20" as="geometry" />
        </mxCell>
        <mxCell id="t7KV68qjIHOk4XWh0_iq-8" value="Hello, %USER_FULL_NAME%" style="html=1;shadow=0;dashed=0;shape=mxgraph.bootstrap.rrect;rSize=5;strokeColor=#dddddd;align=left;spacingLeft=10;fontSize=16;whiteSpace=wrap;rounded=0;" vertex="1" parent="t7KV68qjIHOk4XWh0_iq-1">
          <mxGeometry x="40" y="590" width="800" height="40" as="geometry" />
        </mxCell>
        <mxCell id="t7KV68qjIHOk4XWh0_iq-9" value="Insert System Variable" style="html=1;shadow=0;dashed=0;shape=mxgraph.bootstrap.rect;strokeColor=none;fillColor=none;align=right;fontSize=10;whiteSpace=wrap;rounded=0;" vertex="1" parent="t7KV68qjIHOk4XWh0_iq-1">
          <mxGeometry x="690" y="570" width="120" height="20" as="geometry" />
        </mxCell>
        <mxCell id="t7KV68qjIHOk4XWh0_iq-10" value="" style="shape=triangle;strokeColor=none;fillColor=#000000;direction=south;rounded=0;shadow=1;fontSize=12;fontColor=#000000;align=center;html=1;" vertex="1" parent="t7KV68qjIHOk4XWh0_iq-1">
          <mxGeometry x="812" y="577" width="8" height="4" as="geometry" />
        </mxCell>
        <mxCell id="t7KV68qjIHOk4XWh0_iq-11" value="Message" style="html=1;shadow=0;dashed=0;shape=mxgraph.bootstrap.rect;strokeColor=none;fillColor=none;fontColor=#999999;align=left;spacingLeft=5;whiteSpace=wrap;rounded=0;" vertex="1" parent="t7KV68qjIHOk4XWh0_iq-1">
          <mxGeometry x="40" y="650" width="200" height="20" as="geometry" />
        </mxCell>
        <mxCell id="t7KV68qjIHOk4XWh0_iq-12" value="Hello %USER_FULL_NAME%!&#xa;&#xa;At vero eos et accusamus et iusto odio dignissimos ducimus, qui blanditiis praesentium voluptatum deleniti atque corrupti, quosdolores et quas molestias excepturi sint, obcaecati cupiditate non provident, similique sunt in culpa, qui officia deserunt mollitiaanimi, id est laborum et dolorum fuga. Et harum quidem rerum facilis est et expedita distinctio. Nam libero tempore, cum solutanobis est eligendi optio, cumque nihil impedit, quo minus id, quod maxime placeat, facere possimus, omnis voluptas assumendaest, omnis dolor repellendus." style="html=1;shadow=0;dashed=0;shape=mxgraph.bootstrap.rrect;rSize=5;fontSize=12;strokeColor=#dddddd;align=left;spacing=10;verticalAlign=top;whiteSpace=wrap;rounded=0;" vertex="1" parent="t7KV68qjIHOk4XWh0_iq-1">
          <mxGeometry x="40" y="670" width="800" height="240" as="geometry" />
        </mxCell>
        <mxCell id="t7KV68qjIHOk4XWh0_iq-13" value="Insert System Variable" style="html=1;shadow=0;dashed=0;shape=mxgraph.bootstrap.rect;strokeColor=none;fillColor=none;align=right;fontSize=10;whiteSpace=wrap;rounded=0;" vertex="1" parent="t7KV68qjIHOk4XWh0_iq-1">
          <mxGeometry x="690" y="650" width="120" height="20" as="geometry" />
        </mxCell>
        <mxCell id="t7KV68qjIHOk4XWh0_iq-14" value="" style="shape=triangle;strokeColor=none;fillColor=#000000;direction=south;rounded=0;shadow=1;fontSize=12;fontColor=#000000;align=center;html=1;" vertex="1" parent="t7KV68qjIHOk4XWh0_iq-1">
          <mxGeometry x="812" y="657" width="8" height="4" as="geometry" />
        </mxCell>
        <mxCell id="t7KV68qjIHOk4XWh0_iq-15" value="%USER_FULL_NAME%&#xa;%USER_EMAIL%&#xa;%USER_PROFILE_COMPLETENESS%&#xa;%USER_NUM_SUCCESS_TRADES%&#xa;%USER_FULL_NAME%&#xa;%USER_EMAIL%&#xa;%USER_PROFILE_COMPLETENESS%&#xa;%USER_NUM_SUCCESS_SELLS%" style="html=1;shadow=0;dashed=0;shape=mxgraph.bootstrap.rrect;fontSize=12;rSize=2;strokeColor=#dddddd;align=left;verticalAlign=top;spacing=10;shadow=1;whiteSpace=wrap;rounded=0;" vertex="1" parent="t7KV68qjIHOk4XWh0_iq-1">
          <mxGeometry x="590" y="665" width="240" height="140" as="geometry" />
        </mxCell>
        <mxCell id="t7KV68qjIHOk4XWh0_iq-16" value="Message Type" style="html=1;shadow=0;dashed=0;shape=mxgraph.bootstrap.rect;strokeColor=none;fillColor=none;fontColor=#999999;align=left;spacingLeft=5;whiteSpace=wrap;rounded=0;" vertex="1" parent="t7KV68qjIHOk4XWh0_iq-1">
          <mxGeometry x="40" y="930" width="200" height="20" as="geometry" />
        </mxCell>
        <mxCell id="t7KV68qjIHOk4XWh0_iq-17" value="Email + Push" style="html=1;shadow=0;dashed=0;shape=mxgraph.bootstrap.rrect;rSize=5;strokeColor=#dddddd;align=left;spacingLeft=10;fontSize=16;whiteSpace=wrap;rounded=0;" vertex="1" parent="t7KV68qjIHOk4XWh0_iq-1">
          <mxGeometry x="40" y="950" width="390" height="40" as="geometry" />
        </mxCell>
        <mxCell id="t7KV68qjIHOk4XWh0_iq-18" value="" style="shape=triangle;strokeColor=none;fillColor=#000000;direction=south;rounded=0;shadow=1;fontSize=12;fontColor=#000000;align=center;html=1;" vertex="1" parent="t7KV68qjIHOk4XWh0_iq-1">
          <mxGeometry x="410" y="967" width="10" height="5" as="geometry" />
        </mxCell>
        <mxCell id="t7KV68qjIHOk4XWh0_iq-19" value="Tap target" style="html=1;shadow=0;dashed=0;shape=mxgraph.bootstrap.rect;strokeColor=none;fillColor=none;fontColor=#999999;align=left;spacingLeft=5;whiteSpace=wrap;rounded=0;" vertex="1" parent="t7KV68qjIHOk4XWh0_iq-1">
          <mxGeometry x="450" y="930" width="200" height="20" as="geometry" />
        </mxCell>
        <mxCell id="t7KV68qjIHOk4XWh0_iq-20" value="Profile Screen" style="html=1;shadow=0;dashed=0;shape=mxgraph.bootstrap.rrect;rSize=5;strokeColor=#dddddd;align=left;spacingLeft=10;fontSize=16;whiteSpace=wrap;rounded=0;" vertex="1" parent="t7KV68qjIHOk4XWh0_iq-1">
          <mxGeometry x="450" y="950" width="390" height="40" as="geometry" />
        </mxCell>
        <mxCell id="t7KV68qjIHOk4XWh0_iq-21" value="" style="shape=triangle;strokeColor=none;fillColor=#000000;direction=south;rounded=0;shadow=1;fontSize=12;fontColor=#000000;align=center;html=1;" vertex="1" parent="t7KV68qjIHOk4XWh0_iq-1">
          <mxGeometry x="820" y="967" width="10" height="5" as="geometry" />
        </mxCell>
        <mxCell id="t7KV68qjIHOk4XWh0_iq-22" value="Send to Group" style="html=1;shadow=0;dashed=0;shape=mxgraph.bootstrap.rect;strokeColor=none;fillColor=none;fontColor=#999999;align=left;spacingLeft=5;whiteSpace=wrap;rounded=0;" vertex="1" parent="t7KV68qjIHOk4XWh0_iq-1">
          <mxGeometry x="40" y="1010" width="200" height="20" as="geometry" />
        </mxCell>
        <mxCell id="t7KV68qjIHOk4XWh0_iq-23" value="Top Management" style="html=1;shadow=0;dashed=0;shape=mxgraph.bootstrap.checkbox;fontSize=12;strokeColor=#999999;align=left;labelPosition=right;spacingLeft=5;rounded=0;" vertex="1" parent="t7KV68qjIHOk4XWh0_iq-1">
          <mxGeometry x="50" y="1033" width="14" height="14" as="geometry" />
        </mxCell>
        <mxCell id="t7KV68qjIHOk4XWh0_iq-24" value="Marketing Department" style="html=1;shadow=0;dashed=0;shape=mxgraph.bootstrap.rrect;fontSize=12;rSize=3;strokeColor=#999999;align=left;labelPosition=right;spacingLeft=5;rounded=0;" vertex="1" parent="t7KV68qjIHOk4XWh0_iq-1">
          <mxGeometry x="50" y="1053" width="14" height="14" as="geometry" />
        </mxCell>
        <mxCell id="t7KV68qjIHOk4XWh0_iq-25" value="Design Department" style="html=1;shadow=0;dashed=0;shape=mxgraph.bootstrap.checkbox;fontSize=12;strokeColor=#999999;align=left;labelPosition=right;spacingLeft=5;rounded=0;" vertex="1" parent="t7KV68qjIHOk4XWh0_iq-1">
          <mxGeometry x="50" y="1073" width="14" height="14" as="geometry" />
        </mxCell>
        <mxCell id="t7KV68qjIHOk4XWh0_iq-26" value="Financial Department" style="html=1;shadow=0;dashed=0;shape=mxgraph.bootstrap.rrect;fontSize=12;rSize=3;strokeColor=#999999;align=left;labelPosition=right;spacingLeft=5;rounded=0;" vertex="1" parent="t7KV68qjIHOk4XWh0_iq-1">
          <mxGeometry x="50" y="1093" width="14" height="14" as="geometry" />
        </mxCell>
        <mxCell id="t7KV68qjIHOk4XWh0_iq-27" value="Supply Department" style="html=1;shadow=0;dashed=0;shape=mxgraph.bootstrap.rrect;fontSize=12;rSize=3;strokeColor=#999999;align=left;labelPosition=right;spacingLeft=5;rounded=0;" vertex="1" parent="t7KV68qjIHOk4XWh0_iq-1">
          <mxGeometry x="50" y="1113" width="14" height="14" as="geometry" />
        </mxCell>
        <mxCell id="t7KV68qjIHOk4XWh0_iq-28" value="Set Type" style="html=1;shadow=0;dashed=0;shape=mxgraph.bootstrap.rect;strokeColor=none;fillColor=none;fontColor=#999999;align=left;spacingLeft=5;whiteSpace=wrap;rounded=0;" vertex="1" parent="t7KV68qjIHOk4XWh0_iq-1">
          <mxGeometry x="450" y="1010" width="200" height="20" as="geometry" />
        </mxCell>
        <mxCell id="t7KV68qjIHOk4XWh0_iq-29" value="" style="shape=ellipse;dashed=0;strokeColor=#999999;fillColor=#ffffff;html=1;rounded=0;shadow=1;fontSize=12;fontColor=#000000;align=center;" vertex="1" parent="t7KV68qjIHOk4XWh0_iq-1">
          <mxGeometry x="460" y="1033" width="14" height="14" as="geometry" />
        </mxCell>
        <mxCell id="t7KV68qjIHOk4XWh0_iq-30" value="News" style="html=1;shadow=0;dashed=0;shape=mxgraph.bootstrap.rrect;align=center;rSize=3;strokeColor=none;fillColor=#58B957;fontColor=#ffffff;fontStyle=1;fontSize=10;whiteSpace=wrap;rounded=0;" vertex="1" parent="t7KV68qjIHOk4XWh0_iq-1">
          <mxGeometry x="480" y="1033" width="40" height="14" as="geometry" />
        </mxCell>
        <mxCell id="t7KV68qjIHOk4XWh0_iq-31" value="" style="html=1;shadow=0;dashed=0;shape=mxgraph.bootstrap.radioButton;strokeColor=#999999;fillColor=#ffffff;rounded=0;fontSize=12;fontColor=#000000;align=center;" vertex="1" parent="t7KV68qjIHOk4XWh0_iq-1">
          <mxGeometry x="460" y="1053" width="14" height="14" as="geometry" />
        </mxCell>
        <mxCell id="t7KV68qjIHOk4XWh0_iq-32" value="Reports" style="html=1;shadow=0;dashed=0;shape=mxgraph.bootstrap.rrect;align=center;rSize=3;strokeColor=none;fillColor=#55BFE0;fontColor=#ffffff;fontStyle=1;fontSize=10;whiteSpace=wrap;rounded=0;" vertex="1" parent="t7KV68qjIHOk4XWh0_iq-1">
          <mxGeometry x="480" y="1053" width="50" height="14" as="geometry" />
        </mxCell>
        <mxCell id="t7KV68qjIHOk4XWh0_iq-33" value="" style="shape=ellipse;dashed=0;strokeColor=#999999;fillColor=#ffffff;html=1;rounded=0;shadow=1;fontSize=12;fontColor=#000000;align=center;" vertex="1" parent="t7KV68qjIHOk4XWh0_iq-1">
          <mxGeometry x="460" y="1073" width="14" height="14" as="geometry" />
        </mxCell>
        <mxCell id="t7KV68qjIHOk4XWh0_iq-34" value="Documents" style="html=1;shadow=0;dashed=0;shape=mxgraph.bootstrap.rrect;align=center;rSize=3;strokeColor=none;fillColor=#EFAC43;fontColor=#ffffff;fontStyle=1;fontSize=10;whiteSpace=wrap;rounded=0;" vertex="1" parent="t7KV68qjIHOk4XWh0_iq-1">
          <mxGeometry x="480" y="1073" width="70" height="14" as="geometry" />
        </mxCell>
        <mxCell id="t7KV68qjIHOk4XWh0_iq-35" value="" style="shape=ellipse;dashed=0;strokeColor=#999999;fillColor=#ffffff;html=1;rounded=0;shadow=1;fontSize=12;fontColor=#000000;align=center;" vertex="1" parent="t7KV68qjIHOk4XWh0_iq-1">
          <mxGeometry x="460" y="1093" width="14" height="14" as="geometry" />
        </mxCell>
        <mxCell id="t7KV68qjIHOk4XWh0_iq-36" value="Media" style="html=1;shadow=0;dashed=0;shape=mxgraph.bootstrap.rrect;align=center;rSize=3;strokeColor=none;fillColor=#3D8BCD;fontColor=#ffffff;fontStyle=1;fontSize=10;whiteSpace=wrap;rounded=0;" vertex="1" parent="t7KV68qjIHOk4XWh0_iq-1">
          <mxGeometry x="480" y="1093" width="40" height="14" as="geometry" />
        </mxCell>
        <mxCell id="t7KV68qjIHOk4XWh0_iq-37" value="" style="shape=ellipse;dashed=0;strokeColor=#999999;fillColor=#ffffff;html=1;rounded=0;shadow=1;fontSize=12;fontColor=#000000;align=center;" vertex="1" parent="t7KV68qjIHOk4XWh0_iq-1">
          <mxGeometry x="460" y="1113" width="14" height="14" as="geometry" />
        </mxCell>
        <mxCell id="t7KV68qjIHOk4XWh0_iq-38" value="Text" style="html=1;shadow=0;dashed=0;shape=mxgraph.bootstrap.rrect;align=center;rSize=3;strokeColor=none;fillColor=#999999;fontColor=#ffffff;fontStyle=1;fontSize=10;whiteSpace=wrap;rounded=0;" vertex="1" parent="t7KV68qjIHOk4XWh0_iq-1">
          <mxGeometry x="480" y="1113" width="30" height="14" as="geometry" />
        </mxCell>
        <mxCell id="t7KV68qjIHOk4XWh0_iq-39" value="Save Template" style="html=1;shadow=0;dashed=0;shape=mxgraph.bootstrap.rrect;align=center;rSize=5;strokeColor=none;fillColor=#3D8BCD;fontColor=#ffffff;fontSize=16;whiteSpace=wrap;rounded=0;" vertex="1" parent="t7KV68qjIHOk4XWh0_iq-1">
          <mxGeometry x="40" y="1170" width="150" height="40" as="geometry" />
        </mxCell>
        <mxCell id="t7KV68qjIHOk4XWh0_iq-40" value="Cancel" style="html=1;shadow=0;dashed=0;shape=mxgraph.bootstrap.rrect;align=center;rSize=5;strokeColor=#dddddd;fontSize=16;whiteSpace=wrap;rounded=0;" vertex="1" parent="t7KV68qjIHOk4XWh0_iq-1">
          <mxGeometry x="210" y="1170" width="100" height="40" as="geometry" />
        </mxCell>
        <mxCell id="t7KV68qjIHOk4XWh0_iq-41" value="Delete Template" style="html=1;shadow=0;dashed=0;shape=mxgraph.bootstrap.rrect;align=center;rSize=5;strokeColor=none;fillColor=#DB524C;fontColor=#ffffff;fontSize=16;whiteSpace=wrap;rounded=0;" vertex="1" parent="t7KV68qjIHOk4XWh0_iq-1">
          <mxGeometry x="670" y="1170" width="170" height="40" as="geometry" />
        </mxCell>
        <mxCell id="t7KV68qjIHOk4XWh0_iq-42" value="" style="html=1;shadow=0;dashed=0;shape=mxgraph.bootstrap.rrect;rSize=5;strokeColor=#dddddd;rounded=0;fontSize=12;align=center;" vertex="1" parent="t7KV68qjIHOk4XWh0_iq-1">
          <mxGeometry x="860" y="580" width="330" height="400" as="geometry" />
        </mxCell>
        <mxCell id="t7KV68qjIHOk4XWh0_iq-43" value="320x200" style="shape=rect;fontSize=24;fillColor=#f0f0f0;strokeColor=none;fontColor=#999999;whiteSpace=wrap;" vertex="1" parent="t7KV68qjIHOk4XWh0_iq-42">
          <mxGeometry x="5" y="5" width="320" height="200" as="geometry" />
        </mxCell>
        <mxCell id="t7KV68qjIHOk4XWh0_iq-44" value="Thumbnail label" style="html=1;shadow=0;dashed=0;shape=mxgraph.bootstrap.anchor;fontSize=26;align=left;whiteSpace=wrap;" vertex="1" parent="t7KV68qjIHOk4XWh0_iq-42">
          <mxGeometry x="15" y="220" width="300" height="40" as="geometry" />
        </mxCell>
        <mxCell id="t7KV68qjIHOk4XWh0_iq-45" value="Cras justo odio, dapibus ac facilisis in, egestas eget quam. Donec id elit non mi porta gravida at eget metus. Nullam id dolor id nibh ultricies vehicula ut id elit." style="html=1;shadow=0;dashed=0;shape=mxgraph.bootstrap.anchor;strokeColor=#dddddd;whiteSpace=wrap;align=left;verticalAlign=top;fontSize=14;whiteSpace=wrap;" vertex="1" parent="t7KV68qjIHOk4XWh0_iq-42">
          <mxGeometry x="15" y="260" width="300" height="80" as="geometry" />
        </mxCell>
        <mxCell id="t7KV68qjIHOk4XWh0_iq-46" value="Button" style="html=1;shadow=0;dashed=0;shape=mxgraph.bootstrap.rrect;rSize=5;fontSize=16;fillColor=#3D8BCD;strokeColor=none;fontColor=#ffffff;whiteSpace=wrap;" vertex="1" parent="t7KV68qjIHOk4XWh0_iq-42">
          <mxGeometry y="1" width="80" height="40" relative="1" as="geometry">
            <mxPoint x="15" y="-60" as="offset" />
          </mxGeometry>
        </mxCell>
        <mxCell id="t7KV68qjIHOk4XWh0_iq-47" value="Button" style="html=1;shadow=0;dashed=0;shape=mxgraph.bootstrap.rrect;rSize=5;fontSize=16;strokeColor=#dddddd;whiteSpace=wrap;" vertex="1" parent="t7KV68qjIHOk4XWh0_iq-42">
          <mxGeometry y="1" width="80" height="40" relative="1" as="geometry">
            <mxPoint x="100" y="-60" as="offset" />
          </mxGeometry>
        </mxCell>
        <mxCell id="t7KV68qjIHOk4XWh0_iq-48" value="" style="html=1;shadow=0;dashed=0;shape=mxgraph.bootstrap.rrect;rSize=5;strokeColor=#dddddd;rounded=0;fontSize=12;align=center;" vertex="1" parent="t7KV68qjIHOk4XWh0_iq-1">
          <mxGeometry x="320" y="160" width="270" height="310" as="geometry" />
        </mxCell>
        <mxCell id="t7KV68qjIHOk4XWh0_iq-49" value="project image" style="shape=rect;fontSize=24;fillColor=#f0f0f0;strokeColor=none;fontColor=#999999;whiteSpace=wrap;" vertex="1" parent="t7KV68qjIHOk4XWh0_iq-48">
          <mxGeometry x="4.090909090909091" y="3.88" width="261.8181818181818" height="156.13" as="geometry" />
        </mxCell>
        <mxCell id="t7KV68qjIHOk4XWh0_iq-50" value="Project name" style="html=1;shadow=0;dashed=0;shape=mxgraph.bootstrap.anchor;fontSize=26;align=left;whiteSpace=wrap;" vertex="1" parent="t7KV68qjIHOk4XWh0_iq-48">
          <mxGeometry x="4.090909090909091" y="190" width="245.45454545454547" height="31" as="geometry" />
        </mxCell>
        <mxCell id="t7KV68qjIHOk4XWh0_iq-51" value="short notice" style="html=1;shadow=0;dashed=0;shape=mxgraph.bootstrap.anchor;strokeColor=#dddddd;whiteSpace=wrap;align=left;verticalAlign=top;fontSize=14;whiteSpace=wrap;" vertex="1" parent="t7KV68qjIHOk4XWh0_iq-48">
          <mxGeometry x="4.090909090909091" y="230" width="245.45454545454547" height="62" as="geometry" />
        </mxCell>
        <mxCell id="t7KV68qjIHOk4XWh0_iq-52" value="" style="html=1;shadow=0;dashed=0;shape=mxgraph.bootstrap.rrect;rSize=5;strokeColor=#dddddd;rounded=0;fontSize=12;align=center;" vertex="1" parent="t7KV68qjIHOk4XWh0_iq-1">
          <mxGeometry x="600" y="160" width="270" height="310" as="geometry" />
        </mxCell>
        <mxCell id="t7KV68qjIHOk4XWh0_iq-53" value="project image" style="shape=rect;fontSize=24;fillColor=#f0f0f0;strokeColor=none;fontColor=#999999;whiteSpace=wrap;" vertex="1" parent="t7KV68qjIHOk4XWh0_iq-52">
          <mxGeometry x="4.090909090909091" y="3.88" width="261.8181818181818" height="156.13" as="geometry" />
        </mxCell>
        <mxCell id="t7KV68qjIHOk4XWh0_iq-54" value="Project name" style="html=1;shadow=0;dashed=0;shape=mxgraph.bootstrap.anchor;fontSize=26;align=left;whiteSpace=wrap;" vertex="1" parent="t7KV68qjIHOk4XWh0_iq-52">
          <mxGeometry x="4.090909090909091" y="190" width="245.45454545454547" height="31" as="geometry" />
        </mxCell>
        <mxCell id="t7KV68qjIHOk4XWh0_iq-55" value="short notice" style="html=1;shadow=0;dashed=0;shape=mxgraph.bootstrap.anchor;strokeColor=#dddddd;whiteSpace=wrap;align=left;verticalAlign=top;fontSize=14;whiteSpace=wrap;" vertex="1" parent="t7KV68qjIHOk4XWh0_iq-52">
          <mxGeometry x="4.090909090909091" y="230" width="245.45454545454547" height="62" as="geometry" />
        </mxCell>
        <mxCell id="t7KV68qjIHOk4XWh0_iq-56" value="" style="html=1;shadow=0;dashed=0;shape=mxgraph.bootstrap.rrect;rSize=5;strokeColor=#dddddd;rounded=0;fontSize=12;align=center;" vertex="1" parent="t7KV68qjIHOk4XWh0_iq-1">
          <mxGeometry x="880" y="160" width="270" height="310" as="geometry" />
        </mxCell>
        <mxCell id="t7KV68qjIHOk4XWh0_iq-57" value="project image" style="shape=rect;fontSize=24;fillColor=#f0f0f0;strokeColor=none;fontColor=#999999;whiteSpace=wrap;" vertex="1" parent="t7KV68qjIHOk4XWh0_iq-56">
          <mxGeometry x="4.090909090909091" y="3.88" width="261.8181818181818" height="156.13" as="geometry" />
        </mxCell>
        <mxCell id="t7KV68qjIHOk4XWh0_iq-58" value="Project name" style="html=1;shadow=0;dashed=0;shape=mxgraph.bootstrap.anchor;fontSize=26;align=left;whiteSpace=wrap;" vertex="1" parent="t7KV68qjIHOk4XWh0_iq-56">
          <mxGeometry x="4.090909090909091" y="190" width="245.45454545454547" height="31" as="geometry" />
        </mxCell>
        <mxCell id="t7KV68qjIHOk4XWh0_iq-59" value="short notice" style="html=1;shadow=0;dashed=0;shape=mxgraph.bootstrap.anchor;strokeColor=#dddddd;whiteSpace=wrap;align=left;verticalAlign=top;fontSize=14;whiteSpace=wrap;" vertex="1" parent="t7KV68qjIHOk4XWh0_iq-56">
          <mxGeometry x="4.090909090909091" y="230" width="245.45454545454547" height="62" as="geometry" />
        </mxCell>
        <mxCell id="t7KV68qjIHOk4XWh0_iq-60" value="All projects" style="html=1;shadow=0;dashed=0;shape=mxgraph.bootstrap.rrect;rSize=5;strokeColor=none;strokeWidth=1;fillColor=#0085FC;fontColor=#FFFFFF;whiteSpace=wrap;align=left;verticalAlign=middle;spacingLeft=10;fontStyle=0;fontSize=14;" vertex="1" parent="t7KV68qjIHOk4XWh0_iq-1">
          <mxGeometry x="40" y="490" width="130" height="40" as="geometry" />
        </mxCell>
        <mxCell id="t7KV68qjIHOk4XWh0_iq-61" value="6" style="html=1;shadow=0;dashed=0;shape=mxgraph.bootstrap.rrect;rSize=5;strokeColor=none;strokeWidth=1;fillColor=#ffffff;fontColor=#000000;whiteSpace=wrap;align=center;verticalAlign=middle;fontSize=12;" vertex="1" parent="t7KV68qjIHOk4XWh0_iq-60">
          <mxGeometry x="1" y="0.5" width="20" height="20" relative="1" as="geometry">
            <mxPoint x="-30" y="-10" as="offset" />
          </mxGeometry>
        </mxCell>
        <mxCell id="t7KV68qjIHOk4XWh0_iq-62" value="" style="html=1;shadow=0;dashed=0;shape=mxgraph.bootstrap.rect;fillColor=#222222;strokeColor=none;whiteSpace=wrap;rounded=0;fontSize=12;fontColor=#000000;align=center;" vertex="1" parent="t7KV68qjIHOk4XWh0_iq-1">
          <mxGeometry x="40" y="70" width="1150" height="40" as="geometry" />
        </mxCell>
        <mxCell id="t7KV68qjIHOk4XWh0_iq-63" value="Company name" style="html=1;shadow=0;dashed=0;shape=mxgraph.bootstrap.rect;fontSize=14;whiteSpace=wrap;fontColor=#FFFFFF;strokeColor=none;fillColor=none;" vertex="1" parent="t7KV68qjIHOk4XWh0_iq-62">
          <mxGeometry width="115" height="40" as="geometry" />
        </mxCell>
        <mxCell id="t7KV68qjIHOk4XWh0_iq-64" value="Work" style="html=1;shadow=0;dashed=0;shape=mxgraph.bootstrap.rect;strokeColor=none;spacingRight=30;whiteSpace=wrap;align=center;fillColor=none;fontColor=#999999;" vertex="1" parent="t7KV68qjIHOk4XWh0_iq-62">
          <mxGeometry x="115" width="135" height="40" as="geometry" />
        </mxCell>
        <mxCell id="t7KV68qjIHOk4XWh0_iq-65" value="Project" style="html=1;shadow=0;dashed=0;strokeColor=none;shape=mxgraph.bootstrap.rect;fontColor=#999999;spacingRight=30;whiteSpace=wrap;fillColor=none;" vertex="1" parent="t7KV68qjIHOk4XWh0_iq-62">
          <mxGeometry x="250" width="152.5" height="40" as="geometry" />
        </mxCell>
        <mxCell id="t7KV68qjIHOk4XWh0_iq-66" value="" style="html=1;shadow=0;dashed=0;shape=mxgraph.bootstrap.rrect;rSize=8;strokeColor=none;fontColor=#ffffff;whiteSpace=wrap;fillColor=none;" vertex="1" parent="t7KV68qjIHOk4XWh0_iq-65">
          <mxGeometry x="1" y="0.5" width="25" height="16" relative="1" as="geometry">
            <mxPoint x="362.5" y="30" as="offset" />
          </mxGeometry>
        </mxCell>
        <mxCell id="t7KV68qjIHOk4XWh0_iq-67" value="" style="html=1;verticalLabelPosition=bottom;labelBackgroundColor=#ffffff;verticalAlign=top;shadow=0;dashed=0;strokeWidth=2;shape=mxgraph.ios7.misc.down;fillColor=none;fontSize=11;fontColor=#999999;align=center;opacity=70;fillOpacity=80;strokeOpacity=80;strokeColor=#999999;" vertex="1" parent="t7KV68qjIHOk4XWh0_iq-65">
          <mxGeometry x="90" y="17.5" width="9" height="5" as="geometry" />
        </mxCell>
        <mxCell id="t7KV68qjIHOk4XWh0_iq-68" value="Statistics" style="html=1;shadow=0;dashed=0;fillColor=none;strokeColor=none;shape=mxgraph.bootstrap.rect;fontColor=#999999;whiteSpace=wrap;" vertex="1" parent="t7KV68qjIHOk4XWh0_iq-62">
          <mxGeometry x="402.5" width="115" height="40" as="geometry" />
        </mxCell>
        <mxCell id="t7KV68qjIHOk4XWh0_iq-69" value="Settings" style="html=1;shadow=0;dashed=0;fillColor=none;strokeColor=none;shape=mxgraph.bootstrap.rect;fontColor=#999999;whiteSpace=wrap;" vertex="1" parent="t7KV68qjIHOk4XWh0_iq-62">
          <mxGeometry x="517.5" width="172.5" height="40" as="geometry" />
        </mxCell>
        <mxCell id="t7KV68qjIHOk4XWh0_iq-70" value="Profile" style="html=1;shadow=0;dashed=0;fillColor=none;strokeColor=none;shape=mxgraph.bootstrap.rect;fontColor=#999999;whiteSpace=wrap;" vertex="1" parent="t7KV68qjIHOk4XWh0_iq-62">
          <mxGeometry x="948.75" width="100.625" height="40" as="geometry" />
        </mxCell>
        <mxCell id="t7KV68qjIHOk4XWh0_iq-71" value="Log Out" style="html=1;shadow=0;dashed=0;fillColor=none;strokeColor=none;shape=mxgraph.bootstrap.rect;fontColor=#999999;whiteSpace=wrap;" vertex="1" parent="t7KV68qjIHOk4XWh0_iq-62">
          <mxGeometry x="1049.375" width="100.625" height="40" as="geometry" />
        </mxCell>
      </root>
    </mxGraphModel>
  </diagram>
</mxfile>
